Oxygen-Bold.ufo
<glyph name="exclam" format="1">
  <advance width="515"/>
  <unicode hex="0021"/>
  <outline>
    <contour>
      <point x="216" y="442" type="line"/>
      <point x="310" y="442" type="line"/>
      <point x="370" y="1294" type="line"/>
      <point x="370" y="1477" type="line"/>
      <point x="150" y="1477" type="line"/>
      <point x="150" y="1294" type="line"/>
    </contour>
    <contour>
      <point x="258" y="-15" type="curve" smooth="yes"/>
      <point x="346" y="-15"/>
      <point x="401" y="53"/>
      <point x="401" y="127" type="curve" smooth="yes"/>
      <point x="401" y="202"/>
      <point x="346" y="271"/>
      <point x="258" y="271" type="curve" smooth="yes"/>
      <point x="170" y="271"/>
      <point x="114" y="202"/>
      <point x="114" y="127" type="curve" smooth="yes"/>
      <point x="114" y="53"/>
      <point x="170" y="-15"/>
    </contour>
  </outline>
</glyph>
<glyph name="quotedbl" format="1">
  <advance width="747"/>
  <unicode hex="0022"/>
  <outline>
    <contour>
      <point x="151" y="985" type="line"/>
      <point x="282" y="985" type="line"/>
      <point x="311" y="1490" type="line"/>
      <point x="123" y="1490" type="line"/>
    </contour>
    <contour>
      <point x="467" y="985" type="line"/>
      <point x="597" y="985" type="line"/>
      <point x="627" y="1490" type="line"/>
      <point x="440" y="1490" type="line"/>
    </contour>
  </outline>
</glyph>
<glyph name="numbersign" format="1">
  <advance width="1163"/>
  <unicode hex="0023"/>
  <outline>
    <contour>
      <point x="183" y="-19" type="line"/>
      <point x="343" y="-19" type="line"/>
      <point x="422" y="407" type="line"/>
      <point x="635" y="407" type="line"/>
      <point x="553" y="-19" type="line"/>
      <point x="727" y="-19" type="line"/>
      <point x="810" y="407" type="line"/>
      <point x="996" y="407" type="line"/>
      <point x="1006" y="560" type="line"/>
      <point x="834" y="560" type="line"/>
      <point x="897" y="915" type="line"/>
      <point x="1073" y="915" type="line"/>
      <point x="1085" y="1066" type="line"/>
      <point x="926" y="1066" type="line"/>
      <point x="996" y="1460" type="line"/>
      <point x="837" y="1460" type="line"/>
      <point x="764" y="1066" type="line"/>
      <point x="551" y="1066" type="line"/>
      <point x="629" y="1460" type="line"/>
      <point x="454" y="1460" type="line"/>
      <point x="372" y="1066" type="line"/>
      <point x="158" y="1066" type="line"/>
      <point x="149" y="914" type="line"/>
      <point x="344" y="914" type="line"/>
      <point x="286" y="560" type="line"/>
      <point x="81" y="560" type="line"/>
      <point x="72" y="407" type="line"/>
      <point x="258" y="407" type="line"/>
    </contour>
    <contour>
      <point x="451" y="560" type="line"/>
      <point x="521" y="915" type="line"/>
      <point x="735" y="915" type="line"/>
      <point x="665" y="560" type="line"/>
    </contour>
  </outline>
</glyph>
<glyph name="dollar" format="1">
  <advance width="1217"/>
  <unicode hex="0024"/>
  <outline>
    <contour>
      <point x="566" y="-181" type="line"/>
      <point x="670" y="-181" type="line"/>
      <point x="670" y="1656" type="line"/>
      <point x="566" y="1656" type="line"/>
    </contour>
    <component base="S"/>
  </outline>
</glyph>
<glyph name="ampersand" format="1">
  <advance width="1456"/>
  <unicode hex="0026"/>
  <outline>
    <contour>
      <point x="600" y="-23" type="curve" smooth="yes"/>
      <point x="783" y="-23"/>
      <point x="939" y="37"/>
      <point x="1068" y="138" type="curve"/>
      <point x="1207" y="-13" type="line"/>
      <point x="1238" y="-4"/>
      <point x="1359" y="27"/>
      <point x="1390" y="39" type="curve"/>
      <point x="1196" y="256" type="line"/>
      <point x="1262" y="331"/>
      <point x="1322" y="424"/>
      <point x="1366" y="514" type="curve"/>
      <point x="1220" y="617" type="line"/>
      <point x="1182" y="537"/>
      <point x="1129" y="451"/>
      <point x="1072" y="390" type="curve"/>
      <point x="697" y="795" type="line"/>
      <point x="870" y="878"/>
      <point x="1027" y="992"/>
      <point x="1027" y="1175" type="curve" smooth="yes"/>
      <point x="1027" y="1391"/>
      <point x="830" y="1487"/>
      <point x="634" y="1487" type="curve" smooth="yes"/>
      <point x="415" y="1487"/>
      <point x="249" y="1372"/>
      <point x="249" y="1157" type="curve" smooth="yes"/>
      <point x="249" y="1026"/>
      <point x="324" y="939"/>
      <point x="417" y="835" type="curve"/>
      <point x="230" y="738"/>
      <point x="80" y="618"/>
      <point x="80" y="400" type="curve" smooth="yes"/>
      <point x="80" y="119"/>
      <point x="292" y="-23"/>
    </contour>
    <contour>
      <point x="608" y="150" type="curve" smooth="yes"/>
      <point x="416" y="150"/>
      <point x="285" y="242"/>
      <point x="285" y="416" type="curve" smooth="yes"/>
      <point x="285" y="562"/>
      <point x="391" y="642"/>
      <point x="526" y="713" type="curve"/>
      <point x="618" y="615"/>
      <point x="849" y="366"/>
      <point x="941" y="268" type="curve"/>
      <point x="852" y="196"/>
      <point x="736" y="150"/>
    </contour>
    <contour>
      <point x="588" y="917" type="curve"/>
      <point x="511" y="993"/>
      <point x="453" y="1066"/>
      <point x="453" y="1162" type="curve" smooth="yes"/>
      <point x="453" y="1273"/>
      <point x="529" y="1330"/>
      <point x="639" y="1330" type="curve" smooth="yes"/>
      <point x="737" y="1330"/>
      <point x="819" y="1277"/>
      <point x="819" y="1168" type="curve" smooth="yes"/>
      <point x="819" y="1044"/>
      <point x="707" y="978"/>
    </contour>
  </outline>
</glyph>
<glyph name="quotesingle" format="1">
  <advance width="432"/>
  <unicode hex="0027"/>
  <outline>
    <contour>
      <point x="144" y="951" type="line"/>
      <point x="278" y="951" type="line"/>
      <point x="301" y="1475" type="line"/>
      <point x="116" y="1475" type="line"/>
    </contour>
  </outline>
</glyph>
<glyph name="parenleft" format="1">
  <advance width="630"/>
  <unicode hex="0028"/>
  <outline>
    <contour>
      <point x="377" y="-273" type="curve"/>
      <point x="571" y="-273" type="line"/>
      <point x="436" y="-72"/>
      <point x="308" y="273"/>
      <point x="308" y="600" type="curve" smooth="yes"/>
      <point x="308" y="938"/>
      <point x="432" y="1276"/>
      <point x="572" y="1487" type="curve"/>
      <point x="376" y="1487" type="line"/>
      <point x="205" y="1243"/>
      <point x="98" y="943"/>
      <point x="98" y="598" type="curve" smooth="yes"/>
      <point x="98" y="259"/>
      <point x="208" y="-41"/>
    </contour>
  </outline>
</glyph>
<glyph name="parenright" format="1">
  <advance width="630"/>
  <unicode hex="0029"/>
  <outline>
    <contour>
      <point x="59" y="-273" type="curve"/>
      <point x="253" y="-273" type="line"/>
      <point x="421" y="-42"/>
      <point x="532" y="257"/>
      <point x="532" y="598" type="curve" smooth="yes"/>
      <point x="532" y="941"/>
      <point x="424" y="1242"/>
      <point x="254" y="1487" type="curve"/>
      <point x="58" y="1487" type="line"/>
      <point x="198" y="1276"/>
      <point x="322" y="938"/>
      <point x="322" y="600" type="curve" smooth="yes"/>
      <point x="322" y="272"/>
      <point x="193" y="-72"/>
    </contour>
  </outline>
</glyph>
<glyph name="asterisk" format="1">
  <advance width="1104"/>
  <unicode hex="002A"/>
  <outline>
    <contour>
      <point x="367" y="572" type="line"/>
      <point x="548" y="914" type="line"/>
      <point x="739" y="572" type="line"/>
      <point x="770" y="592"/>
      <point x="886" y="656"/>
      <point x="917" y="676" type="curve"/>
      <point x="866" y="745"/>
      <point x="694" y="961"/>
      <point x="669" y="995" type="curve"/>
      <point x="1028" y="1075" type="line"/>
      <point x="972" y="1265" type="line"/>
      <point x="619" y="1123" type="line"/>
      <point x="654" y="1514" type="line"/>
      <point x="447" y="1514" type="line"/>
      <point x="483" y="1123" type="line"/>
      <point x="132" y="1265" type="line"/>
      <point x="75" y="1075" type="line"/>
      <point x="431" y="995" type="line"/>
      <point x="186" y="676" type="line"/>
    </contour>
  </outline>
</glyph>
<glyph name="plus" format="1">
  <advance width="1154"/>
  <unicode hex="002B"/>
  <outline>
    <contour>
      <point x="495" y="150" type="line"/>
      <point x="664" y="150" type="line"/>
      <point x="664" y="568" type="line"/>
      <point x="1063" y="568" type="line"/>
      <point x="1063" y="732" type="line"/>
      <point x="665" y="732" type="line"/>
      <point x="665" y="1147" type="line"/>
      <point x="496" y="1147" type="line"/>
      <point x="496" y="732" type="line"/>
      <point x="92" y="732" type="line"/>
      <point x="92" y="568" type="line"/>
      <point x="495" y="568" type="line"/>
    </contour>
  </outline>
</glyph>
<glyph name="comma" format="1">
  <advance width="507"/>
  <unicode hex="002C"/>
  <outline>
    <contour>
      <point x="86" y="-281" type="curve"/>
      <point x="228" y="-281" type="line"/>
      <point x="285" y="-125"/>
      <point x="341" y="45"/>
      <point x="379" y="187" type="curve"/>
      <point x="381" y="233" type="line"/>
      <point x="159" y="233" type="line"/>
      <point x="143" y="81"/>
      <point x="112" y="-121"/>
    </contour>
  </outline>
</glyph>
<glyph name="hyphen" format="1">
  <advance width="674"/>
  <unicode hex="002D"/>
  <outline>
    <contour>
      <point x="78" y="471" type="line"/>
      <point x="596" y="471" type="line"/>
      <point x="596" y="646" type="line"/>
      <point x="78" y="646" type="line"/>
    </contour>
  </outline>
</glyph>
<glyph name="period" format="1">
  <advance width="483"/>
  <unicode hex="002E"/>
  <outline>
    <contour>
      <point x="253" y="-15" type="curve" smooth="yes"/>
      <point x="340" y="-15"/>
      <point x="396" y="53"/>
      <point x="396" y="127" type="curve" smooth="yes"/>
      <point x="396" y="202"/>
      <point x="340" y="271"/>
      <point x="253" y="271" type="curve" smooth="yes"/>
      <point x="164" y="271"/>
      <point x="109" y="202"/>
      <point x="109" y="127" type="curve" smooth="yes"/>
      <point x="109" y="53"/>
      <point x="165" y="-15"/>
    </contour>
  </outline>
</glyph>
<glyph name="slash" format="1">
  <advance width="950"/>
  <unicode hex="002F"/>
  <outline>
    <contour>
      <point x="51" y="-203" type="line"/>
      <point x="230" y="-203" type="line"/>
      <point x="882" y="1478" type="line"/>
      <point x="700" y="1478" type="line"/>
    </contour>
  </outline>
</glyph>
<glyph name="zero" format="1">
  <advance width="1269"/>
  <unicode hex="0030"/>
  <outline>
    <contour>
      <point x="636" y="158" type="curve" smooth="yes"/>
      <point x="420" y="158"/>
      <point x="336" y="429"/>
      <point x="336" y="750" type="curve"/>
      <point x="337" y="1064"/>
      <point x="421" y="1327"/>
      <point x="636" y="1327" type="curve" smooth="yes"/>
      <point x="851" y="1327"/>
      <point x="935" y="1064"/>
      <point x="935" y="748" type="curve" smooth="yes"/>
      <point x="935" y="428"/>
      <point x="851" y="158"/>
    </contour>
    <contour>
      <point x="636" y="-22" type="curve" smooth="yes"/>
      <point x="1023" y="-22"/>
      <point x="1166" y="324"/>
      <point x="1166" y="741" type="curve" smooth="yes"/>
      <point x="1166" y="1171"/>
      <point x="1013" y="1507"/>
      <point x="636" y="1507" type="curve" smooth="yes"/>
      <point x="259" y="1507"/>
      <point x="103" y="1173"/>
      <point x="103" y="741" type="curve" smooth="yes"/>
      <point x="103" y="324"/>
      <point x="249" y="-22"/>
    </contour>
  </outline>
</glyph>
<glyph name="one" format="1">
  <advance width="657"/>
  <unicode hex="0031"/>
  <outline>
    <contour>
      <point x="294" y="0" type="line"/>
      <point x="509" y="0" type="line"/>
      <point x="509" y="1477" type="line"/>
      <point x="319" y="1477" type="line"/>
      <point x="270" y="1443"/>
      <point x="94" y="1361"/>
      <point x="40" y="1337" type="curve"/>
      <point x="40" y="1153" type="line"/>
      <point x="85" y="1167"/>
      <point x="245" y="1232"/>
      <point x="294" y="1264" type="curve"/>
    </contour>
  </outline>
</glyph>
<glyph name="two" format="1">
  <advance width="1084"/>
  <unicode hex="0032"/>
  <outline>
    <contour>
      <point x="91" y="0" type="line"/>
      <point x="964" y="0" type="line"/>
      <point x="978" y="176" type="line"/>
      <point x="338" y="176" type="line"/>
      <point x="709" y="568" type="line" smooth="yes"/>
      <point x="855" y="723"/>
      <point x="981" y="1002"/>
      <point x="981" y="1089" type="curve" smooth="yes"/>
      <point x="981" y="1348"/>
      <point x="790" y="1507"/>
      <point x="515" y="1507" type="curve" smooth="yes"/>
      <point x="326" y="1507"/>
      <point x="201" y="1456"/>
      <point x="109" y="1372" type="curve"/>
      <point x="176" y="1198" type="line"/>
      <point x="254" y="1273"/>
      <point x="374" y="1324"/>
      <point x="501" y="1324" type="curve" smooth="yes"/>
      <point x="652" y="1324"/>
      <point x="749" y="1228"/>
      <point x="749" y="1082" type="curve" smooth="yes"/>
      <point x="749" y="1032"/>
      <point x="675" y="846"/>
      <point x="570" y="731" type="curve" smooth="yes"/>
      <point x="77" y="190" type="line"/>
    </contour>
  </outline>
</glyph>
<glyph name="three" format="1">
  <advance width="1090"/>
  <unicode hex="0033"/>
  <outline>
    <contour>
      <point x="490" y="-22" type="curve" smooth="yes"/>
      <point x="781" y="-22"/>
      <point x="1004" y="133"/>
      <point x="1004" y="404" type="curve" smooth="yes"/>
      <point x="1004" y="599"/>
      <point x="897" y="745"/>
      <point x="714" y="783" type="curve"/>
      <point x="873" y="834"/>
      <point x="965" y="951"/>
      <point x="965" y="1126" type="curve" smooth="yes"/>
      <point x="965" y="1361"/>
      <point x="763" y="1507"/>
      <point x="513" y="1507" type="curve" smooth="yes"/>
      <point x="316" y="1507"/>
      <point x="185" y="1464"/>
      <point x="83" y="1395" type="curve"/>
      <point x="147" y="1226" type="line"/>
      <point x="230" y="1285"/>
      <point x="348" y="1327"/>
      <point x="482" y="1327" type="curve" smooth="yes"/>
      <point x="652" y="1327"/>
      <point x="742" y="1239"/>
      <point x="742" y="1104" type="curve" smooth="yes"/>
      <point x="742" y="908"/>
      <point x="567" y="871"/>
      <point x="355" y="869" type="curve" smooth="yes"/>
      <point x="345" y="868"/>
      <point x="313" y="868"/>
      <point x="302" y="868" type="curve"/>
      <point x="302" y="692" type="line"/>
      <point x="315" y="692"/>
      <point x="349" y="692"/>
      <point x="361" y="692" type="curve"/>
      <point x="607" y="686"/>
      <point x="782" y="642"/>
      <point x="782" y="412" type="curve" smooth="yes"/>
      <point x="782" y="254"/>
      <point x="666" y="158"/>
      <point x="491" y="158" type="curve" smooth="yes"/>
      <point x="348" y="158"/>
      <point x="222" y="207"/>
      <point x="148" y="266" type="curve"/>
      <point x="84" y="98" type="line"/>
      <point x="156" y="33"/>
      <point x="307" y="-22"/>
    </contour>
  </outline>
</glyph>
<glyph name="four" format="1">
  <advance width="1232"/>
  <unicode hex="0034"/>
  <outline>
    <contour>
      <point x="768" y="0" type="line"/>
      <point x="986" y="0" type="line"/>
      <point x="986" y="347" type="line"/>
      <point x="1154" y="347" type="line"/>
      <point x="1168" y="519" type="line"/>
      <point x="986" y="519" type="line"/>
      <point x="986" y="1477" type="line"/>
      <point x="724" y="1477" type="line"/>
      <point x="100" y="513" type="line"/>
      <point x="100" y="347" type="line"/>
      <point x="768" y="347" type="line"/>
    </contour>
    <contour>
      <point x="318" y="519" type="line"/>
      <point x="768" y="1235" type="line"/>
      <point x="768" y="519" type="line"/>
    </contour>
  </outline>
</glyph>
<glyph name="five" format="1">
  <advance width="1157"/>
  <unicode hex="0035"/>
  <outline>
    <contour>
      <point x="533" y="-22" type="curve" smooth="yes"/>
      <point x="867" y="-22"/>
      <point x="1060" y="178"/>
      <point x="1060" y="472" type="curve" smooth="yes"/>
      <point x="1060" y="738"/>
      <point x="894" y="935"/>
      <point x="608" y="935" type="curve" smooth="yes"/>
      <point x="536" y="935"/>
      <point x="465" y="917"/>
      <point x="394" y="876" type="curve"/>
      <point x="397" y="965"/>
      <point x="405" y="1202"/>
      <point x="408" y="1291" type="curve"/>
      <point x="988" y="1291" type="line"/>
      <point x="1002" y="1477" type="line"/>
      <point x="221" y="1477" type="line"/>
      <point x="182" y="678" type="line"/>
      <point x="339" y="651" type="line"/>
      <point x="405" y="723"/>
      <point x="484" y="755"/>
      <point x="569" y="755" type="curve" smooth="yes"/>
      <point x="739" y="755"/>
      <point x="840" y="639"/>
      <point x="840" y="473" type="curve" smooth="yes"/>
      <point x="840" y="295"/>
      <point x="730" y="165"/>
      <point x="522" y="165" type="curve" smooth="yes"/>
      <point x="355" y="165"/>
      <point x="225" y="250"/>
      <point x="185" y="281" type="curve"/>
      <point x="113" y="117" type="line"/>
      <point x="168" y="67"/>
      <point x="335" y="-22"/>
    </contour>
  </outline>
</glyph>
<glyph name="six" format="1">
  <advance width="1202"/>
  <unicode hex="0036"/>
  <outline>
    <contour>
      <point x="611" y="-22" type="curve" smooth="yes"/>
      <point x="920" y="-22"/>
      <point x="1133" y="175"/>
      <point x="1133" y="453" type="curve" smooth="yes"/>
      <point x="1133" y="728"/>
      <point x="919" y="920"/>
      <point x="650" y="920" type="curve" smooth="yes"/>
      <point x="586" y="920"/>
      <point x="531" y="902"/>
      <point x="478" y="879" type="curve"/>
      <point x="966" y="1472" type="line"/>
      <point x="685" y="1472" type="line"/>
      <point x="685" y="1472"/>
      <point x="374" y="1081"/>
      <point x="322" y="1014" type="curve"/>
      <point x="167" y="815"/>
      <point x="84" y="677"/>
      <point x="84" y="467" type="curve" smooth="yes"/>
      <point x="84" y="186"/>
      <point x="289" y="-22"/>
    </contour>
    <contour>
      <point x="602" y="154" type="curve" smooth="yes"/>
      <point x="411" y="154"/>
      <point x="313" y="285"/>
      <point x="313" y="452" type="curve" smooth="yes"/>
      <point x="313" y="620"/>
      <point x="395" y="750"/>
      <point x="603" y="750" type="curve" smooth="yes"/>
      <point x="799" y="750"/>
      <point x="901" y="625"/>
      <point x="901" y="449" type="curve" smooth="yes"/>
      <point x="901" y="283"/>
      <point x="794" y="154"/>
    </contour>
  </outline>
</glyph>
<glyph name="seven" format="1">
  <advance width="1044"/>
  <unicode hex="0037"/>
  <outline>
    <contour>
      <point x="244" y="0" type="line"/>
      <point x="470" y="0" type="line"/>
      <point x="992" y="1331" type="line"/>
      <point x="992" y="1477" type="line"/>
      <point x="89" y="1477" type="line"/>
      <point x="82" y="1299" type="line"/>
      <point x="741" y="1299" type="line"/>
    </contour>
  </outline>
</glyph>
<glyph name="eight" format="1">
  <advance width="1166"/>
  <unicode hex="0038"/>
  <outline>
    <contour>
      <point x="586" y="-22" type="curve" smooth="yes"/>
      <point x="859" y="-22"/>
      <point x="1085" y="119"/>
      <point x="1085" y="387" type="curve" smooth="yes"/>
      <point x="1085" y="576"/>
      <point x="983" y="710"/>
      <point x="820" y="777" type="curve"/>
      <point x="961" y="841"/>
      <point x="1056" y="952"/>
      <point x="1056" y="1129" type="curve" smooth="yes"/>
      <point x="1056" y="1375"/>
      <point x="853" y="1507"/>
      <point x="586" y="1507" type="curve" smooth="yes"/>
      <point x="319" y="1507"/>
      <point x="113" y="1376"/>
      <point x="113" y="1129" type="curve" smooth="yes"/>
      <point x="113" y="951"/>
      <point x="213" y="840"/>
      <point x="367" y="777" type="curve"/>
      <point x="194" y="711"/>
      <point x="83" y="578"/>
      <point x="83" y="387" type="curve" smooth="yes"/>
      <point x="83" y="120"/>
      <point x="312" y="-22"/>
    </contour>
    <contour>
      <point x="586" y="145" type="curve" smooth="yes"/>
      <point x="413" y="145"/>
      <point x="294" y="238"/>
      <point x="294" y="395" type="curve" smooth="yes"/>
      <point x="294" y="555"/>
      <point x="419" y="651"/>
      <point x="586" y="691" type="curve"/>
      <point x="750" y="651"/>
      <point x="874" y="556"/>
      <point x="874" y="395" type="curve" smooth="yes"/>
      <point x="874" y="238"/>
      <point x="759" y="145"/>
    </contour>
    <contour>
      <point x="586" y="844" type="curve"/>
      <point x="417" y="882"/>
      <point x="316" y="977"/>
      <point x="316" y="1131" type="curve" smooth="yes"/>
      <point x="316" y="1264"/>
      <point x="440" y="1341"/>
      <point x="586" y="1341" type="curve" smooth="yes"/>
      <point x="732" y="1341"/>
      <point x="852" y="1264"/>
      <point x="852" y="1131" type="curve" smooth="yes"/>
      <point x="852" y="978"/>
      <point x="757" y="883"/>
    </contour>
  </outline>
</glyph>
<glyph name="nine" format="1">
  <advance width="1191"/>
  <unicode hex="0039"/>
  <outline>
    <contour>
      <point x="243" y="0" type="line"/>
      <point x="517" y="0" type="line"/>
      <point x="517" y="0"/>
      <point x="865" y="448"/>
      <point x="925" y="527" type="curve"/>
      <point x="1052" y="699"/>
      <point x="1128" y="833"/>
      <point x="1128" y="1025" type="curve" smooth="yes"/>
      <point x="1128" y="1307"/>
      <point x="926" y="1507"/>
      <point x="604" y="1507" type="curve" smooth="yes"/>
      <point x="295" y="1507"/>
      <point x="78" y="1310"/>
      <point x="78" y="1032" type="curve" smooth="yes"/>
      <point x="78" y="757"/>
      <point x="293" y="576"/>
      <point x="562" y="576" type="curve" smooth="yes"/>
      <point x="625" y="576"/>
      <point x="681" y="593"/>
      <point x="733" y="617" type="curve"/>
    </contour>
    <contour>
      <point x="608" y="743" type="curve" smooth="yes"/>
      <point x="413" y="743"/>
      <point x="311" y="861"/>
      <point x="311" y="1037" type="curve" smooth="yes"/>
      <point x="311" y="1203"/>
      <point x="422" y="1331"/>
      <point x="614" y="1331" type="curve" smooth="yes"/>
      <point x="804" y="1331"/>
      <point x="898" y="1208"/>
      <point x="898" y="1042" type="curve" smooth="yes"/>
      <point x="898" y="874"/>
      <point x="817" y="743"/>
    </contour>
  </outline>
</glyph>
<glyph name="colon" format="1">
  <advance width="476"/>
  <unicode hex="003A"/>
  <outline>
    <contour>
      <point x="123" y="-15" type="line"/>
      <point x="358" y="-15" type="line"/>
      <point x="358" y="234" type="line"/>
      <point x="123" y="234" type="line"/>
    </contour>
    <contour>
      <point x="123" y="867" type="line"/>
      <point x="358" y="867" type="line"/>
      <point x="358" y="1115" type="line"/>
      <point x="123" y="1115" type="line"/>
    </contour>
  </outline>
</glyph>
<glyph name="semicolon" format="1">
  <advance width="482"/>
  <unicode hex="003B"/>
  <outline>
    <contour>
      <point x="122" y="-316" type="line"/>
      <point x="258" y="-316" type="line"/>
      <point x="382" y="222" type="line"/>
      <point x="178" y="222" type="line"/>
    </contour>
    <contour>
      <point x="149" y="866" type="line"/>
      <point x="385" y="866" type="line"/>
      <point x="385" y="1114" type="line"/>
      <point x="149" y="1114" type="line"/>
    </contour>
  </outline>
</glyph>
<glyph name="less" format="1">
  <advance width="1186"/>
  <unicode hex="003C"/>
  <outline>
    <contour>
      <point x="1071" y="171" type="line"/>
      <point x="1071" y="353" type="line"/>
      <point x="333" y="686" type="line"/>
      <point x="1073" y="1041" type="line"/>
      <point x="1073" y="1224" type="line"/>
      <point x="109" y="736" type="line"/>
      <point x="109" y="625" type="line"/>
    </contour>
  </outline>
</glyph>
<glyph name="equal" format="1">
  <advance width="1215"/>
  <unicode hex="003D"/>
  <outline>
    <contour>
      <point x="112" y="776" type="line"/>
      <point x="1104" y="776" type="line"/>
      <point x="1104" y="945" type="line"/>
      <point x="112" y="945" type="line"/>
    </contour>
    <contour>
      <point x="112" y="367" type="line"/>
      <point x="1104" y="367" type="line"/>
      <point x="1104" y="534" type="line"/>
      <point x="112" y="534" type="line"/>
    </contour>
  </outline>
</glyph>
<glyph name="greater" format="1">
  <advance width="1186"/>
  <unicode hex="003E"/>
  <outline>
    <contour>
      <point x="117" y="175" type="line"/>
      <point x="1081" y="625" type="line"/>
      <point x="1081" y="735" type="line"/>
      <point x="118" y="1227" type="line"/>
      <point x="118" y="1046" type="line"/>
      <point x="855" y="686" type="line"/>
      <point x="117" y="358" type="line"/>
    </contour>
  </outline>
</glyph>
<glyph name="question" format="1">
  <advance width="876"/>
  <unicode hex="003F"/>
  <outline>
    <contour>
      <point x="320" y="441" type="curve"/>
      <point x="419" y="441" type="line"/>
      <point x="572" y="762"/>
      <point x="790" y="917"/>
      <point x="790" y="1173" type="curve" smooth="yes"/>
      <point x="790" y="1394"/>
      <point x="612" y="1506"/>
      <point x="415" y="1506" type="curve" smooth="yes"/>
      <point x="277" y="1506"/>
      <point x="158" y="1474"/>
      <point x="62" y="1405" type="curve"/>
      <point x="120" y="1254" type="line"/>
      <point x="172" y="1287"/>
      <point x="260" y="1337"/>
      <point x="388" y="1337" type="curve" smooth="yes"/>
      <point x="520" y="1337"/>
      <point x="603" y="1273"/>
      <point x="604" y="1149" type="curve" smooth="yes"/>
      <point x="604" y="957"/>
      <point x="339" y="702"/>
    </contour>
    <contour>
      <point x="375" y="-15" type="curve" smooth="yes"/>
      <point x="463" y="-15"/>
      <point x="518" y="53"/>
      <point x="518" y="127" type="curve" smooth="yes"/>
      <point x="518" y="202"/>
      <point x="463" y="271"/>
      <point x="375" y="271" type="curve" smooth="yes"/>
      <point x="287" y="271"/>
      <point x="231" y="202"/>
      <point x="231" y="127" type="curve" smooth="yes"/>
      <point x="231" y="53"/>
      <point x="287" y="-15"/>
    </contour>
  </outline>
</glyph>
<glyph name="at" format="1">
  <advance width="1756"/>
  <unicode hex="0040"/>
  <outline>
    <contour>
      <point x="888" y="-169" type="curve" smooth="yes"/>
      <point x="1102" y="-169"/>
      <point x="1275" y="-109"/>
      <point x="1407" y="-9" type="curve"/>
      <point x="1362" y="100" type="line"/>
      <point x="1220" y="6"/>
      <point x="1055" y="-34"/>
      <point x="888" y="-34" type="curve" smooth="yes"/>
      <point x="517" y="-34"/>
      <point x="239" y="198"/>
      <point x="239" y="613" type="curve" smooth="yes"/>
      <point x="239" y="953"/>
      <point x="476" y="1310"/>
      <point x="916" y="1310" type="curve" smooth="yes"/>
      <point x="1268" y="1310"/>
      <point x="1523" y="1094"/>
      <point x="1523" y="747" type="curve" smooth="yes"/>
      <point x="1523" y="534"/>
      <point x="1396" y="339"/>
      <point x="1259" y="339" type="curve" smooth="yes"/>
      <point x="1191" y="339"/>
      <point x="1159" y="373"/>
      <point x="1170" y="497" type="curve"/>
      <point x="1180" y="633"/>
      <point x="1221" y="821"/>
      <point x="1251" y="1005" type="curve"/>
      <point x="1164" y="1036"/>
      <point x="1047" y="1065"/>
      <point x="941" y="1065" type="curve" smooth="yes"/>
      <point x="668" y="1065"/>
      <point x="492" y="837"/>
      <point x="492" y="564" type="curve" smooth="yes"/>
      <point x="492" y="360"/>
      <point x="602" y="219"/>
      <point x="785" y="219" type="curve" smooth="yes"/>
      <point x="905" y="219"/>
      <point x="1001" y="312"/>
      <point x="1048" y="402" type="curve"/>
      <point x="1057" y="268"/>
      <point x="1135" y="207"/>
      <point x="1241" y="207" type="curve" smooth="yes"/>
      <point x="1456" y="207"/>
      <point x="1667" y="420"/>
      <point x="1667" y="742" type="curve" smooth="yes"/>
      <point x="1667" y="1166"/>
      <point x="1345" y="1445"/>
      <point x="921" y="1445" type="curve" smooth="yes"/>
      <point x="438" y="1445"/>
      <point x="89" y="1089"/>
      <point x="89" y="617" type="curve" smooth="yes"/>
      <point x="89" y="134"/>
      <point x="414" y="-169"/>
    </contour>
    <contour>
      <point x="795" y="353" type="curve" smooth="yes"/>
      <point x="697" y="353"/>
      <point x="656" y="443"/>
      <point x="656" y="557" type="curve" smooth="yes"/>
      <point x="656" y="753"/>
      <point x="766" y="943"/>
      <point x="949" y="943" type="curve" smooth="yes"/>
      <point x="993" y="943"/>
      <point x="1042" y="938"/>
      <point x="1078" y="928" type="curve"/>
      <point x="1070" y="860"/>
      <point x="1060" y="788"/>
      <point x="1047" y="716" type="curve" smooth="yes"/>
      <point x="1014" y="521"/>
      <point x="943" y="353"/>
    </contour>
  </outline>
</glyph>
<glyph name="A" format="1">
  <advance width="1331"/>
  <unicode hex="0041"/>
  <outline>
    <contour>
      <point x="0" y="0" type="line"/>
      <point x="231" y="0" type="line"/>
      <point x="392" y="441" type="line"/>
      <point x="943" y="441" type="line"/>
      <point x="1102" y="0" type="line"/>
      <point x="1331" y="0" type="line"/>
      <point x="790" y="1474" type="line"/>
      <point x="553" y="1474" type="line"/>
    </contour>
    <contour>
      <point x="456" y="615" type="line"/>
      <point x="456" y="615"/>
      <point x="660" y="1216"/>
      <point x="672" y="1257" type="curve"/>
      <point x="686" y="1210"/>
      <point x="881" y="615"/>
      <point x="881" y="615" type="curve"/>
    </contour>
  </outline>
</glyph>
<glyph name="B" format="1">
  <advance width="1309"/>
  <unicode hex="0042"/>
  <outline>
    <contour>
      <point x="166" y="0" type="line"/>
      <point x="695" y="0" type="line" smooth="yes"/>
      <point x="1042" y="0"/>
      <point x="1233" y="152"/>
      <point x="1233" y="423" type="curve" smooth="yes"/>
      <point x="1233" y="601"/>
      <point x="1143" y="737"/>
      <point x="951" y="781" type="curve"/>
      <point x="1156" y="851"/>
      <point x="1179" y="1023"/>
      <point x="1179" y="1106" type="curve" smooth="yes"/>
      <point x="1179" y="1370"/>
      <point x="985" y="1472"/>
      <point x="610" y="1472" type="curve" smooth="yes"/>
      <point x="166" y="1472" type="line"/>
    </contour>
    <contour>
      <point x="389" y="174" type="line"/>
      <point x="389" y="686" type="line"/>
      <point x="636" y="686" type="line" smooth="yes"/>
      <point x="879" y="686"/>
      <point x="1003" y="624"/>
      <point x="1003" y="435" type="curve" smooth="yes"/>
      <point x="1003" y="253"/>
      <point x="886" y="174"/>
      <point x="660" y="174" type="curve" smooth="yes"/>
    </contour>
    <contour>
      <point x="389" y="857" type="line"/>
      <point x="389" y="1294" type="line"/>
      <point x="597" y="1294" type="line" smooth="yes"/>
      <point x="828" y="1294"/>
      <point x="953" y="1253"/>
      <point x="953" y="1075" type="curve" smooth="yes"/>
      <point x="953" y="907"/>
      <point x="845" y="857"/>
      <point x="662" y="857" type="curve" smooth="yes"/>
    </contour>
  </outline>
</glyph>
<glyph name="C" format="1">
  <advance width="1296"/>
  <unicode hex="0043"/>
  <outline>
    <contour>
      <point x="802" y="-21" type="curve" smooth="yes"/>
      <point x="963" y="-21"/>
      <point x="1100" y="6"/>
      <point x="1214" y="75" type="curve"/>
      <point x="1181" y="256" type="line"/>
      <point x="1068" y="199"/>
      <point x="945" y="165"/>
      <point x="822" y="165" type="curve" smooth="yes"/>
      <point x="501" y="165"/>
      <point x="339" y="391"/>
      <point x="339" y="735" type="curve" smooth="yes"/>
      <point x="339" y="1071"/>
      <point x="514" y="1308"/>
      <point x="820" y="1308" type="curve" smooth="yes"/>
      <point x="956" y="1308"/>
      <point x="1069" y="1266"/>
      <point x="1167" y="1207" type="curve"/>
      <point x="1243" y="1380" type="line"/>
      <point x="1124" y="1459"/>
      <point x="980" y="1495"/>
      <point x="816" y="1495" type="curve" smooth="yes"/>
      <point x="383" y="1495"/>
      <point x="106" y="1191"/>
      <point x="106" y="742" type="curve" smooth="yes"/>
      <point x="106" y="274"/>
      <point x="363" y="-21"/>
    </contour>
  </outline>
</glyph>
<glyph name="D" format="1">
  <advance width="1508"/>
  <unicode hex="0044"/>
  <outline>
    <contour>
      <point x="389" y="185" type="line"/>
      <point x="389" y="1287" type="line"/>
      <point x="587" y="1287" type="line" smooth="yes"/>
      <point x="961" y="1287"/>
      <point x="1170" y="1130"/>
      <point x="1170" y="734" type="curve" smooth="yes"/>
      <point x="1170" y="372"/>
      <point x="976" y="185"/>
      <point x="616" y="185" type="curve" smooth="yes"/>
    </contour>
    <contour>
      <point x="166" y="0" type="line"/>
      <point x="610" y="0" type="line" smooth="yes"/>
      <point x="1101" y="0"/>
      <point x="1403" y="255"/>
      <point x="1403" y="739" type="curve" smooth="yes"/>
      <point x="1403" y="1245"/>
      <point x="1080" y="1472"/>
      <point x="584" y="1472" type="curve" smooth="yes"/>
      <point x="166" y="1472" type="line"/>
    </contour>
  </outline>
</glyph>
<glyph name="E" format="1">
  <advance width="1148"/>
  <unicode hex="0045"/>
  <outline>
    <contour>
      <point x="166" y="0" type="line"/>
      <point x="1042" y="0" type="line"/>
      <point x="1047" y="185" type="line"/>
      <point x="389" y="185" type="line"/>
      <point x="389" y="674" type="line"/>
      <point x="993" y="674" type="line"/>
      <point x="993" y="857" type="line"/>
      <point x="389" y="857" type="line"/>
      <point x="389" y="1287" type="line"/>
      <point x="1025" y="1287" type="line"/>
      <point x="1034" y="1472" type="line"/>
      <point x="166" y="1472" type="line"/>
    </contour>
  </outline>
</glyph>
<glyph name="F" format="1">
  <advance width="1067"/>
  <unicode hex="0046"/>
  <outline>
    <contour>
      <point x="166" y="0" type="line"/>
      <point x="388" y="0" type="line"/>
      <point x="388" y="640" type="line"/>
      <point x="972" y="640" type="line"/>
      <point x="972" y="821" type="line"/>
      <point x="388" y="821" type="line"/>
      <point x="388" y="1287" type="line"/>
      <point x="1002" y="1287" type="line"/>
      <point x="1010" y="1472" type="line"/>
      <point x="166" y="1472" type="line"/>
    </contour>
  </outline>
</glyph>
<glyph name="G" format="1">
  <advance width="1464"/>
  <unicode hex="0047"/>
  <outline>
    <contour>
      <point x="816" y="-21" type="curve" smooth="yes"/>
      <point x="1016" y="-21"/>
      <point x="1163" y="14"/>
      <point x="1332" y="89" type="curve"/>
      <point x="1332" y="781" type="line"/>
      <point x="799" y="781" type="line"/>
      <point x="795" y="598" type="line"/>
      <point x="1123" y="598" type="line"/>
      <point x="1123" y="218" type="line"/>
      <point x="1046" y="189"/>
      <point x="941" y="165"/>
      <point x="838" y="165" type="curve" smooth="yes"/>
      <point x="502" y="165"/>
      <point x="339" y="393"/>
      <point x="339" y="735" type="curve" smooth="yes"/>
      <point x="339" y="1074"/>
      <point x="522" y="1308"/>
      <point x="853" y="1308" type="curve" smooth="yes"/>
      <point x="988" y="1308"/>
      <point x="1121" y="1265"/>
      <point x="1226" y="1206" type="curve"/>
      <point x="1303" y="1379" type="line"/>
      <point x="1175" y="1456"/>
      <point x="1024" y="1495"/>
      <point x="850" y="1495" type="curve" smooth="yes"/>
      <point x="378" y="1495"/>
      <point x="107" y="1182"/>
      <point x="107" y="736" type="curve" smooth="yes"/>
      <point x="107" y="283"/>
      <point x="362" y="-21"/>
    </contour>
  </outline>
</glyph>
<glyph name="H" format="1">
  <advance width="1504"/>
  <unicode hex="0048"/>
  <outline>
    <contour>
      <point x="166" y="0" type="line"/>
      <point x="389" y="0" type="line"/>
      <point x="389" y="672" type="line"/>
      <point x="1115" y="672" type="line"/>
      <point x="1115" y="0" type="line"/>
      <point x="1338" y="0" type="line"/>
      <point x="1338" y="1472" type="line"/>
      <point x="1115" y="1472" type="line"/>
      <point x="1115" y="855" type="line"/>
      <point x="389" y="855" type="line"/>
      <point x="389" y="1472" type="line"/>
      <point x="166" y="1472" type="line"/>
    </contour>
  </outline>
</glyph>
<glyph name="I" format="1">
  <advance width="571"/>
  <unicode hex="0049"/>
  <outline>
    <contour>
      <point x="173" y="0" type="line"/>
      <point x="396" y="0" type="line"/>
      <point x="396" y="1472" type="line"/>
      <point x="173" y="1472" type="line"/>
    </contour>
  </outline>
</glyph>
<glyph name="J" format="1">
  <advance width="592"/>
  <unicode hex="004A"/>
  <outline>
    <contour>
      <point x="-47" y="-268" type="line"/>
      <point x="-34" y="-271"/>
      <point x="3" y="-272"/>
      <point x="19" y="-272" type="curve" smooth="yes"/>
      <point x="370" y="-272"/>
      <point x="443" y="-124"/>
      <point x="443" y="193" type="curve" smooth="yes"/>
      <point x="443" y="1482" type="line"/>
      <point x="218" y="1482" type="line"/>
      <point x="218" y="154" type="line" smooth="yes"/>
      <point x="218" y="-2"/>
      <point x="196" y="-94"/>
      <point x="27" y="-94" type="curve" smooth="yes"/>
      <point x="13" y="-94"/>
      <point x="-47" y="-93"/>
      <point x="-63" y="-90" type="curve"/>
    </contour>
  </outline>
</glyph>
<glyph name="K" format="1">
  <advance width="1293"/>
  <unicode hex="004B"/>
  <outline>
    <contour>
      <point x="165" y="0" type="line"/>
      <point x="389" y="0" type="line"/>
      <point x="389" y="575" type="line"/>
      <point x="512" y="681" type="line"/>
      <point x="1033" y="0" type="line"/>
      <point x="1299" y="0" type="line"/>
      <point x="682" y="810" type="line"/>
      <point x="1259" y="1472" type="line"/>
      <point x="989" y="1472" type="line"/>
      <point x="923" y="1391"/>
      <point x="452" y="863"/>
      <point x="389" y="779" type="curve"/>
      <point x="389" y="1472" type="line"/>
      <point x="165" y="1472" type="line"/>
    </contour>
  </outline>
</glyph>
<glyph name="L" format="1">
  <advance width="1047"/>
  <unicode hex="004C"/>
  <outline>
    <contour>
      <point x="166" y="0" type="line"/>
      <point x="1014" y="0" type="line"/>
      <point x="1021" y="186" type="line"/>
      <point x="389" y="186" type="line"/>
      <point x="389" y="1472" type="line"/>
      <point x="166" y="1472" type="line"/>
    </contour>
  </outline>
</glyph>
<glyph name="M" format="1">
  <advance width="1829"/>
  <unicode hex="004D"/>
  <outline>
    <contour>
      <point x="166" y="0" type="line"/>
      <point x="370" y="0" type="line"/>
      <point x="370" y="802" type="line"/>
      <point x="362" y="1195" type="line"/>
      <point x="400" y="1089" type="line"/>
      <point x="809" y="96" type="line"/>
      <point x="1010" y="96" type="line"/>
      <point x="1423" y="1085" type="line"/>
      <point x="1460" y="1191" type="line"/>
      <point x="1453" y="805" type="line"/>
      <point x="1453" y="0" type="line"/>
      <point x="1663" y="0" type="line"/>
      <point x="1663" y="1472" type="line"/>
      <point x="1395" y="1472" type="line"/>
      <point x="917" y="355" type="line"/>
      <point x="439" y="1472" type="line"/>
      <point x="166" y="1472" type="line"/>
    </contour>
  </outline>
</glyph>
<glyph name="N" format="1">
  <advance width="1535"/>
  <unicode hex="004E"/>
  <outline>
    <contour>
      <point x="166" y="0" type="line"/>
      <point x="371" y="0" type="line"/>
      <point x="371" y="797" type="line"/>
      <point x="371" y="870"/>
      <point x="365" y="1089"/>
      <point x="362" y="1170" type="curve"/>
      <point x="412" y="1096" type="line"/>
      <point x="1125" y="0" type="line"/>
      <point x="1370" y="0" type="line"/>
      <point x="1370" y="1472" type="line"/>
      <point x="1165" y="1472" type="line"/>
      <point x="1165" y="670" type="line"/>
      <point x="1165" y="640"/>
      <point x="1172" y="308"/>
      <point x="1172" y="308" type="curve"/>
      <point x="1122" y="378" type="line"/>
      <point x="407" y="1472" type="line"/>
      <point x="166" y="1472" type="line"/>
    </contour>
  </outline>
</glyph>
<glyph name="O" format="1">
  <advance width="1626"/>
  <unicode hex="004F"/>
  <outline>
    <contour>
      <point x="814" y="165" type="curve" smooth="yes"/>
      <point x="495" y="165"/>
      <point x="340" y="385"/>
      <point x="340" y="734" type="curve" smooth="yes"/>
      <point x="340" y="1092"/>
      <point x="500" y="1309"/>
      <point x="815" y="1309" type="curve" smooth="yes"/>
      <point x="1129" y="1309"/>
      <point x="1286" y="1092"/>
      <point x="1286" y="734" type="curve" smooth="yes"/>
      <point x="1286" y="385"/>
      <point x="1133" y="165"/>
    </contour>
    <contour>
      <point x="814" y="-21" type="curve" smooth="yes"/>
      <point x="1258" y="-21"/>
      <point x="1520" y="275"/>
      <point x="1520" y="736" type="curve" smooth="yes"/>
      <point x="1520" y="1207"/>
      <point x="1254" y="1495"/>
      <point x="815" y="1495" type="curve" smooth="yes"/>
      <point x="372" y="1495"/>
      <point x="106" y="1210"/>
      <point x="106" y="737" type="curve" smooth="yes"/>
      <point x="106" y="271"/>
      <point x="366" y="-21"/>
    </contour>
  </outline>
</glyph>
<glyph name="P" format="1">
  <advance width="1193"/>
  <unicode hex="0050"/>
  <outline>
    <contour>
      <point x="148" y="0" type="line"/>
      <point x="372" y="0" type="line"/>
      <point x="372" y="600" type="line"/>
      <point x="448" y="593"/>
      <point x="542" y="590"/>
      <point x="604" y="590" type="curve" smooth="yes"/>
      <point x="1044" y="590"/>
      <point x="1166" y="789"/>
      <point x="1166" y="1061" type="curve" smooth="yes"/>
      <point x="1166" y="1359"/>
      <point x="944" y="1482"/>
      <point x="634" y="1482" type="curve" smooth="yes"/>
      <point x="148" y="1482" type="line"/>
    </contour>
    <contour>
      <point x="597" y="765" type="curve" smooth="yes"/>
      <point x="533" y="765"/>
      <point x="381" y="765"/>
      <point x="372" y="767" type="curve"/>
      <point x="372" y="1301" type="line"/>
      <point x="637" y="1301" type="line" smooth="yes"/>
      <point x="822" y="1301"/>
      <point x="944" y="1224"/>
      <point x="944" y="1054" type="curve" smooth="yes"/>
      <point x="944" y="916"/>
      <point x="910" y="765"/>
    </contour>
  </outline>
</glyph>
<glyph name="Q" format="1">
  <advance width="1626"/>
  <unicode hex="0051"/>
  <outline>
    <contour>
      <point x="1259" y="-474" type="curve"/>
      <point x="1406" y="-338" type="line"/>
      <point x="1271" y="-210"/>
      <point x="1148" y="-1"/>
      <point x="1124" y="37" type="curve"/>
      <point x="1378" y="145"/>
      <point x="1520" y="396"/>
      <point x="1520" y="736" type="curve" smooth="yes"/>
      <point x="1520" y="1207"/>
      <point x="1254" y="1495"/>
      <point x="815" y="1495" type="curve" smooth="yes"/>
      <point x="372" y="1495"/>
      <point x="106" y="1210"/>
      <point x="106" y="737" type="curve" smooth="yes"/>
      <point x="106" y="271"/>
      <point x="366" y="-21"/>
      <point x="814" y="-21" type="curve" smooth="yes"/>
      <point x="850" y="-21"/>
      <point x="884" y="-19"/>
      <point x="918" y="-15" type="curve"/>
      <point x="1001" y="-178"/>
      <point x="1181" y="-412"/>
    </contour>
    <contour>
      <point x="814" y="165" type="curve" smooth="yes"/>
      <point x="495" y="165"/>
      <point x="340" y="385"/>
      <point x="340" y="734" type="curve" smooth="yes"/>
      <point x="340" y="1092"/>
      <point x="500" y="1309"/>
      <point x="815" y="1309" type="curve" smooth="yes"/>
      <point x="1129" y="1309"/>
      <point x="1286" y="1092"/>
      <point x="1286" y="734" type="curve" smooth="yes"/>
      <point x="1286" y="385"/>
      <point x="1133" y="165"/>
    </contour>
  </outline>
</glyph>
<glyph name="R" format="1">
  <advance width="1361"/>
  <unicode hex="0052"/>
  <outline>
    <contour>
      <point x="149" y="0" type="line"/>
      <point x="373" y="0" type="line"/>
      <point x="373" y="660" type="line"/>
      <point x="373" y="660"/>
      <point x="606" y="655"/>
      <point x="618" y="655" type="curve" smooth="yes"/>
      <point x="655" y="655"/>
      <point x="738" y="657"/>
      <point x="760" y="657" type="curve"/>
      <point x="780" y="626"/>
      <point x="837" y="507"/>
      <point x="875" y="423" type="curve"/>
      <point x="1064" y="0" type="line"/>
      <point x="1308" y="0" type="line"/>
      <point x="1080" y="486" type="line"/>
      <point x="1041" y="568"/>
      <point x="982" y="670"/>
      <point x="958" y="700" type="curve"/>
      <point x="1134" y="757"/>
      <point x="1231" y="892"/>
      <point x="1231" y="1083" type="curve" smooth="yes"/>
      <point x="1231" y="1420"/>
      <point x="1008" y="1482"/>
      <point x="657" y="1482" type="curve" smooth="yes"/>
      <point x="149" y="1482" type="line"/>
    </contour>
    <contour>
      <point x="705" y="830" type="curve" smooth="yes"/>
      <point x="629" y="830"/>
      <point x="448" y="832"/>
      <point x="373" y="833" type="curve"/>
      <point x="373" y="1304" type="line"/>
      <point x="725" y="1304" type="line" smooth="yes"/>
      <point x="936" y="1304"/>
      <point x="1021" y="1229"/>
      <point x="1021" y="1079" type="curve" smooth="yes"/>
      <point x="1021" y="910"/>
      <point x="942" y="830"/>
    </contour>
  </outline>
</glyph>
<glyph name="S" format="1">
  <advance width="1204"/>
  <unicode hex="0053"/>
  <outline>
    <contour>
      <point x="596" y="-21" type="curve" smooth="yes"/>
      <point x="912" y="-21"/>
      <point x="1127" y="125"/>
      <point x="1127" y="422" type="curve" smooth="yes"/>
      <point x="1127" y="661"/>
      <point x="1001" y="773"/>
      <point x="756" y="842" type="curve" smooth="yes"/>
      <point x="719" y="855"/>
      <point x="519" y="907"/>
      <point x="497" y="915" type="curve" smooth="yes"/>
      <point x="385" y="945"/>
      <point x="323" y="1005"/>
      <point x="327" y="1106" type="curve" smooth="yes"/>
      <point x="331" y="1245"/>
      <point x="432" y="1308"/>
      <point x="619" y="1310" type="curve" smooth="yes"/>
      <point x="769" y="1313"/>
      <point x="919" y="1266"/>
      <point x="1012" y="1220" type="curve"/>
      <point x="1078" y="1396" type="line"/>
      <point x="961" y="1465"/>
      <point x="807" y="1504"/>
      <point x="627" y="1504" type="curve" smooth="yes"/>
      <point x="311" y="1504"/>
      <point x="95" y="1370"/>
      <point x="95" y="1090" type="curve" smooth="yes"/>
      <point x="95" y="888"/>
      <point x="219" y="773"/>
      <point x="411" y="716" type="curve" smooth="yes"/>
      <point x="437" y="706"/>
      <point x="660" y="647"/>
      <point x="684" y="639" type="curve" smooth="yes"/>
      <point x="841" y="597"/>
      <point x="902" y="522"/>
      <point x="893" y="406" type="curve" smooth="yes"/>
      <point x="886" y="246"/>
      <point x="791" y="172"/>
      <point x="607" y="172" type="curve" smooth="yes"/>
      <point x="439" y="172"/>
      <point x="259" y="217"/>
      <point x="146" y="277" type="curve"/>
      <point x="87" y="94" type="line"/>
      <point x="195" y="30"/>
      <point x="368" y="-21"/>
    </contour>
  </outline>
</glyph>
<glyph name="T" format="1">
  <advance width="1119"/>
  <unicode hex="0054"/>
  <outline>
    <contour>
      <point x="447" y="0" type="line"/>
      <point x="671" y="0" type="line"/>
      <point x="671" y="1286" type="line"/>
      <point x="1111" y="1286" type="line"/>
      <point x="1111" y="1472" type="line"/>
      <point x="7" y="1472" type="line"/>
      <point x="7" y="1286" type="line"/>
      <point x="447" y="1286" type="line"/>
    </contour>
  </outline>
</glyph>
<glyph name="U" format="1">
  <advance width="1453"/>
  <unicode hex="0055"/>
  <outline>
    <contour>
      <point x="722" y="-21" type="curve" smooth="yes"/>
      <point x="1113" y="-21"/>
      <point x="1300" y="189"/>
      <point x="1300" y="522" type="curve" smooth="yes"/>
      <point x="1300" y="1472" type="line"/>
      <point x="1077" y="1472" type="line"/>
      <point x="1077" y="535" type="line" smooth="yes"/>
      <point x="1077" y="280"/>
      <point x="968" y="164"/>
      <point x="727" y="164" type="curve" smooth="yes"/>
      <point x="480" y="164"/>
      <point x="374" y="280"/>
      <point x="374" y="534" type="curve" smooth="yes"/>
      <point x="374" y="1472" type="line"/>
      <point x="150" y="1472" type="line"/>
      <point x="150" y="524" type="line" smooth="yes"/>
      <point x="150" y="188"/>
      <point x="330" y="-21"/>
    </contour>
  </outline>
</glyph>
<glyph name="V" format="1">
  <advance width="1282"/>
  <unicode hex="0056"/>
  <outline>
    <contour>
      <point x="528" y="0" type="line"/>
      <point x="-5" y="1472" type="line"/>
      <point x="227" y="1472" type="line"/>
      <point x="547" y="551" type="line"/>
      <point x="572" y="478"/>
      <point x="623" y="312"/>
      <point x="643" y="241" type="curve"/>
      <point x="650" y="274"/>
      <point x="704" y="452"/>
      <point x="739" y="551" type="curve"/>
      <point x="804" y="737"/>
      <point x="994" y="1296"/>
      <point x="1056" y="1472" type="curve"/>
      <point x="1288" y="1472" type="line"/>
      <point x="756" y="0" type="line"/>
    </contour>
  </outline>
</glyph>
<glyph name="W" format="1">
  <advance width="2032"/>
  <unicode hex="0057"/>
  <outline>
    <contour>
      <point x="427" y="0" type="line"/>
      <point x="665" y="0" type="line"/>
      <point x="1019" y="1183" type="line"/>
      <point x="1353" y="0" type="line"/>
      <point x="1593" y="0" type="line"/>
      <point x="2035" y="1472" type="line"/>
      <point x="1809" y="1472" type="line"/>
      <point x="1468" y="252" type="line"/>
      <point x="1131" y="1455" type="line"/>
      <point x="907" y="1455" type="line"/>
      <point x="555" y="255" type="line"/>
      <point x="224" y="1472" type="line"/>
      <point x="-3" y="1472" type="line"/>
    </contour>
  </outline>
</glyph>
<glyph name="X" format="1">
  <advance width="1289"/>
  <unicode hex="0058"/>
  <outline>
    <contour>
      <point x="-1" y="0" type="line"/>
      <point x="242" y="0" type="line"/>
      <point x="642" y="615" type="line"/>
      <point x="1033" y="0" type="line"/>
      <point x="1290" y="0" type="line"/>
      <point x="786" y="760" type="line"/>
      <point x="1266" y="1472" type="line"/>
      <point x="1028" y="1472" type="line"/>
      <point x="652" y="903" type="line"/>
      <point x="288" y="1472" type="line"/>
      <point x="35" y="1472" type="line"/>
      <point x="509" y="761" type="line"/>
    </contour>
  </outline>
</glyph>
<glyph name="Y" format="1">
  <advance width="1225"/>
  <unicode hex="0059"/>
  <outline>
    <contour>
      <point x="495" y="0" type="line"/>
      <point x="719" y="0" type="line"/>
      <point x="719" y="588" type="line"/>
      <point x="1233" y="1472" type="line"/>
      <point x="993" y="1472" type="line"/>
      <point x="610" y="793" type="line"/>
      <point x="233" y="1472" type="line"/>
      <point x="-8" y="1472" type="line"/>
      <point x="495" y="583" type="line"/>
    </contour>
  </outline>
</glyph>
<glyph name="Z" format="1">
  <advance width="1197"/>
  <unicode hex="005A"/>
  <outline>
    <contour>
      <point x="74" y="0" type="line"/>
      <point x="1136" y="0" type="line"/>
      <point x="1139" y="186" type="line"/>
      <point x="350" y="186" type="line"/>
      <point x="1133" y="1308" type="line"/>
      <point x="1133" y="1472" type="line"/>
      <point x="102" y="1472" type="line"/>
      <point x="102" y="1286" type="line"/>
      <point x="862" y="1286" type="line"/>
      <point x="74" y="155" type="line"/>
    </contour>
  </outline>
</glyph>
<glyph name="bracketleft" format="1">
  <advance width="663"/>
  <unicode hex="005B"/>
  <outline>
    <contour>
      <point x="139" y="-279" type="line"/>
      <point x="598" y="-279" type="line"/>
      <point x="598" y="-122" type="line"/>
      <point x="352" y="-122" type="line"/>
      <point x="352" y="1339" type="line"/>
      <point x="598" y="1339" type="line"/>
      <point x="598" y="1495" type="line"/>
      <point x="139" y="1495" type="line"/>
    </contour>
  </outline>
</glyph>
<glyph name="backslash" format="1">
  <advance width="874"/>
  <unicode hex="005C"/>
  <outline>
    <contour>
      <point x="650" y="-60" type="line"/>
      <point x="843" y="-60" type="line"/>
      <point x="235" y="1463" type="line"/>
      <point x="41" y="1463" type="line"/>
    </contour>
  </outline>
</glyph>
<glyph name="bracketright" format="1">
  <advance width="663"/>
  <unicode hex="005D"/>
  <outline>
    <contour>
      <point x="65" y="-279" type="line"/>
      <point x="524" y="-279" type="line"/>
      <point x="524" y="1495" type="line"/>
      <point x="65" y="1495" type="line"/>
      <point x="65" y="1339" type="line"/>
      <point x="310" y="1339" type="line"/>
      <point x="310" y="-122" type="line"/>
      <point x="65" y="-122" type="line"/>
    </contour>
  </outline>
</glyph>
<glyph name="asciicircum" format="1">
  <advance width="1155"/>
  <unicode hex="005E"/>
  <outline>
    <contour>
      <point x="52" y="568" type="line"/>
      <point x="230" y="568" type="line"/>
      <point x="565" y="1275" type="line"/>
      <point x="927" y="568" type="line"/>
      <point x="1103" y="568" type="line"/>
      <point x="622" y="1493" type="line"/>
      <point x="506" y="1493" type="line"/>
    </contour>
  </outline>
</glyph>
<glyph name="underscore" format="1">
  <advance width="1121"/>
  <unicode hex="005F"/>
  <outline>
    <contour>
      <point x="73" y="-311" type="line"/>
      <point x="1049" y="-311" type="line"/>
      <point x="1049" y="-157" type="line"/>
      <point x="73" y="-157" type="line"/>
    </contour>
  </outline>
</glyph>
<glyph name="grave" format="1">
  <advance width="577"/>
  <unicode hex="0060"/>
  <outline>
    <contour>
      <point x="365" y="1222" type="line"/>
      <point x="502" y="1222" type="line"/>
      <point x="316" y="1607" type="line"/>
      <point x="38" y="1607" type="line"/>
    </contour>
  </outline>
</glyph>
<glyph name="a" format="1">
  <advance width="1121"/>
  <unicode hex="0061"/>
  <outline>
    <contour>
      <point x="430" y="-22" type="curve" smooth="yes"/>
      <point x="580" y="-22"/>
      <point x="673" y="25"/>
      <point x="784" y="136" type="curve"/>
      <point x="788" y="120"/>
      <point x="817" y="16"/>
      <point x="821" y="0" type="curve"/>
      <point x="983" y="0" type="line"/>
      <point x="983" y="721" type="line" smooth="yes"/>
      <point x="983" y="1012"/>
      <point x="859" y="1123"/>
      <point x="578" y="1123" type="curve" smooth="yes"/>
      <point x="423" y="1123"/>
      <point x="288" y="1089"/>
      <point x="178" y="1036" type="curve"/>
      <point x="183" y="1024"/>
      <point x="230" y="894"/>
      <point x="236" y="881" type="curve"/>
      <point x="340" y="926"/>
      <point x="461" y="958"/>
      <point x="565" y="958" type="curve" smooth="yes"/>
      <point x="704" y="958"/>
      <point x="769" y="893"/>
      <point x="769" y="750" type="curve" smooth="yes"/>
      <point x="769" y="672" type="line"/>
      <point x="698" y="665"/>
      <point x="628" y="660"/>
      <point x="560" y="652" type="curve"/>
      <point x="268" y="626"/>
      <point x="88" y="535"/>
      <point x="88" y="298" type="curve" smooth="yes"/>
      <point x="88" y="84"/>
      <point x="233" y="-22"/>
    </contour>
    <contour>
      <point x="478" y="139" type="curve" smooth="yes"/>
      <point x="369" y="139"/>
      <point x="302" y="193"/>
      <point x="302" y="300" type="curve" smooth="yes"/>
      <point x="302" y="448"/>
      <point x="406" y="501"/>
      <point x="648" y="523" type="curve"/>
      <point x="666" y="523"/>
      <point x="751" y="531"/>
      <point x="768" y="533" type="curve"/>
      <point x="768" y="334" type="line"/>
      <point x="733" y="221"/>
      <point x="620" y="139"/>
    </contour>
  </outline>
</glyph>
<glyph name="b" format="1">
  <advance width="1238"/>
  <unicode hex="0062"/>
  <outline>
    <contour>
      <point x="691" y="-22" type="curve" smooth="yes"/>
      <point x="982" y="-22"/>
      <point x="1151" y="216"/>
      <point x="1151" y="558" type="curve" smooth="yes"/>
      <point x="1151" y="884"/>
      <point x="987" y="1123"/>
      <point x="695" y="1123" type="curve" smooth="yes"/>
      <point x="532" y="1123"/>
      <point x="417" y="1038"/>
      <point x="352" y="948" type="curve"/>
      <point x="355" y="1026"/>
      <point x="356" y="1102"/>
      <point x="356" y="1176" type="curve" smooth="yes"/>
      <point x="356" y="1527" type="line"/>
      <point x="141" y="1513" type="line"/>
      <point x="141" y="0" type="line"/>
      <point x="327" y="0" type="line"/>
      <point x="348" y="146" type="line"/>
      <point x="410" y="58"/>
      <point x="535" y="-22"/>
    </contour>
    <contour>
      <point x="651" y="148" type="curve" smooth="yes"/>
      <point x="450" y="148"/>
      <point x="355" y="286"/>
      <point x="355" y="560" type="curve"/>
      <point x="356" y="829"/>
      <point x="467" y="954"/>
      <point x="653" y="954" type="curve" smooth="yes"/>
      <point x="840" y="954"/>
      <point x="934" y="800"/>
      <point x="934" y="554" type="curve" smooth="yes"/>
      <point x="934" y="310"/>
      <point x="838" y="148"/>
    </contour>
  </outline>
</glyph>
<glyph name="c" format="1">
  <advance width="988"/>
  <unicode hex="0063"/>
  <outline>
    <contour>
      <point x="610" y="-22" type="curve" smooth="yes"/>
      <point x="735" y="-22"/>
      <point x="832" y="4"/>
      <point x="914" y="61" type="curve"/>
      <point x="891" y="227" type="line"/>
      <point x="811" y="181"/>
      <point x="720" y="150"/>
      <point x="620" y="150" type="curve" smooth="yes"/>
      <point x="421" y="150"/>
      <point x="304" y="295"/>
      <point x="304" y="549" type="curve" smooth="yes"/>
      <point x="304" y="808"/>
      <point x="426" y="951"/>
      <point x="618" y="951" type="curve" smooth="yes"/>
      <point x="698" y="951"/>
      <point x="793" y="924"/>
      <point x="868" y="885" type="curve"/>
      <point x="922" y="1043" type="line"/>
      <point x="849" y="1092"/>
      <point x="738" y="1123"/>
      <point x="614" y="1123" type="curve" smooth="yes"/>
      <point x="294" y="1123"/>
      <point x="87" y="904"/>
      <point x="86" y="551" type="curve" smooth="yes"/>
      <point x="86" y="198"/>
      <point x="279" y="-22"/>
    </contour>
  </outline>
</glyph>
<glyph name="d" format="1">
  <advance width="1235"/>
  <unicode hex="0064"/>
  <outline>
    <contour>
      <point x="548" y="-21" type="curve" smooth="yes"/>
      <point x="729" y="-21"/>
      <point x="827" y="64"/>
      <point x="884" y="154" type="curve"/>
      <point x="909" y="0" type="line"/>
      <point x="1095" y="0" type="line"/>
      <point x="1095" y="1527" type="line"/>
      <point x="880" y="1513" type="line"/>
      <point x="880" y="1095" type="line" smooth="yes"/>
      <point x="880" y="1069"/>
      <point x="884" y="982"/>
      <point x="887" y="953" type="curve"/>
      <point x="835" y="1040"/>
      <point x="720" y="1123"/>
      <point x="546" y="1123" type="curve" smooth="yes"/>
      <point x="260" y="1123"/>
      <point x="86" y="892"/>
      <point x="86" y="556" type="curve" smooth="yes"/>
      <point x="86" y="206"/>
      <point x="258" y="-21"/>
    </contour>
    <contour>
      <point x="588" y="150" type="curve" smooth="yes"/>
      <point x="404" y="150"/>
      <point x="304" y="301"/>
      <point x="304" y="551" type="curve" smooth="yes"/>
      <point x="304" y="797"/>
      <point x="405" y="951"/>
      <point x="585" y="951" type="curve" smooth="yes"/>
      <point x="791" y="951"/>
      <point x="884" y="815"/>
      <point x="884" y="533" type="curve"/>
      <point x="883" y="279"/>
      <point x="783" y="150"/>
    </contour>
  </outline>
</glyph>
<glyph name="e" format="1">
  <advance width="1133"/>
  <unicode hex="0065"/>
  <outline>
    <contour>
      <point x="624" y="-22" type="curve" smooth="yes"/>
      <point x="794" y="-22"/>
      <point x="908" y="17"/>
      <point x="1011" y="80" type="curve"/>
      <point x="980" y="241" type="line"/>
      <point x="883" y="188"/>
      <point x="769" y="148"/>
      <point x="632" y="148" type="curve" smooth="yes"/>
      <point x="434" y="148"/>
      <point x="310" y="278"/>
      <point x="306" y="507" type="curve"/>
      <point x="1047" y="507" type="line"/>
      <point x="1047" y="538"/>
      <point x="1048" y="578"/>
      <point x="1048" y="608" type="curve" smooth="yes"/>
      <point x="1048" y="915"/>
      <point x="879" y="1123"/>
      <point x="587" y="1123" type="curve" smooth="yes"/>
      <point x="281" y="1121"/>
      <point x="87" y="893"/>
      <point x="87" y="549" type="curve" smooth="yes"/>
      <point x="87" y="194"/>
      <point x="288" y="-22"/>
    </contour>
    <contour>
      <point x="311" y="652" type="line"/>
      <point x="327" y="853"/>
      <point x="439" y="960"/>
      <point x="587" y="960" type="curve" smooth="yes"/>
      <point x="742" y="960"/>
      <point x="839" y="853"/>
      <point x="839" y="652" type="curve"/>
    </contour>
  </outline>
</glyph>
<glyph name="f" format="1">
  <advance width="708"/>
  <unicode hex="0066"/>
  <outline>
    <contour>
      <point x="207" y="0" type="line"/>
      <point x="423" y="0" type="line"/>
      <point x="423" y="949" type="line"/>
      <point x="684" y="949" type="line"/>
      <point x="684" y="1098" type="line"/>
      <point x="423" y="1098" type="line"/>
      <point x="423" y="1161" type="line" smooth="yes"/>
      <point x="423" y="1309"/>
      <point x="456" y="1376"/>
      <point x="570" y="1380" type="curve"/>
      <point x="612" y="1384"/>
      <point x="667" y="1378"/>
      <point x="723" y="1370" type="curve"/>
      <point x="740" y="1534" type="line"/>
      <point x="672" y="1545"/>
      <point x="601" y="1552"/>
      <point x="539" y="1551" type="curve"/>
      <point x="296" y="1543"/>
      <point x="209" y="1419"/>
      <point x="207" y="1153" type="curve" smooth="yes"/>
      <point x="207" y="1098" type="line"/>
      <point x="47" y="1081" type="line"/>
      <point x="31" y="949" type="line"/>
      <point x="207" y="949" type="line"/>
    </contour>
  </outline>
</glyph>
<glyph name="g" format="1">
  <advance width="1228"/>
  <unicode hex="0067"/>
  <outline>
    <contour>
      <point x="333" y="-497" type="line"/>
      <point x="500" y="-497" type="line" smooth="yes"/>
      <point x="1015" y="-497"/>
      <point x="1098" y="-248"/>
      <point x="1098" y="78" type="curve" smooth="yes"/>
      <point x="1098" y="1098" type="line"/>
      <point x="899" y="1098" type="line"/>
      <point x="889" y="958" type="line"/>
      <point x="815" y="1063"/>
      <point x="713" y="1123"/>
      <point x="558" y="1123" type="curve" smooth="yes"/>
      <point x="261" y="1123"/>
      <point x="73" y="892"/>
      <point x="73" y="553" type="curve" smooth="yes"/>
      <point x="73" y="261"/>
      <point x="252" y="1"/>
      <point x="559" y="1" type="curve" smooth="yes"/>
      <point x="734" y="1"/>
      <point x="816" y="73"/>
      <point x="882" y="166" type="curve"/>
      <point x="884" y="146"/>
      <point x="885" y="65"/>
      <point x="885" y="44" type="curve" smooth="yes"/>
      <point x="885" y="-205"/>
      <point x="809" y="-315"/>
      <point x="486" y="-315" type="curve" smooth="yes"/>
      <point x="318" y="-315" type="line"/>
    </contour>
    <contour>
      <point x="593" y="163" type="curve" smooth="yes"/>
      <point x="389" y="163"/>
      <point x="291" y="361"/>
      <point x="291" y="558" type="curve" smooth="yes"/>
      <point x="291" y="761"/>
      <point x="382" y="952"/>
      <point x="600" y="952" type="curve"/>
      <point x="800" y="951"/>
      <point x="889" y="800"/>
      <point x="889" y="585" type="curve" smooth="yes"/>
      <point x="889" y="583"/>
      <point x="889" y="531"/>
      <point x="889" y="529" type="curve" smooth="yes"/>
      <point x="888" y="326"/>
      <point x="812" y="163"/>
    </contour>
  </outline>
</glyph>
<glyph name="h" format="1">
  <advance width="1175"/>
  <unicode hex="0068"/>
  <outline>
    <contour>
      <point x="139" y="0" type="line"/>
      <point x="354" y="0" type="line"/>
      <point x="354" y="556" type="line" smooth="yes"/>
      <point x="354" y="635"/>
      <point x="360" y="703"/>
      <point x="371" y="761" type="curve"/>
      <point x="409" y="870"/>
      <point x="516" y="952"/>
      <point x="662" y="952" type="curve" smooth="yes"/>
      <point x="822" y="952"/>
      <point x="874" y="858"/>
      <point x="874" y="665" type="curve" smooth="yes"/>
      <point x="874" y="0" type="line"/>
      <point x="1090" y="0" type="line"/>
      <point x="1090" y="692" type="line" smooth="yes"/>
      <point x="1090" y="985"/>
      <point x="955" y="1123"/>
      <point x="712" y="1123" type="curve" smooth="yes"/>
      <point x="540" y="1123"/>
      <point x="423" y="1048"/>
      <point x="349" y="958" type="curve"/>
      <point x="351" y="984"/>
      <point x="354" y="1101"/>
      <point x="354" y="1147" type="curve" smooth="yes"/>
      <point x="354" y="1527" type="line"/>
      <point x="139" y="1513" type="line"/>
    </contour>
  </outline>
</glyph>
<glyph name="i" format="1">
  <advance width="489"/>
  <unicode hex="0069"/>
  <outline>
    <contour>
      <point x="148" y="0" type="line"/>
      <point x="364" y="0" type="line"/>
      <point x="364" y="1098" type="line"/>
      <point x="148" y="1098" type="line"/>
    </contour>
    <contour>
      <point x="148" y="1278" type="line"/>
      <point x="364" y="1278" type="line"/>
      <point x="364" y="1489" type="line"/>
      <point x="148" y="1489" type="line"/>
    </contour>
  </outline>
</glyph>
<glyph name="j" format="1">
  <advance width="487"/>
  <unicode hex="006A"/>
  <outline>
    <contour>
      <point x="-52" y="-464" type="line"/>
      <point x="4" y="-464" type="line" smooth="yes"/>
      <point x="316" y="-464"/>
      <point x="379" y="-343"/>
      <point x="379" y="-55" type="curve" smooth="yes"/>
      <point x="379" y="1098" type="line"/>
      <point x="163" y="1098" type="line"/>
      <point x="163" y="-68" type="line" smooth="yes"/>
      <point x="163" y="-233"/>
      <point x="151" y="-291"/>
      <point x="-22" y="-291" type="curve" smooth="yes"/>
      <point x="-77" y="-291" type="line"/>
    </contour>
    <contour>
      <point x="163" y="1278" type="line"/>
      <point x="379" y="1278" type="line"/>
      <point x="379" y="1489" type="line"/>
      <point x="163" y="1489" type="line"/>
    </contour>
  </outline>
</glyph>
<glyph name="k" format="1">
  <advance width="1101"/>
  <unicode hex="006B"/>
  <outline>
    <contour>
      <point x="139" y="0" type="line"/>
      <point x="354" y="0" type="line"/>
      <point x="354" y="424" type="line"/>
      <point x="469" y="519" type="line"/>
      <point x="850" y="0" type="line"/>
      <point x="1114" y="0" type="line"/>
      <point x="629" y="633" type="line"/>
      <point x="1083" y="1098" type="line"/>
      <point x="820" y="1098" type="line"/>
      <point x="679" y="954"/>
      <point x="515" y="793"/>
      <point x="390" y="651" type="curve"/>
      <point x="382" y="643"/>
      <point x="358" y="618"/>
      <point x="351" y="610" type="curve"/>
      <point x="354" y="792" type="line"/>
      <point x="354" y="1527" type="line"/>
      <point x="139" y="1513" type="line"/>
    </contour>
  </outline>
</glyph>
<glyph name="l" format="1">
  <advance width="630"/>
  <unicode hex="006C"/>
  <outline>
    <contour>
      <point x="477" y="-17" type="curve" smooth="yes"/>
      <point x="532" y="-17"/>
      <point x="612" y="-4"/>
      <point x="656" y="3" type="curve"/>
      <point x="648" y="164" type="line"/>
      <point x="601" y="156"/>
      <point x="559" y="148"/>
      <point x="516" y="148" type="curve" smooth="yes"/>
      <point x="371" y="148"/>
      <point x="354" y="201"/>
      <point x="354" y="434" type="curve" smooth="yes"/>
      <point x="354" y="1527" type="line"/>
      <point x="139" y="1513" type="line"/>
      <point x="139" y="400" type="line" smooth="yes"/>
      <point x="139" y="104"/>
      <point x="219" y="-17"/>
    </contour>
  </outline>
</glyph>
<glyph name="m" format="1">
  <advance width="1835"/>
  <unicode hex="006D"/>
  <outline>
    <contour>
      <point x="139" y="0" type="curve"/>
      <point x="354" y="0" type="line"/>
      <point x="354" y="559" type="line" smooth="yes"/>
      <point x="354" y="638"/>
      <point x="360" y="706"/>
      <point x="370" y="765" type="curve"/>
      <point x="408" y="872"/>
      <point x="503" y="951"/>
      <point x="642" y="951" type="curve" smooth="yes"/>
      <point x="805" y="951"/>
      <point x="840" y="817"/>
      <point x="840" y="613" type="curve" smooth="yes"/>
      <point x="840" y="0" type="line"/>
      <point x="1056" y="0" type="line"/>
      <point x="1056" y="621" type="line"/>
      <point x="1059" y="678"/>
      <point x="1067" y="727"/>
      <point x="1080" y="772" type="curve" smooth="yes"/>
      <point x="1123" y="886"/>
      <point x="1213" y="952"/>
      <point x="1338" y="952" type="curve" smooth="yes"/>
      <point x="1504" y="952"/>
      <point x="1530" y="816"/>
      <point x="1530" y="598" type="curve" smooth="yes"/>
      <point x="1530" y="0" type="line"/>
      <point x="1745" y="0" type="line"/>
      <point x="1745" y="704" type="line" smooth="yes"/>
      <point x="1745" y="975"/>
      <point x="1638" y="1123"/>
      <point x="1385" y="1123" type="curve" smooth="yes"/>
      <point x="1229" y="1123"/>
      <point x="1101" y="1060"/>
      <point x="1021" y="937" type="curve"/>
      <point x="988" y="1019"/>
      <point x="900" y="1123"/>
      <point x="697" y="1123" type="curve" smooth="yes"/>
      <point x="506" y="1123"/>
      <point x="397" y="1030"/>
      <point x="340" y="950" type="curve"/>
      <point x="314" y="1098" type="line"/>
      <point x="138" y="1098" type="line"/>
      <point x="138" y="1056"/>
      <point x="139" y="0"/>
    </contour>
  </outline>
</glyph>
<glyph name="n" format="1">
  <advance width="1220"/>
  <unicode hex="006E"/>
  <outline>
    <contour>
      <point x="138" y="0" type="line"/>
      <point x="354" y="0" type="line"/>
      <point x="354" y="567" type="line" smooth="yes"/>
      <point x="354" y="643"/>
      <point x="357" y="708"/>
      <point x="369" y="765" type="curve"/>
      <point x="406" y="870"/>
      <point x="514" y="952"/>
      <point x="661" y="952" type="curve" smooth="yes"/>
      <point x="821" y="952"/>
      <point x="870" y="857"/>
      <point x="873" y="684" type="curve" smooth="yes"/>
      <point x="874" y="655"/>
      <point x="874" y="0"/>
      <point x="874" y="0" type="curve"/>
      <point x="1090" y="0" type="line"/>
      <point x="1090" y="691" type="line" smooth="yes"/>
      <point x="1090" y="975"/>
      <point x="969" y="1123"/>
      <point x="712" y="1123" type="curve" smooth="yes"/>
      <point x="551" y="1123"/>
      <point x="427" y="1047"/>
      <point x="339" y="950" type="curve"/>
      <point x="314" y="1098" type="line"/>
      <point x="138" y="1098" type="line"/>
    </contour>
  </outline>
</glyph>
<glyph name="o" format="1">
  <advance width="1212"/>
  <unicode hex="006F"/>
  <outline>
    <contour>
      <point x="608" y="147" type="curve" smooth="yes"/>
      <point x="403" y="147"/>
      <point x="304" y="306"/>
      <point x="304" y="549" type="curve" smooth="yes"/>
      <point x="304" y="796"/>
      <point x="404" y="953"/>
      <point x="606" y="953" type="curve" smooth="yes"/>
      <point x="813" y="953"/>
      <point x="906" y="798"/>
      <point x="906" y="550" type="curve" smooth="yes"/>
      <point x="906" y="305"/>
      <point x="811" y="147"/>
    </contour>
    <contour>
      <point x="601" y="-22" type="curve" smooth="yes"/>
      <point x="935" y="-22"/>
      <point x="1125" y="211"/>
      <point x="1125" y="551" type="curve" smooth="yes"/>
      <point x="1125" y="887"/>
      <point x="937" y="1123"/>
      <point x="610" y="1123" type="curve" smooth="yes"/>
      <point x="276" y="1123"/>
      <point x="86" y="893"/>
      <point x="86" y="550" type="curve" smooth="yes"/>
      <point x="86" y="217"/>
      <point x="279" y="-22"/>
    </contour>
  </outline>
</glyph>
<glyph name="p" format="1">
  <advance width="1229"/>
  <unicode hex="0070"/>
  <outline>
    <contour>
      <point x="138" y="-466" type="line"/>
      <point x="353" y="-454" type="line"/>
      <point x="353" y="-44" type="line" smooth="yes"/>
      <point x="353" y="9"/>
      <point x="351" y="71"/>
      <point x="346" y="141" type="curve"/>
      <point x="419" y="45"/>
      <point x="541" y="-22"/>
      <point x="685" y="-22" type="curve" smooth="yes"/>
      <point x="972" y="-22"/>
      <point x="1143" y="219"/>
      <point x="1143" y="549" type="curve" smooth="yes"/>
      <point x="1143" y="877"/>
      <point x="987" y="1123"/>
      <point x="697" y="1123" type="curve" smooth="yes"/>
      <point x="544" y="1123"/>
      <point x="417" y="1046"/>
      <point x="347" y="954" type="curve"/>
      <point x="325" y="1098" type="line"/>
      <point x="138" y="1098" type="line"/>
    </contour>
    <contour>
      <point x="645" y="149" type="curve" smooth="yes"/>
      <point x="441" y="149"/>
      <point x="352" y="289"/>
      <point x="352" y="570" type="curve"/>
      <point x="353" y="822"/>
      <point x="448" y="952"/>
      <point x="642" y="952" type="curve" smooth="yes"/>
      <point x="825" y="952"/>
      <point x="925" y="798"/>
      <point x="925" y="553" type="curve" smooth="yes"/>
      <point x="925" y="314"/>
      <point x="826" y="149"/>
    </contour>
  </outline>
</glyph>
<glyph name="q" format="1">
  <advance width="1235"/>
  <unicode hex="0071"/>
  <outline>
    <contour>
      <point x="880" y="-466" type="line"/>
      <point x="1096" y="-455" type="line"/>
      <point x="1096" y="1098" type="line"/>
      <point x="906" y="1098" type="line"/>
      <point x="889" y="951" type="line"/>
      <point x="824" y="1041"/>
      <point x="720" y="1123"/>
      <point x="554" y="1123" type="curve" smooth="yes"/>
      <point x="251" y="1123"/>
      <point x="89" y="882"/>
      <point x="89" y="548" type="curve" smooth="yes"/>
      <point x="89" y="216"/>
      <point x="264" y="-22"/>
      <point x="554" y="-22" type="curve" smooth="yes"/>
      <point x="729" y="-22"/>
      <point x="833" y="72"/>
      <point x="885" y="154" type="curve"/>
      <point x="882" y="106"/>
      <point x="880" y="58"/>
      <point x="880" y="9" type="curve" smooth="yes"/>
    </contour>
    <contour>
      <point x="590" y="149" type="curve" smooth="yes"/>
      <point x="401" y="149"/>
      <point x="306" y="304"/>
      <point x="306" y="550" type="curve" smooth="yes"/>
      <point x="306" y="796"/>
      <point x="403" y="950"/>
      <point x="588" y="950" type="curve" smooth="yes"/>
      <point x="793" y="950"/>
      <point x="885" y="813"/>
      <point x="885" y="532" type="curve"/>
      <point x="882" y="275"/>
      <point x="786" y="149"/>
    </contour>
  </outline>
</glyph>
<glyph name="r" format="1">
  <advance width="772"/>
  <unicode hex="0072"/>
  <outline>
    <contour>
      <point x="141" y="0" type="curve"/>
      <point x="357" y="0" type="line"/>
      <point x="357" y="606" type="line" smooth="yes"/>
      <point x="357" y="788"/>
      <point x="463" y="920"/>
      <point x="658" y="920" type="curve" smooth="yes"/>
      <point x="684" y="920"/>
      <point x="711" y="918"/>
      <point x="739" y="913" type="curve"/>
      <point x="745" y="1100" type="line"/>
      <point x="722" y="1104"/>
      <point x="697" y="1105"/>
      <point x="669" y="1105" type="curve" smooth="yes"/>
      <point x="532" y="1105"/>
      <point x="418" y="1032"/>
      <point x="346" y="916" type="curve"/>
      <point x="321" y="1098" type="line"/>
      <point x="141" y="1098" type="line"/>
      <point x="141" y="1044"/>
      <point x="141" y="0"/>
    </contour>
  </outline>
</glyph>
<glyph name="s" format="1">
  <advance width="969"/>
  <unicode hex="0073"/>
  <outline>
    <contour>
      <point x="477" y="-21" type="curve" smooth="yes"/>
      <point x="733" y="-21"/>
      <point x="888" y="98"/>
      <point x="890" y="311" type="curve" smooth="yes"/>
      <point x="890" y="478"/>
      <point x="799" y="568"/>
      <point x="592" y="639" type="curve" smooth="yes"/>
      <point x="566" y="648"/>
      <point x="542" y="656"/>
      <point x="520" y="664" type="curve" smooth="yes"/>
      <point x="361" y="720"/>
      <point x="307" y="749"/>
      <point x="307" y="829" type="curve" smooth="yes"/>
      <point x="307" y="916"/>
      <point x="382" y="961"/>
      <point x="503" y="961" type="curve" smooth="yes"/>
      <point x="608" y="961"/>
      <point x="713" y="929"/>
      <point x="797" y="892" type="curve"/>
      <point x="854" y="1048" type="line"/>
      <point x="752" y="1097"/>
      <point x="636" y="1123"/>
      <point x="500" y="1123" type="curve" smooth="yes"/>
      <point x="248" y="1123"/>
      <point x="101" y="1003"/>
      <point x="101" y="818" type="curve" smooth="yes"/>
      <point x="101" y="664"/>
      <point x="182" y="577"/>
      <point x="378" y="506" type="curve" smooth="yes"/>
      <point x="385" y="504"/>
      <point x="442" y="483"/>
      <point x="448" y="481" type="curve" smooth="yes"/>
      <point x="627" y="417"/>
      <point x="685" y="380"/>
      <point x="685" y="291" type="curve" smooth="yes"/>
      <point x="682" y="189"/>
      <point x="600" y="141"/>
      <point x="467" y="141" type="curve" smooth="yes"/>
      <point x="343" y="141"/>
      <point x="204" y="191"/>
      <point x="126" y="233" type="curve"/>
      <point x="102" y="63" type="line"/>
      <point x="186" y="13"/>
      <point x="315" y="-21"/>
    </contour>
  </outline>
</glyph>
<glyph name="t" format="1">
  <advance width="752"/>
  <unicode hex="0074"/>
  <outline>
    <contour>
      <point x="532" y="-17" type="curve" smooth="yes"/>
      <point x="580" y="-17"/>
      <point x="661" y="-8"/>
      <point x="709" y="1" type="curve"/>
      <point x="700" y="151" type="line"/>
      <point x="666" y="146"/>
      <point x="588" y="138"/>
      <point x="561" y="138" type="curve" smooth="yes"/>
      <point x="439" y="138"/>
      <point x="406" y="208"/>
      <point x="406" y="381" type="curve" smooth="yes"/>
      <point x="406" y="956" type="line"/>
      <point x="694" y="956" type="line"/>
      <point x="694" y="1098" type="line"/>
      <point x="406" y="1098" type="line"/>
      <point x="406" y="1367" type="line"/>
      <point x="270" y="1364" type="line"/>
      <point x="198" y="1098" type="line"/>
      <point x="30" y="1085" type="line"/>
      <point x="19" y="956" type="line"/>
      <point x="191" y="956" type="line"/>
      <point x="191" y="956"/>
      <point x="190" y="397"/>
      <point x="191" y="368" type="curve" smooth="yes"/>
      <point x="194" y="107"/>
      <point x="271" y="-17"/>
    </contour>
  </outline>
</glyph>
<glyph name="u" format="1">
  <advance width="1124"/>
  <unicode hex="0075"/>
  <outline>
    <contour>
      <point x="562" y="-23" type="curve" smooth="yes"/>
      <point x="816" y="-23"/>
      <point x="1022" y="92"/>
      <point x="1022" y="379" type="curve" smooth="yes"/>
      <point x="1022" y="1098" type="line"/>
      <point x="806" y="1098" type="line"/>
      <point x="806" y="383" type="line" smooth="yes"/>
      <point x="806" y="203"/>
      <point x="715" y="145"/>
      <point x="563" y="145" type="curve" smooth="yes"/>
      <point x="410" y="145"/>
      <point x="318" y="201"/>
      <point x="318" y="383" type="curve" smooth="yes"/>
      <point x="318" y="1098" type="line"/>
      <point x="102" y="1098" type="line"/>
      <point x="102" y="379" type="line" smooth="yes"/>
      <point x="102" y="92"/>
      <point x="309" y="-23"/>
    </contour>
  </outline>
</glyph>
<glyph name="v" format="1">
  <advance width="1079"/>
  <unicode hex="0076"/>
  <outline>
    <contour>
      <point x="432" y="0" type="line"/>
      <point x="657" y="0" type="line"/>
      <point x="1076" y="1098" type="line"/>
      <point x="847" y="1098" type="line"/>
      <point x="778" y="906"/>
      <point x="663" y="566"/>
      <point x="630" y="474" type="curve"/>
      <point x="607" y="408"/>
      <point x="566" y="262"/>
      <point x="549" y="210" type="curve"/>
      <point x="549" y="210"/>
      <point x="480" y="415"/>
      <point x="459" y="476" type="curve"/>
      <point x="230" y="1098" type="line"/>
      <point x="1" y="1098" type="line"/>
    </contour>
  </outline>
</glyph>
<glyph name="w" format="1">
  <advance width="1661"/>
  <unicode hex="0077"/>
  <outline>
    <contour>
      <point x="339" y="0" type="line"/>
      <point x="559" y="0" type="line"/>
      <point x="620" y="188"/>
      <point x="775" y="694"/>
      <point x="830" y="888" type="curve"/>
      <point x="888" y="697"/>
      <point x="1033" y="189"/>
      <point x="1092" y="0" type="curve"/>
      <point x="1314" y="0" type="line"/>
      <point x="1645" y="1098" type="line"/>
      <point x="1427" y="1098" type="line"/>
      <point x="1202" y="250" type="line"/>
      <point x="1146" y="436"/>
      <point x="1008" y="914"/>
      <point x="950" y="1098" type="curve"/>
      <point x="721" y="1098" type="line"/>
      <point x="661" y="914"/>
      <point x="516" y="434"/>
      <point x="459" y="247" type="curve"/>
      <point x="237" y="1098" type="line"/>
      <point x="16" y="1098" type="line"/>
    </contour>
  </outline>
</glyph>
<glyph name="x" format="1">
  <advance width="1108"/>
  <unicode hex="0078"/>
  <outline>
    <contour>
      <point x="26" y="0" type="line"/>
      <point x="270" y="0" type="line"/>
      <point x="556" y="420" type="line"/>
      <point x="839" y="0" type="line"/>
      <point x="1082" y="0" type="line"/>
      <point x="689" y="560" type="line"/>
      <point x="1070" y="1098" type="line"/>
      <point x="828" y="1098" type="line"/>
      <point x="556" y="702" type="line"/>
      <point x="288" y="1098" type="line"/>
      <point x="43" y="1098" type="line"/>
      <point x="422" y="560" type="line"/>
    </contour>
  </outline>
</glyph>
<glyph name="y" format="1">
  <advance width="1070"/>
  <unicode hex="0079"/>
  <outline>
    <contour>
      <point x="159" y="-479" type="curve" smooth="yes"/>
      <point x="382" y="-479"/>
      <point x="508" y="-377"/>
      <point x="601" y="-140" type="curve" smooth="yes"/>
      <point x="610" y="-117"/>
      <point x="1061" y="1098"/>
      <point x="1061" y="1098" type="curve"/>
      <point x="831" y="1098" type="line"/>
      <point x="799" y="999"/>
      <point x="573" y="347"/>
      <point x="545" y="244" type="curve"/>
      <point x="228" y="1098" type="line"/>
      <point x="-2" y="1098" type="line"/>
      <point x="436" y="14" type="line"/>
      <point x="419" y="-37"/>
      <point x="402" y="-82"/>
      <point x="386" y="-123" type="curve" smooth="yes"/>
      <point x="331" y="-262"/>
      <point x="264" y="-303"/>
      <point x="130" y="-303" type="curve" smooth="yes"/>
      <point x="97" y="-303"/>
      <point x="62" y="-302"/>
      <point x="29" y="-298" type="curve"/>
      <point x="41" y="-471" type="line"/>
      <point x="80" y="-476"/>
      <point x="119" y="-479"/>
    </contour>
  </outline>
</glyph>
<glyph name="z" format="1">
  <advance width="945"/>
  <unicode hex="007A"/>
  <outline>
    <contour>
      <point x="74" y="0" type="line"/>
      <point x="883" y="0" type="line"/>
      <point x="883" y="162" type="line"/>
      <point x="328" y="162" type="line"/>
      <point x="866" y="942" type="line"/>
      <point x="866" y="1098" type="line"/>
      <point x="94" y="1098" type="line"/>
      <point x="94" y="941" type="line"/>
      <point x="626" y="941" type="line"/>
      <point x="74" y="143" type="line"/>
    </contour>
  </outline>
</glyph>
<glyph name="braceleft" format="1">
  <advance width="760"/>
  <unicode hex="007B"/>
  <outline>
    <contour>
      <point x="673" y="-284" type="curve"/>
      <point x="673" y="-114" type="line"/>
      <point x="526" y="-112"/>
      <point x="492" y="-64"/>
      <point x="492" y="86" type="curve" smooth="yes"/>
      <point x="492" y="354" type="line" smooth="yes"/>
      <point x="492" y="485"/>
      <point x="430" y="582"/>
      <point x="293" y="618" type="curve"/>
      <point x="430" y="683"/>
      <point x="491" y="757"/>
      <point x="492" y="888" type="curve"/>
      <point x="492" y="1155" type="line" smooth="yes"/>
      <point x="492" y="1302"/>
      <point x="525" y="1353"/>
      <point x="673" y="1355" type="curve"/>
      <point x="673" y="1525" type="line"/>
      <point x="417" y="1525"/>
      <point x="283" y="1444"/>
      <point x="283" y="1225" type="curve" smooth="yes"/>
      <point x="283" y="958" type="line" smooth="yes"/>
      <point x="283" y="786"/>
      <point x="261" y="712"/>
      <point x="63" y="710" type="curve"/>
      <point x="63" y="530" type="line"/>
      <point x="245" y="530"/>
      <point x="283" y="443"/>
      <point x="283" y="280" type="curve" smooth="yes"/>
      <point x="283" y="37" type="line" smooth="yes"/>
      <point x="283" y="-197"/>
      <point x="402" y="-283"/>
    </contour>
  </outline>
</glyph>
<glyph name="bar" format="1">
  <advance width="779"/>
  <unicode hex="007C"/>
  <outline>
    <contour>
      <point x="302" y="-390" type="line"/>
      <point x="477" y="-390" type="line"/>
      <point x="477" y="1558" type="line"/>
      <point x="302" y="1558" type="line"/>
    </contour>
  </outline>
</glyph>
<glyph name="braceright" format="1">
  <advance width="763"/>
  <unicode hex="007D"/>
  <outline>
    <contour>
      <point x="90" y="-284" type="line"/>
      <point x="352" y="-283"/>
      <point x="479" y="-202"/>
      <point x="479" y="15" type="curve" smooth="yes"/>
      <point x="479" y="280" type="line" smooth="yes"/>
      <point x="479" y="446"/>
      <point x="518" y="530"/>
      <point x="700" y="530" type="curve"/>
      <point x="700" y="710" type="line"/>
      <point x="511" y="712"/>
      <point x="479" y="794"/>
      <point x="479" y="958" type="curve" smooth="yes"/>
      <point x="479" y="1204" type="line" smooth="yes"/>
      <point x="479" y="1439"/>
      <point x="358" y="1525"/>
      <point x="90" y="1525" type="curve"/>
      <point x="90" y="1355" type="line"/>
      <point x="237" y="1353"/>
      <point x="270" y="1302"/>
      <point x="270" y="1155" type="curve" smooth="yes"/>
      <point x="270" y="888" type="line"/>
      <point x="271" y="759"/>
      <point x="330" y="665"/>
      <point x="468" y="621" type="curve"/>
      <point x="330" y="555"/>
      <point x="270" y="490"/>
      <point x="270" y="355" type="curve" smooth="yes"/>
      <point x="270" y="86" type="line" smooth="yes"/>
      <point x="270" y="-64"/>
      <point x="235" y="-112"/>
      <point x="90" y="-114" type="curve"/>
    </contour>
  </outline>
</glyph>
<glyph name="asciitilde" format="1">
  <advance width="1276"/>
  <unicode hex="007E"/>
  <outline>
    <contour>
      <point x="190" y="487" type="line"/>
      <point x="233" y="569"/>
      <point x="306" y="641"/>
      <point x="398" y="641" type="curve" smooth="yes"/>
      <point x="471" y="641"/>
      <point x="538" y="611"/>
      <point x="625" y="571" type="curve"/>
      <point x="717" y="530"/>
      <point x="790" y="501"/>
      <point x="876" y="501" type="curve" smooth="yes"/>
      <point x="1013" y="501"/>
      <point x="1120" y="590"/>
      <point x="1171" y="700" type="curve"/>
      <point x="1108" y="816" type="line"/>
      <point x="1042" y="725"/>
      <point x="968" y="670"/>
      <point x="887" y="670" type="curve" smooth="yes"/>
      <point x="826" y="670"/>
      <point x="752" y="701"/>
      <point x="660" y="742" type="curve"/>
      <point x="567" y="782"/>
      <point x="489" y="808"/>
      <point x="404" y="808" type="curve" smooth="yes"/>
      <point x="261" y="808"/>
      <point x="175" y="721"/>
      <point x="125" y="612" type="curve"/>
    </contour>
  </outline>
</glyph>
<glyph name="exclamdown" format="1">
  <advance width="515"/>
  <unicode hex="00A1"/>
  <outline>
    <contour>
      <point x="151" y="-6" type="line"/>
      <point x="370" y="-6" type="line"/>
      <point x="370" y="176" type="line"/>
      <point x="307" y="1028" type="line"/>
      <point x="213" y="1028" type="line"/>
      <point x="151" y="176" type="line"/>
    </contour>
    <contour>
      <point x="258" y="1199" type="curve" smooth="yes"/>
      <point x="345" y="1199"/>
      <point x="401" y="1268"/>
      <point x="401" y="1343" type="curve" smooth="yes"/>
      <point x="401" y="1417"/>
      <point x="345" y="1485"/>
      <point x="258" y="1485" type="curve" smooth="yes"/>
      <point x="169" y="1485"/>
      <point x="114" y="1417"/>
      <point x="114" y="1343" type="curve" smooth="yes"/>
      <point x="114" y="1268"/>
      <point x="169" y="1199"/>
    </contour>
  </outline>
</glyph>
<glyph name="cent" format="1">
  <advance width="1092"/>
  <unicode hex="00A2"/>
  <outline>
    <contour>
      <point x="560" y="-103" type="line"/>
      <point x="658" y="-103" type="line"/>
      <point x="658" y="111" type="line"/>
      <point x="760" y="118"/>
      <point x="850" y="150"/>
      <point x="921" y="207" type="curve"/>
      <point x="874" y="355" type="line"/>
      <point x="820" y="317"/>
      <point x="745" y="281"/>
      <point x="658" y="274" type="curve"/>
      <point x="658" y="1082" type="line"/>
      <point x="735" y="1075"/>
      <point x="814" y="1046"/>
      <point x="872" y="1007" type="curve"/>
      <point x="915" y="1154" type="line"/>
      <point x="854" y="1206"/>
      <point x="767" y="1238"/>
      <point x="658" y="1246" type="curve"/>
      <point x="658" y="1448" type="line"/>
      <point x="560" y="1448" type="line"/>
      <point x="560" y="1248" type="line"/>
      <point x="278" y="1226"/>
      <point x="77" y="1004"/>
      <point x="76" y="688" type="curve" smooth="yes"/>
      <point x="76" y="366"/>
      <point x="260" y="135"/>
      <point x="560" y="111" type="curve"/>
    </contour>
    <contour>
      <point x="560" y="278" type="line"/>
      <point x="393" y="307"/>
      <point x="286" y="454"/>
      <point x="286" y="681" type="curve" smooth="yes"/>
      <point x="286" y="908"/>
      <point x="402" y="1054"/>
      <point x="560" y="1080" type="curve"/>
    </contour>
  </outline>
</glyph>
<glyph name="sterling" format="1">
  <advance width="1141"/>
  <unicode hex="00A3"/>
  <outline>
    <contour>
      <point x="90" y="0" type="line"/>
      <point x="1083" y="0" type="line"/>
      <point x="1087" y="187" type="line"/>
      <point x="454" y="187" type="line"/>
      <point x="435" y="187"/>
      <point x="375" y="185"/>
      <point x="355" y="184" type="curve"/>
      <point x="448" y="259"/>
      <point x="472" y="370"/>
      <point x="472" y="514" type="curve" smooth="yes"/>
      <point x="472" y="670" type="line"/>
      <point x="872" y="670" type="line"/>
      <point x="872" y="827" type="line"/>
      <point x="472" y="827" type="line"/>
      <point x="472" y="1005" type="line" smooth="yes"/>
      <point x="472" y="1196"/>
      <point x="532" y="1317"/>
      <point x="705" y="1317" type="curve" smooth="yes"/>
      <point x="808" y="1317"/>
      <point x="892" y="1278"/>
      <point x="980" y="1215" type="curve"/>
      <point x="1071" y="1360" type="line"/>
      <point x="976" y="1440"/>
      <point x="854" y="1495"/>
      <point x="699" y="1495" type="curve" smooth="yes"/>
      <point x="357" y="1495"/>
      <point x="260" y="1239"/>
      <point x="260" y="927" type="curve" smooth="yes"/>
      <point x="260" y="827" type="line"/>
      <point x="75" y="827" type="line"/>
      <point x="75" y="670" type="line"/>
      <point x="260" y="670" type="line"/>
      <point x="260" y="459" type="line" smooth="yes"/>
      <point x="260" y="302"/>
      <point x="211" y="218"/>
      <point x="77" y="165" type="curve"/>
    </contour>
  </outline>
</glyph>
<glyph name="currency" format="1">
  <advance width="1157"/>
  <unicode hex="00A4"/>
  <outline>
    <contour>
      <point x="1022" y="230" type="line"/>
      <point x="1102" y="315" type="line"/>
      <point x="920" y="488" type="line"/>
      <point x="970" y="558"/>
      <point x="998" y="641"/>
      <point x="998" y="732" type="curve" smooth="yes"/>
      <point x="998" y="820"/>
      <point x="969" y="903"/>
      <point x="919" y="975" type="curve"/>
      <point x="1103" y="1150" type="line"/>
      <point x="1022" y="1234" type="line"/>
      <point x="836" y="1059" type="line"/>
      <point x="764" y="1116"/>
      <point x="676" y="1149"/>
      <point x="579" y="1149" type="curve" smooth="yes"/>
      <point x="482" y="1149"/>
      <point x="393" y="1117"/>
      <point x="321" y="1060" type="curve"/>
      <point x="137" y="1234" type="line"/>
      <point x="53" y="1152" type="line"/>
      <point x="239" y="975" type="line"/>
      <point x="188" y="903"/>
      <point x="160" y="821"/>
      <point x="160" y="732" type="curve" smooth="yes"/>
      <point x="160" y="643"/>
      <point x="188" y="559"/>
      <point x="239" y="488" type="curve"/>
      <point x="54" y="313" type="line"/>
      <point x="137" y="231" type="line"/>
      <point x="320" y="405" type="line"/>
      <point x="391" y="348"/>
      <point x="479" y="316"/>
      <point x="579" y="316" type="curve" smooth="yes"/>
      <point x="676" y="316"/>
      <point x="763" y="348"/>
      <point x="836" y="405" type="curve"/>
    </contour>
    <contour>
      <point x="579" y="439" type="curve" smooth="yes"/>
      <point x="415" y="439"/>
      <point x="283" y="570"/>
      <point x="283" y="732" type="curve" smooth="yes"/>
      <point x="283" y="893"/>
      <point x="416" y="1026"/>
      <point x="579" y="1026" type="curve" smooth="yes"/>
      <point x="742" y="1026"/>
      <point x="875" y="893"/>
      <point x="875" y="732" type="curve" smooth="yes"/>
      <point x="875" y="571"/>
      <point x="743" y="439"/>
    </contour>
  </outline>
</glyph>
<glyph name="yen" format="1">
  <advance width="1165"/>
  <unicode hex="00A5"/>
  <outline>
    <contour>
      <point x="479" y="0" type="line"/>
      <point x="690" y="0" type="line"/>
      <point x="690" y="294" type="line"/>
      <point x="1039" y="294" type="line"/>
      <point x="1039" y="433" type="line"/>
      <point x="690" y="433" type="line"/>
      <point x="690" y="594" type="line"/>
      <point x="1039" y="594" type="line"/>
      <point x="1039" y="732" type="line"/>
      <point x="748" y="732" type="line"/>
      <point x="1174" y="1469" type="line"/>
      <point x="947" y="1469" type="line"/>
      <point x="583" y="822" type="line"/>
      <point x="222" y="1469" type="line"/>
      <point x="-10" y="1469" type="line"/>
      <point x="415" y="732" type="line"/>
      <point x="130" y="732" type="line"/>
      <point x="130" y="594" type="line"/>
      <point x="479" y="594" type="line"/>
      <point x="479" y="433" type="line"/>
      <point x="129" y="433" type="line"/>
      <point x="129" y="294" type="line"/>
      <point x="479" y="294" type="line"/>
    </contour>
  </outline>
</glyph>
<glyph name="brokenbar" format="1">
  <advance width="803"/>
  <unicode hex="00A6"/>
  <outline>
    <contour>
      <point x="314" y="-389" type="line"/>
      <point x="489" y="-389" type="line"/>
      <point x="489" y="325" type="line"/>
      <point x="314" y="325" type="line"/>
    </contour>
    <contour>
      <point x="314" y="845" type="line"/>
      <point x="489" y="845" type="line"/>
      <point x="489" y="1558" type="line"/>
      <point x="314" y="1558" type="line"/>
    </contour>
  </outline>
</glyph>
<glyph name="dieresis" format="1">
  <advance width="771"/>
  <unicode hex="00A8"/>
  <outline>
    <contour>
      <point x="98" y="1245" type="line"/>
      <point x="272" y="1245" type="line"/>
      <point x="272" y="1478" type="line"/>
      <point x="98" y="1478" type="line"/>
    </contour>
    <contour>
      <point x="503" y="1245" type="line"/>
      <point x="679" y="1245" type="line"/>
      <point x="679" y="1478" type="line"/>
      <point x="503" y="1478" type="line"/>
    </contour>
  </outline>
</glyph>
<glyph name="copyright" format="1">
  <advance width="1791"/>
  <unicode hex="00A9"/>
  <outline>
    <contour>
      <point x="881" y="262" type="curve" smooth="yes"/>
      <point x="1004" y="262"/>
      <point x="1120" y="295"/>
      <point x="1195" y="344" type="curve"/>
      <point x="1153" y="449" type="line"/>
      <point x="1088" y="408"/>
      <point x="983" y="380"/>
      <point x="898" y="380" type="curve" smooth="yes"/>
      <point x="674" y="380"/>
      <point x="553" y="542"/>
      <point x="553" y="765" type="curve" smooth="yes"/>
      <point x="553" y="981"/>
      <point x="670" y="1149"/>
      <point x="887" y="1149" type="curve" smooth="yes"/>
      <point x="972" y="1149"/>
      <point x="1070" y="1126"/>
      <point x="1138" y="1082" type="curve"/>
      <point x="1193" y="1183" type="line"/>
      <point x="1111" y="1239"/>
      <point x="1006" y="1269"/>
      <point x="885" y="1269" type="curve" smooth="yes"/>
      <point x="602" y="1269"/>
      <point x="413" y="1049"/>
      <point x="413" y="764" type="curve" smooth="yes"/>
      <point x="413" y="474"/>
      <point x="610" y="262"/>
    </contour>
    <contour>
      <point x="884" y="73" type="curve" smooth="yes"/>
      <point x="476" y="73"/>
      <point x="217" y="382"/>
      <point x="217" y="762" type="curve" smooth="yes"/>
      <point x="217" y="1137"/>
      <point x="476" y="1448"/>
      <point x="881" y="1448" type="curve" smooth="yes"/>
      <point x="1301" y="1448"/>
      <point x="1560" y="1136"/>
      <point x="1560" y="759" type="curve" smooth="yes"/>
      <point x="1560" y="381"/>
      <point x="1303" y="73"/>
    </contour>
    <contour>
      <point x="884" y="-24" type="curve" smooth="yes"/>
      <point x="1303" y="-24"/>
      <point x="1674" y="268"/>
      <point x="1674" y="761" type="curve" smooth="yes"/>
      <point x="1674" y="1251"/>
      <point x="1300" y="1545"/>
      <point x="881" y="1545" type="curve" smooth="yes"/>
      <point x="475" y="1545"/>
      <point x="102" y="1252"/>
      <point x="102" y="761" type="curve" smooth="yes"/>
      <point x="102" y="268"/>
      <point x="478" y="-24"/>
    </contour>
  </outline>
</glyph>
<glyph name="ordfeminine" format="1">
  <advance width="781"/>
  <unicode hex="00AA"/>
  <outline>
    <contour>
      <point x="324" y="787" type="curve" smooth="yes"/>
      <point x="409" y="787"/>
      <point x="488" y="827"/>
      <point x="530" y="887" type="curve"/>
      <point x="540" y="805" type="line"/>
      <point x="667" y="805" type="line"/>
      <point x="664" y="861"/>
      <point x="663" y="923"/>
      <point x="663" y="931" type="curve"/>
      <point x="665" y="1298" type="line" smooth="yes"/>
      <point x="665" y="1483"/>
      <point x="547" y="1551"/>
      <point x="409" y="1551" type="curve" smooth="yes"/>
      <point x="301" y="1551"/>
      <point x="197" y="1523"/>
      <point x="113" y="1449" type="curve"/>
      <point x="165" y="1355" type="line"/>
      <point x="251" y="1416"/>
      <point x="328" y="1428"/>
      <point x="397" y="1428" type="curve" smooth="yes"/>
      <point x="489" y="1428"/>
      <point x="522" y="1384"/>
      <point x="524" y="1275" type="curve" smooth="yes"/>
      <point x="524" y="1271"/>
      <point x="524" y="1253"/>
      <point x="524" y="1249" type="curve"/>
      <point x="314" y="1231"/>
      <point x="101" y="1207"/>
      <point x="101" y="1006" type="curve" smooth="yes"/>
      <point x="101" y="867"/>
      <point x="200" y="787"/>
    </contour>
    <contour>
      <point x="123" y="584" type="line"/>
      <point x="676" y="584" type="line"/>
      <point x="676" y="698" type="line"/>
      <point x="123" y="698" type="line"/>
    </contour>
    <contour>
      <point x="343" y="907" type="curve" smooth="yes"/>
      <point x="283" y="907"/>
      <point x="239" y="937"/>
      <point x="239" y="1007" type="curve" smooth="yes"/>
      <point x="239" y="1125"/>
      <point x="379" y="1132"/>
      <point x="524" y="1150" type="curve"/>
      <point x="524" y="1080" type="line"/>
      <point x="496" y="983"/>
      <point x="436" y="907"/>
    </contour>
  </outline>
</glyph>
<glyph name="guillemotleft" format="1">
  <advance width="1042"/>
  <unicode hex="00AB"/>
  <outline>
    <contour>
      <point x="389" y="143" type="line"/>
      <point x="562" y="188" type="line"/>
      <point x="290" y="561" type="line"/>
      <point x="567" y="935" type="line"/>
      <point x="392" y="979" type="line"/>
      <point x="92" y="578" type="line"/>
      <point x="96" y="533" type="line"/>
    </contour>
    <contour>
      <point x="792" y="143" type="curve"/>
      <point x="956" y="188" type="line"/>
      <point x="692" y="561" type="line"/>
      <point x="959" y="935" type="line"/>
      <point x="794" y="979" type="line"/>
      <point x="479" y="562" type="line"/>
      <point x="479" y="562"/>
      <point x="734" y="219"/>
    </contour>
  </outline>
</glyph>
<glyph name="logicalnot" format="1">
  <advance width="1256"/>
  <unicode hex="00AC"/>
  <outline>
    <contour>
      <point x="963" y="254" type="line"/>
      <point x="1126" y="254" type="line"/>
      <point x="1126" y="830" type="line"/>
      <point x="120" y="830" type="line"/>
      <point x="120" y="661" type="line"/>
      <point x="963" y="661" type="line"/>
    </contour>
  </outline>
</glyph>
<glyph name="uni00AD" format="1">
  <advance width="844"/>
  <unicode hex="00AD"/>
  <outline>
    <contour>
      <point x="92" y="309" type="line"/>
      <point x="755" y="309" type="line"/>
      <point x="755" y="487" type="line"/>
      <point x="92" y="487" type="line"/>
    </contour>
  </outline>
</glyph>
<glyph name="registered" format="1">
  <advance width="1779"/>
  <unicode hex="00AE"/>
  <outline>
    <contour>
      <point x="577" y="286" type="line"/>
      <point x="717" y="286" type="line"/>
      <point x="717" y="701" type="line"/>
      <point x="884" y="701" type="line" smooth="yes"/>
      <point x="944" y="659"/>
      <point x="1077" y="380"/>
      <point x="1129" y="286" type="curve"/>
      <point x="1286" y="286" type="line"/>
      <point x="1173" y="481"/>
      <point x="1095" y="647"/>
      <point x="1019" y="720" type="curve"/>
      <point x="1196" y="749"/>
      <point x="1256" y="848"/>
      <point x="1256" y="985" type="curve" smooth="yes"/>
      <point x="1256" y="1168"/>
      <point x="1126" y="1251"/>
      <point x="891" y="1251" type="curve" smooth="yes"/>
      <point x="577" y="1251" type="line"/>
    </contour>
    <contour>
      <point x="717" y="828" type="line"/>
      <point x="717" y="1124" type="line"/>
      <point x="865" y="1124" type="line" smooth="yes"/>
      <point x="1026" y="1124"/>
      <point x="1102" y="1112"/>
      <point x="1102" y="980" type="curve" smooth="yes"/>
      <point x="1102" y="852"/>
      <point x="1018" y="828"/>
      <point x="874" y="828" type="curve" smooth="yes"/>
    </contour>
    <contour>
      <point x="883" y="73" type="curve" smooth="yes"/>
      <point x="476" y="73"/>
      <point x="217" y="382"/>
      <point x="217" y="762" type="curve" smooth="yes"/>
      <point x="217" y="1137"/>
      <point x="475" y="1448"/>
      <point x="880" y="1448" type="curve" smooth="yes"/>
      <point x="1300" y="1448"/>
      <point x="1558" y="1136"/>
      <point x="1558" y="759" type="curve" smooth="yes"/>
      <point x="1558" y="381"/>
      <point x="1301" y="73"/>
    </contour>
    <contour>
      <point x="883" y="-24" type="curve" smooth="yes"/>
      <point x="1302" y="-24"/>
      <point x="1672" y="268"/>
      <point x="1672" y="761" type="curve" smooth="yes"/>
      <point x="1672" y="1251"/>
      <point x="1299" y="1545"/>
      <point x="880" y="1545" type="curve" smooth="yes"/>
      <point x="474" y="1545"/>
      <point x="102" y="1252"/>
      <point x="102" y="761" type="curve" smooth="yes"/>
      <point x="102" y="268"/>
      <point x="478" y="-24"/>
    </contour>
  </outline>
</glyph>
<glyph name="macron" format="1">
  <advance width="986"/>
  <unicode hex="00AF"/>
  <outline>
    <contour>
      <point x="120" y="1428" type="line"/>
      <point x="873" y="1428" type="line"/>
      <point x="873" y="1576" type="line"/>
      <point x="120" y="1576" type="line"/>
    </contour>
  </outline>
</glyph>
<glyph name="degree" format="1">
  <advance width="848"/>
  <unicode hex="00B0"/>
  <outline>
    <contour>
      <point x="426" y="1004" type="curve" smooth="yes"/>
      <point x="332" y="1004"/>
      <point x="249" y="1077"/>
      <point x="249" y="1184" type="curve" smooth="yes"/>
      <point x="249" y="1290"/>
      <point x="333" y="1361"/>
      <point x="426" y="1361" type="curve" smooth="yes"/>
      <point x="519" y="1361"/>
      <point x="602" y="1290"/>
      <point x="602" y="1184" type="curve" smooth="yes"/>
      <point x="602" y="1078"/>
      <point x="519" y="1004"/>
    </contour>
    <contour>
      <point x="425" y="879" type="curve" smooth="yes"/>
      <point x="614" y="879"/>
      <point x="738" y="1027"/>
      <point x="738" y="1186" type="curve" smooth="yes"/>
      <point x="738" y="1348"/>
      <point x="610" y="1486"/>
      <point x="425" y="1486" type="curve" smooth="yes"/>
      <point x="240" y="1486"/>
      <point x="112" y="1348"/>
      <point x="112" y="1186" type="curve" smooth="yes"/>
      <point x="112" y="1023"/>
      <point x="238" y="879"/>
    </contour>
  </outline>
</glyph>
<glyph name="plusminus" format="1">
  <advance width="1246"/>
  <unicode hex="00B1"/>
  <outline>
    <contour>
      <point x="539" y="247" type="line"/>
      <point x="708" y="247" type="line"/>
      <point x="708" y="641" type="line"/>
      <point x="1105" y="641" type="line"/>
      <point x="1105" y="809" type="line"/>
      <point x="706" y="809" type="line"/>
      <point x="706" y="1201" type="line"/>
      <point x="538" y="1201" type="line"/>
      <point x="538" y="809" type="line"/>
      <point x="142" y="809" type="line"/>
      <point x="142" y="641" type="line"/>
      <point x="539" y="641" type="line"/>
    </contour>
    <contour>
      <point x="142" y="0" type="line"/>
      <point x="1106" y="0" type="line"/>
      <point x="1106" y="160" type="line"/>
      <point x="142" y="160" type="line"/>
    </contour>
  </outline>
</glyph>
<glyph name="uni00B3" format="1">
  <advance width="779"/>
  <unicode hex="00B3"/>
  <outline>
    <contour>
      <point x="365" y="616" type="curve" smooth="yes"/>
      <point x="517" y="616"/>
      <point x="649" y="714"/>
      <point x="649" y="887" type="curve" smooth="yes"/>
      <point x="649" y="988"/>
      <point x="592" y="1062"/>
      <point x="518" y="1096" type="curve"/>
      <point x="592" y="1130"/>
      <point x="628" y="1195"/>
      <point x="629" y="1273" type="curve"/>
      <point x="629" y="1430"/>
      <point x="506" y="1511"/>
      <point x="373" y="1511" type="curve" smooth="yes"/>
      <point x="280" y="1511"/>
      <point x="193" y="1471"/>
      <point x="132" y="1411" type="curve"/>
      <point x="182" y="1304" type="line"/>
      <point x="228" y="1345"/>
      <point x="299" y="1378"/>
      <point x="367" y="1378" type="curve" smooth="yes"/>
      <point x="443" y="1378"/>
      <point x="486" y="1339"/>
      <point x="486" y="1270" type="curve" smooth="yes"/>
      <point x="486" y="1192"/>
      <point x="428" y="1156"/>
      <point x="322" y="1156" type="curve" smooth="yes"/>
      <point x="260" y="1156" type="line"/>
      <point x="260" y="1025" type="line"/>
      <point x="323" y="1025" type="line"/>
      <point x="439" y="1025"/>
      <point x="512" y="986"/>
      <point x="512" y="890" type="curve" smooth="yes"/>
      <point x="512" y="797"/>
      <point x="449" y="746"/>
      <point x="362" y="746" type="curve" smooth="yes"/>
      <point x="302" y="746"/>
      <point x="229" y="774"/>
      <point x="180" y="824" type="curve"/>
      <point x="128" y="709" type="line"/>
      <point x="194" y="648"/>
      <point x="279" y="616"/>
    </contour>
  </outline>
</glyph>
<glyph name="acute" format="1">
  <advance width="629"/>
  <unicode hex="00B4"/>
  <outline>
    <contour>
      <point x="160" y="1222" type="line"/>
      <point x="295" y="1222" type="line"/>
      <point x="615" y="1607" type="line"/>
      <point x="338" y="1607" type="line"/>
    </contour>
  </outline>
</glyph>
<glyph name="paragraph" format="1">
  <advance width="1136"/>
  <unicode hex="00B6"/>
  <outline>
    <contour>
      <point x="406" y="-154" type="line"/>
      <point x="566" y="-154" type="line"/>
      <point x="566" y="1372" type="line"/>
      <point x="758" y="1372" type="line"/>
      <point x="758" y="-154" type="line"/>
      <point x="899" y="-154" type="line"/>
      <point x="899" y="1372" type="line"/>
      <point x="977" y="1372" type="line"/>
      <point x="977" y="1523" type="line"/>
      <point x="536" y="1523" type="line" smooth="yes"/>
      <point x="225" y="1523"/>
      <point x="46" y="1392"/>
      <point x="46" y="1177" type="curve" smooth="yes"/>
      <point x="46" y="992"/>
      <point x="192" y="824"/>
      <point x="406" y="814" type="curve"/>
    </contour>
  </outline>
</glyph>
<glyph name="periodcentered" format="1">
  <advance width="444"/>
  <unicode hex="00B7"/>
  <outline>
    <contour>
      <point x="119" y="524" type="line"/>
      <point x="325" y="524" type="line"/>
      <point x="325" y="749" type="line"/>
      <point x="119" y="749" type="line"/>
    </contour>
  </outline>
</glyph>
<glyph name="cedilla" format="1">
  <advance width="592"/>
  <unicode hex="00B8"/>
  <outline>
    <contour>
      <point x="87" y="-383" type="line"/>
      <point x="270" y="-383" type="line"/>
      <point x="320" y="20" type="line"/>
      <point x="205" y="20" type="line"/>
    </contour>
  </outline>
</glyph>
<glyph name="uni00B9" format="1">
  <advance width="673"/>
  <unicode hex="00B9"/>
  <outline>
    <contour>
      <point x="143" y="625" type="line"/>
      <point x="559" y="625" type="line"/>
      <point x="559" y="748" type="line"/>
      <point x="427" y="748" type="line"/>
      <point x="427" y="1510" type="line"/>
      <point x="306" y="1511" type="line"/>
      <point x="281" y="1487"/>
      <point x="165" y="1425"/>
      <point x="127" y="1405" type="curve"/>
      <point x="127" y="1280" type="line"/>
      <point x="154" y="1294"/>
      <point x="250" y="1340"/>
      <point x="273" y="1356" type="curve"/>
      <point x="273" y="748" type="line"/>
      <point x="143" y="748" type="line"/>
    </contour>
  </outline>
</glyph>
<glyph name="guillemotright" format="1">
  <advance width="1091"/>
  <unicode hex="00BB"/>
  <outline>
    <contour>
      <point x="273" y="143" type="line"/>
      <point x="588" y="559" type="line"/>
      <point x="274" y="979" type="line"/>
      <point x="110" y="935" type="line"/>
      <point x="374" y="562" type="line"/>
      <point x="107" y="188" type="line"/>
    </contour>
    <contour>
      <point x="687" y="143" type="line"/>
      <point x="994" y="559" type="line"/>
      <point x="690" y="979" type="line"/>
      <point x="519" y="935" type="line"/>
      <point x="788" y="562" type="line"/>
      <point x="515" y="188" type="line"/>
    </contour>
  </outline>
</glyph>
<glyph name="onequarter" format="1">
  <advance width="1671"/>
  <unicode hex="00BC"/>
  <outline>
    <contour>
      <point x="119" y="625" type="line"/>
      <point x="536" y="625" type="line"/>
      <point x="536" y="748" type="line"/>
      <point x="403" y="748" type="line"/>
      <point x="403" y="1510" type="line"/>
      <point x="282" y="1511" type="line"/>
      <point x="258" y="1487"/>
      <point x="141" y="1425"/>
      <point x="103" y="1405" type="curve"/>
      <point x="103" y="1280" type="line"/>
      <point x="130" y="1294"/>
      <point x="226" y="1340"/>
      <point x="250" y="1356" type="curve"/>
      <point x="250" y="748" type="line"/>
      <point x="119" y="748" type="line"/>
    </contour>
    <contour>
      <point x="1351" y="25" type="line"/>
      <point x="1484" y="25" type="line"/>
      <point x="1484" y="211" type="line"/>
      <point x="1596" y="211" type="line"/>
      <point x="1590" y="337" type="line"/>
      <point x="1486" y="337" type="line"/>
      <point x="1486" y="882" type="line"/>
      <point x="1338" y="882" type="line"/>
      <point x="954" y="331" type="line"/>
      <point x="954" y="211" type="line"/>
      <point x="1351" y="211" type="line"/>
    </contour>
    <contour>
      <point x="276" y="0" type="line"/>
      <point x="444" y="0" type="line"/>
      <point x="1412" y="1508" type="line"/>
      <point x="1248" y="1508" type="line"/>
    </contour>
    <contour>
      <point x="1122" y="337" type="line"/>
      <point x="1350" y="680" type="line"/>
      <point x="1350" y="663"/>
      <point x="1350" y="337"/>
      <point x="1350" y="337" type="curve"/>
    </contour>
  </outline>
</glyph>
<glyph name="onehalf" format="1">
  <advance width="1700"/>
  <unicode hex="00BD"/>
  <outline>
    <contour>
      <point x="130" y="625" type="line"/>
      <point x="546" y="625" type="line"/>
      <point x="546" y="740" type="line"/>
      <point x="414" y="740" type="line"/>
      <point x="414" y="1510" type="line"/>
      <point x="280" y="1511" type="line"/>
      <point x="255" y="1487"/>
      <point x="152" y="1425"/>
      <point x="114" y="1405" type="curve"/>
      <point x="114" y="1280" type="line"/>
      <point x="141" y="1294"/>
      <point x="237" y="1349"/>
      <point x="260" y="1364" type="curve"/>
      <point x="260" y="740" type="line"/>
      <point x="130" y="740" type="line"/>
    </contour>
    <contour>
      <point x="1037" y="-30" type="line"/>
      <point x="1592" y="-30" type="line"/>
      <point x="1600" y="87" type="line"/>
      <point x="1236" y="87" type="line"/>
      <point x="1441" y="266"/>
      <point x="1606" y="401"/>
      <point x="1606" y="594" type="curve" smooth="yes"/>
      <point x="1606" y="763"/>
      <point x="1474" y="851"/>
      <point x="1332" y="851" type="curve" smooth="yes"/>
      <point x="1208" y="851"/>
      <point x="1090" y="800"/>
      <point x="1036" y="701" type="curve"/>
      <point x="1108" y="610" type="line"/>
      <point x="1162" y="687"/>
      <point x="1247" y="722"/>
      <point x="1319" y="722" type="curve" smooth="yes"/>
      <point x="1388" y="722"/>
      <point x="1458" y="672"/>
      <point x="1458" y="585" type="curve" smooth="yes"/>
      <point x="1458" y="451"/>
      <point x="1260" y="293"/>
      <point x="1038" y="86" type="curve"/>
    </contour>
    <contour>
      <point x="278" y="0" type="line"/>
      <point x="445" y="0" type="line"/>
      <point x="1417" y="1508" type="line"/>
      <point x="1249" y="1508" type="line"/>
    </contour>
  </outline>
</glyph>
<glyph name="threequarters" format="1">
  <advance width="1657"/>
  <unicode hex="00BE"/>
  <outline>
    <contour>
      <point x="338" y="626" type="curve" smooth="yes"/>
      <point x="491" y="626"/>
      <point x="636" y="721"/>
      <point x="636" y="891" type="curve" smooth="yes"/>
      <point x="636" y="990"/>
      <point x="580" y="1062"/>
      <point x="499" y="1096" type="curve"/>
      <point x="588" y="1134"/>
      <point x="617" y="1222"/>
      <point x="617" y="1274" type="curve"/>
      <point x="617" y="1430"/>
      <point x="480" y="1511"/>
      <point x="347" y="1511" type="curve" smooth="yes"/>
      <point x="253" y="1511"/>
      <point x="159" y="1469"/>
      <point x="97" y="1409" type="curve"/>
      <point x="153" y="1304" type="line"/>
      <point x="200" y="1345"/>
      <point x="270" y="1376"/>
      <point x="339" y="1376" type="curve" smooth="yes"/>
      <point x="415" y="1376"/>
      <point x="460" y="1339"/>
      <point x="460" y="1270" type="curve" smooth="yes"/>
      <point x="460" y="1192"/>
      <point x="402" y="1156"/>
      <point x="295" y="1156" type="curve" smooth="yes"/>
      <point x="234" y="1156" type="line"/>
      <point x="234" y="1025" type="line"/>
      <point x="297" y="1025" type="line"/>
      <point x="413" y="1025"/>
      <point x="483" y="990"/>
      <point x="483" y="896" type="curve" smooth="yes"/>
      <point x="483" y="806"/>
      <point x="418" y="757"/>
      <point x="331" y="757" type="curve" smooth="yes"/>
      <point x="271" y="757"/>
      <point x="201" y="782"/>
      <point x="152" y="831" type="curve"/>
      <point x="102" y="719" type="line"/>
      <point x="168" y="657"/>
      <point x="251" y="626"/>
    </contour>
    <contour>
      <point x="1336" y="27" type="line"/>
      <point x="1469" y="27" type="line"/>
      <point x="1469" y="217" type="line"/>
      <point x="1581" y="217" type="line"/>
      <point x="1576" y="343" type="line"/>
      <point x="1470" y="343" type="line"/>
      <point x="1470" y="896" type="line"/>
      <point x="1321" y="896" type="line"/>
      <point x="938" y="337" type="line"/>
      <point x="938" y="217" type="line"/>
      <point x="1336" y="217" type="line"/>
    </contour>
    <contour>
      <point x="305" y="0" type="line"/>
      <point x="474" y="0" type="line"/>
      <point x="1445" y="1508" type="line"/>
      <point x="1275" y="1508" type="line"/>
    </contour>
    <contour>
      <point x="1106" y="343" type="line"/>
      <point x="1336" y="692" type="line"/>
      <point x="1334" y="657"/>
      <point x="1334" y="495"/>
      <point x="1334" y="343" type="curve"/>
    </contour>
  </outline>
</glyph>
<glyph name="AE" format="1">
  <advance width="2056"/>
  <unicode hex="00C6"/>
  <outline>
    <contour>
      <point x="61" y="0" type="line"/>
      <point x="300" y="0" type="line"/>
      <point x="522" y="401" type="line"/>
      <point x="1110" y="401" type="line"/>
      <point x="1140" y="0" type="line"/>
      <point x="1938" y="0" type="line"/>
      <point x="1945" y="177" type="line"/>
      <point x="1352" y="177" type="line"/>
      <point x="1311" y="689" type="line"/>
      <point x="1880" y="689" type="line"/>
      <point x="1880" y="866" type="line"/>
      <point x="1291" y="866" type="line"/>
      <point x="1255" y="1346" type="line"/>
      <point x="1910" y="1346" type="line"/>
      <point x="1918" y="1524" type="line"/>
      <point x="940" y="1524" type="line"/>
    </contour>
    <contour>
      <point x="610" y="580" type="line"/>
      <point x="1035" y="1320" type="line"/>
      <point x="1091" y="580" type="line"/>
    </contour>
  </outline>
</glyph>
<glyph name="Eth" format="1">
  <advance width="1523"/>
  <unicode hex="00D0"/>
  <outline>
    <contour>
      <point x="362" y="181" type="line"/>
      <point x="362" y="673" type="line"/>
      <point x="582" y="673" type="line"/>
      <point x="582" y="830" type="line"/>
      <point x="362" y="830" type="line"/>
      <point x="362" y="1297" type="line"/>
      <point x="541" y="1297" type="line" smooth="yes"/>
      <point x="950" y="1297"/>
      <point x="1196" y="1166"/>
      <point x="1196" y="729" type="curve" smooth="yes"/>
      <point x="1196" y="369"/>
      <point x="990" y="181"/>
      <point x="636" y="181" type="curve" smooth="yes"/>
    </contour>
    <contour>
      <point x="139" y="0" type="line"/>
      <point x="619" y="0" type="line" smooth="yes"/>
      <point x="1099" y="0"/>
      <point x="1427" y="246"/>
      <point x="1427" y="733" type="curve" smooth="yes"/>
      <point x="1427" y="1292"/>
      <point x="1051" y="1479"/>
      <point x="521" y="1479" type="curve" smooth="yes"/>
      <point x="139" y="1479" type="line"/>
      <point x="139" y="830" type="line"/>
      <point x="17" y="830" type="line"/>
      <point x="17" y="673" type="line"/>
      <point x="139" y="673" type="line"/>
    </contour>
  </outline>
</glyph>
<glyph name="multiply" format="1">
  <advance width="1198"/>
  <unicode hex="00D7"/>
  <outline>
    <contour>
      <point x="893" y="164" type="line"/>
      <point x="1015" y="281" type="line"/>
      <point x="978" y="318"/>
      <point x="764" y="557"/>
      <point x="726" y="593" type="curve"/>
      <point x="1015" y="906" type="line"/>
      <point x="894" y="1023" type="line"/>
      <point x="606" y="719" type="line"/>
      <point x="319" y="1023" type="line"/>
      <point x="199" y="906" type="line"/>
      <point x="486" y="593" type="line"/>
      <point x="199" y="281" type="line"/>
      <point x="320" y="164" type="line"/>
      <point x="606" y="467" type="line"/>
    </contour>
  </outline>
</glyph>
<glyph name="Oslash" format="1">
  <advance width="1645"/>
  <unicode hex="00D8"/>
  <outline>
    <contour>
      <point x="498" y="-189" type="line"/>
      <point x="582" y="9" type="line"/>
      <point x="655" y="-12"/>
      <point x="735" y="-23"/>
      <point x="822" y="-23" type="curve" smooth="yes"/>
      <point x="1280" y="-23"/>
      <point x="1557" y="290"/>
      <point x="1557" y="759" type="curve" smooth="yes"/>
      <point x="1557" y="1093"/>
      <point x="1424" y="1337"/>
      <point x="1195" y="1459" type="curve"/>
      <point x="1282" y="1665" type="line"/>
      <point x="1164" y="1708" type="line"/>
      <point x="1080" y="1508" type="line"/>
      <point x="1001" y="1532"/>
      <point x="916" y="1545"/>
      <point x="824" y="1545" type="curve" smooth="yes"/>
      <point x="376" y="1545"/>
      <point x="89" y="1244"/>
      <point x="89" y="759" type="curve" smooth="yes"/>
      <point x="89" y="427"/>
      <point x="227" y="172"/>
      <point x="470" y="53" type="curve"/>
      <point x="386" y="-147" type="line"/>
    </contour>
    <contour>
      <point x="552" y="247" type="line"/>
      <point x="399" y="344"/>
      <point x="322" y="533"/>
      <point x="322" y="761" type="curve" smooth="yes"/>
      <point x="322" y="1092"/>
      <point x="488" y="1346"/>
      <point x="824" y="1346" type="curve" smooth="yes"/>
      <point x="889" y="1346"/>
      <point x="947" y="1336"/>
      <point x="999" y="1318" type="curve"/>
    </contour>
    <contour>
      <point x="824" y="175" type="curve" smooth="yes"/>
      <point x="764" y="175"/>
      <point x="711" y="182"/>
      <point x="663" y="197" type="curve"/>
      <point x="1111" y="1262" type="line"/>
      <point x="1254" y="1161"/>
      <point x="1325" y="978"/>
      <point x="1325" y="761" type="curve" smooth="yes"/>
      <point x="1325" y="424"/>
      <point x="1161" y="175"/>
    </contour>
  </outline>
</glyph>
<glyph name="Thorn" format="1">
  <advance width="1309"/>
  <unicode hex="00DE"/>
  <outline>
    <contour>
      <point x="163" y="6" type="line"/>
      <point x="363" y="6" type="line"/>
      <point x="363" y="344" type="line"/>
      <point x="363" y="344"/>
      <point x="717" y="339"/>
      <point x="722" y="339" type="curve" smooth="yes"/>
      <point x="1053" y="339"/>
      <point x="1242" y="509"/>
      <point x="1242" y="788" type="curve" smooth="yes"/>
      <point x="1242" y="1107"/>
      <point x="1016" y="1223"/>
      <point x="668" y="1223" type="curve" smooth="yes"/>
      <point x="363" y="1223" type="line"/>
      <point x="363" y="1475" type="line"/>
      <point x="163" y="1475" type="line"/>
    </contour>
    <contour>
      <point x="363" y="514" type="line"/>
      <point x="363" y="1060" type="line"/>
      <point x="688" y="1060" type="line" smooth="yes"/>
      <point x="936" y="1060"/>
      <point x="1045" y="978"/>
      <point x="1045" y="787" type="curve" smooth="yes"/>
      <point x="1045" y="622"/>
      <point x="946" y="514"/>
      <point x="723" y="514" type="curve" smooth="yes"/>
    </contour>
  </outline>
</glyph>
<glyph name="germandbls" format="1">
  <advance width="1241"/>
  <unicode hex="00DF"/>
  <outline>
    <contour>
      <point x="113" y="0" type="line"/>
      <point x="325" y="0" type="line"/>
      <point x="325" y="1036" type="line" smooth="yes"/>
      <point x="325" y="1217"/>
      <point x="383" y="1335"/>
      <point x="575" y="1335" type="curve" smooth="yes"/>
      <point x="695" y="1335"/>
      <point x="792" y="1272"/>
      <point x="792" y="1163" type="curve" smooth="yes"/>
      <point x="792" y="1035"/>
      <point x="670" y="994"/>
      <point x="574" y="918" type="curve" smooth="yes"/>
      <point x="532" y="885"/>
      <point x="505" y="847"/>
      <point x="505" y="804" type="curve" smooth="yes"/>
      <point x="505" y="751"/>
      <point x="546" y="712"/>
      <point x="590" y="684" type="curve"/>
      <point x="727" y="596"/>
      <point x="960" y="512"/>
      <point x="960" y="344" type="curve" smooth="yes"/>
      <point x="960" y="234"/>
      <point x="891" y="164"/>
      <point x="769" y="164" type="curve" smooth="yes"/>
      <point x="494" y="164" type="line"/>
      <point x="494" y="164"/>
      <point x="474" y="0"/>
      <point x="473" y="0" type="curve" smooth="yes"/>
      <point x="790" y="0" type="line" smooth="yes"/>
      <point x="1014" y="0"/>
      <point x="1184" y="100"/>
      <point x="1184" y="346" type="curve" smooth="yes"/>
      <point x="1184" y="598"/>
      <point x="901" y="702"/>
      <point x="720" y="818" type="curve"/>
      <point x="858" y="904"/>
      <point x="1012" y="978"/>
      <point x="1012" y="1163" type="curve" smooth="yes"/>
      <point x="1012" y="1387"/>
      <point x="822" y="1507"/>
      <point x="576" y="1507" type="curve" smooth="yes"/>
      <point x="267" y="1507"/>
      <point x="113" y="1330"/>
      <point x="113" y="1035" type="curve" smooth="yes"/>
    </contour>
  </outline>
</glyph>
<glyph name="ae" format="1">
  <advance width="1676"/>
  <unicode hex="00E6"/>
  <outline>
    <contour>
      <point x="407" y="-24" type="curve" smooth="yes"/>
      <point x="583" y="-24"/>
      <point x="741" y="46"/>
      <point x="846" y="125" type="curve"/>
      <point x="926" y="32"/>
      <point x="1034" y="-23"/>
      <point x="1200" y="-23" type="curve" smooth="yes"/>
      <point x="1378" y="-23"/>
      <point x="1496" y="31"/>
      <point x="1580" y="97" type="curve"/>
      <point x="1518" y="239" type="line"/>
      <point x="1458" y="195"/>
      <point x="1342" y="144"/>
      <point x="1213" y="144" type="curve"/>
      <point x="1015" y="145"/>
      <point x="924" y="281"/>
      <point x="912" y="504" type="curve"/>
      <point x="962" y="508"/>
      <point x="1400" y="534"/>
      <point x="1418" y="536" type="curve"/>
      <point x="1549" y="541"/>
      <point x="1590" y="576"/>
      <point x="1590" y="654" type="curve" smooth="yes"/>
      <point x="1590" y="902"/>
      <point x="1483" y="1130"/>
      <point x="1200" y="1130" type="curve" smooth="yes"/>
      <point x="1049" y="1130"/>
      <point x="915" y="1061"/>
      <point x="842" y="946" type="curve"/>
      <point x="808" y="1068"/>
      <point x="682" y="1130"/>
      <point x="517" y="1129" type="curve"/>
      <point x="356" y="1127"/>
      <point x="221" y="1088"/>
      <point x="133" y="1042" type="curve"/>
      <point x="176" y="883" type="line"/>
      <point x="245" y="917"/>
      <point x="382" y="962"/>
      <point x="515" y="962" type="curve"/>
      <point x="660" y="960"/>
      <point x="703" y="896"/>
      <point x="703" y="764" type="curve" smooth="yes"/>
      <point x="703" y="623" type="line"/>
      <point x="629" y="618" type="line"/>
      <point x="313" y="591"/>
      <point x="76" y="561"/>
      <point x="76" y="308" type="curve" smooth="yes"/>
      <point x="76" y="93"/>
      <point x="216" y="-24"/>
    </contour>
    <contour>
      <point x="433" y="132" type="curve" smooth="yes"/>
      <point x="338" y="132"/>
      <point x="277" y="182"/>
      <point x="277" y="298" type="curve" smooth="yes"/>
      <point x="277" y="412"/>
      <point x="368" y="455"/>
      <point x="626" y="479" type="curve" smooth="yes"/>
      <point x="639" y="480"/>
      <point x="691" y="486"/>
      <point x="704" y="487" type="curve"/>
      <point x="708" y="392"/>
      <point x="737" y="293"/>
      <point x="765" y="241" type="curve"/>
      <point x="665" y="189"/>
      <point x="540" y="132"/>
    </contour>
    <contour>
      <point x="916" y="630" type="line"/>
      <point x="930" y="848"/>
      <point x="1040" y="964"/>
      <point x="1198" y="964" type="curve" smooth="yes"/>
      <point x="1344" y="964"/>
      <point x="1391" y="851"/>
      <point x="1393" y="685" type="curve" smooth="yes"/>
      <point x="1393" y="676"/>
      <point x="1392" y="664"/>
      <point x="1392" y="664" type="curve"/>
    </contour>
  </outline>
</glyph>
<glyph name="eth" format="1">
  <advance width="1215"/>
  <unicode hex="00F0"/>
  <outline>
    <contour>
      <point x="614" y="-23" type="curve" smooth="yes"/>
      <point x="950" y="-23"/>
      <point x="1140" y="178"/>
      <point x="1140" y="474" type="curve"/>
      <point x="1140" y="617"/>
      <point x="1102" y="741"/>
      <point x="1036" y="858" type="curve" smooth="yes"/>
      <point x="958" y="991"/>
      <point x="848" y="1119"/>
      <point x="710" y="1270" type="curve"/>
      <point x="936" y="1358" type="line"/>
      <point x="882" y="1507" type="line"/>
      <point x="602" y="1397" type="line"/>
      <point x="469" y="1546" type="line"/>
      <point x="208" y="1546" type="line"/>
      <point x="427" y="1320" type="line"/>
      <point x="226" y="1240" type="line"/>
      <point x="278" y="1088" type="line"/>
      <point x="538" y="1195" type="line"/>
      <point x="637" y="1095"/>
      <point x="765" y="939"/>
      <point x="794" y="885" type="curve"/>
      <point x="758" y="911"/>
      <point x="668" y="950"/>
      <point x="573" y="950" type="curve" smooth="yes"/>
      <point x="278" y="950"/>
      <point x="85" y="761"/>
      <point x="85" y="476" type="curve" smooth="yes"/>
      <point x="85" y="195"/>
      <point x="286" y="-23"/>
    </contour>
    <contour>
      <point x="621" y="146" type="curve" smooth="yes"/>
      <point x="411" y="146"/>
      <point x="297" y="299"/>
      <point x="297" y="481" type="curve" smooth="yes"/>
      <point x="297" y="665"/>
      <point x="412" y="803"/>
      <point x="615" y="803" type="curve" smooth="yes"/>
      <point x="823" y="803"/>
      <point x="940" y="650"/>
      <point x="940" y="472" type="curve" smooth="yes"/>
      <point x="940" y="284"/>
      <point x="824" y="146"/>
    </contour>
  </outline>
</glyph>
<glyph name="divide" format="1">
  <advance width="1336"/>
  <unicode hex="00F7"/>
  <outline>
    <contour>
      <point x="541" y="22" type="line"/>
      <point x="775" y="22" type="line"/>
      <point x="775" y="265" type="line"/>
      <point x="541" y="265" type="line"/>
    </contour>
    <contour>
      <point x="138" y="506" type="line"/>
      <point x="1188" y="506" type="line"/>
      <point x="1188" y="674" type="line"/>
      <point x="138" y="674" type="line"/>
    </contour>
    <contour>
      <point x="541" y="906" type="line"/>
      <point x="796" y="906" type="line"/>
      <point x="796" y="1150" type="line"/>
      <point x="541" y="1150" type="line"/>
    </contour>
  </outline>
</glyph>
<glyph name="oslash" format="1">
  <advance width="1183"/>
  <unicode hex="00F8"/>
  <outline>
    <contour>
      <point x="293" y="-249" type="line"/>
      <point x="404" y="10" type="line"/>
      <point x="461" y="-10"/>
      <point x="525" y="-20"/>
      <point x="594" y="-20" type="curve" smooth="yes"/>
      <point x="933" y="-20"/>
      <point x="1113" y="236"/>
      <point x="1113" y="551" type="curve" smooth="yes"/>
      <point x="1113" y="778"/>
      <point x="1028" y="968"/>
      <point x="860" y="1061" type="curve"/>
      <point x="966" y="1295" type="line"/>
      <point x="893" y="1322" type="line"/>
      <point x="788" y="1092" type="line"/>
      <point x="731" y="1111"/>
      <point x="668" y="1122"/>
      <point x="598" y="1122" type="curve" smooth="yes"/>
      <point x="258" y="1122"/>
      <point x="72" y="872"/>
      <point x="72" y="549" type="curve" smooth="yes"/>
      <point x="72" y="322"/>
      <point x="163" y="133"/>
      <point x="335" y="40" type="curve"/>
      <point x="226" y="-213" type="line"/>
    </contour>
    <contour>
      <point x="406" y="206" type="line"/>
      <point x="323" y="279"/>
      <point x="283" y="405"/>
      <point x="283" y="547" type="curve" smooth="yes"/>
      <point x="283" y="779"/>
      <point x="387" y="963"/>
      <point x="595" y="963" type="curve" smooth="yes"/>
      <point x="643" y="963"/>
      <point x="684" y="955"/>
      <point x="720" y="939" type="curve"/>
    </contour>
    <contour>
      <point x="597" y="138" type="curve" smooth="yes"/>
      <point x="550" y="138"/>
      <point x="508" y="146"/>
      <point x="472" y="163" type="curve"/>
      <point x="787" y="894" type="line"/>
      <point x="867" y="822"/>
      <point x="902" y="695"/>
      <point x="902" y="549" type="curve" smooth="yes"/>
      <point x="902" y="318"/>
      <point x="807" y="138"/>
    </contour>
  </outline>
</glyph>
<glyph name="gcommaaccent" format="1">
  <advance width="1228"/>
  <unicode hex="0123"/>
  <outline>
    <contour>
      <point x="466" y="1231" type="line"/>
      <point x="674" y="1231" type="line"/>
      <point x="784" y="1739" type="line"/>
      <point x="631" y="1739" type="line"/>
    </contour>
    <component base="g"/>
  </outline>
</glyph>
<glyph name="Hbar" format="1">
  <advance width="1477"/>
  <unicode hex="0126"/>
  <outline>
    <contour>
      <point x="139" y="0" type="line"/>
      <point x="362" y="0" type="line"/>
      <point x="362" y="677" type="line"/>
      <point x="1118" y="677" type="line"/>
      <point x="1118" y="0" type="line"/>
      <point x="1341" y="0" type="line"/>
      <point x="1341" y="1162" type="line"/>
      <point x="1429" y="1162" type="line"/>
      <point x="1429" y="1281" type="line"/>
      <point x="1341" y="1281" type="line"/>
      <point x="1341" y="1477" type="line"/>
      <point x="1118" y="1477" type="line"/>
      <point x="1118" y="1281" type="line"/>
      <point x="362" y="1281" type="line"/>
      <point x="362" y="1477" type="line"/>
      <point x="139" y="1477" type="line"/>
      <point x="139" y="1281" type="line"/>
      <point x="51" y="1281" type="line"/>
      <point x="51" y="1162" type="line"/>
      <point x="139" y="1162" type="line"/>
    </contour>
    <contour>
      <point x="362" y="851" type="line"/>
      <point x="362" y="1162" type="line"/>
      <point x="1118" y="1162" type="line"/>
      <point x="1118" y="851" type="line"/>
    </contour>
  </outline>
</glyph>
<glyph name="hbar" format="1">
  <advance width="1151"/>
  <unicode hex="0127"/>
  <outline>
    <contour>
      <point x="110" y="0" type="line"/>
      <point x="322" y="0" type="line"/>
      <point x="322" y="746" type="line"/>
      <point x="360" y="846"/>
      <point x="488" y="953"/>
      <point x="640" y="953" type="curve" smooth="yes"/>
      <point x="807" y="953"/>
      <point x="839" y="851"/>
      <point x="839" y="636" type="curve" smooth="yes"/>
      <point x="839" y="0" type="line"/>
      <point x="1051" y="0" type="line"/>
      <point x="1051" y="666" type="line" smooth="yes"/>
      <point x="1051" y="977"/>
      <point x="918" y="1122"/>
      <point x="698" y="1122" type="curve" smooth="yes"/>
      <point x="541" y="1122"/>
      <point x="414" y="1065"/>
      <point x="322" y="961" type="curve"/>
      <point x="322" y="1247" type="line"/>
      <point x="609" y="1247" type="line"/>
      <point x="609" y="1373" type="line"/>
      <point x="322" y="1373" type="line"/>
      <point x="322" y="1512" type="line"/>
      <point x="110" y="1493" type="line"/>
      <point x="110" y="1373" type="line"/>
      <point x="13" y="1373" type="line"/>
      <point x="13" y="1247" type="line"/>
      <point x="110" y="1247" type="line"/>
    </contour>
  </outline>
</glyph>
<glyph name="dotlessi" format="1">
  <advance width="490"/>
  <unicode hex="0131"/>
  <outline>
    <contour>
      <point x="132" y="0" type="line"/>
      <point x="345" y="0" type="line"/>
      <point x="345" y="1098" type="line"/>
      <point x="132" y="1098" type="line"/>
    </contour>
  </outline>
</glyph>
<glyph name="Lslash" format="1">
  <advance width="986"/>
  <unicode hex="0141"/>
  <outline>
    <contour>
      <point x="139" y="0" type="line"/>
      <point x="987" y="0" type="line"/>
      <point x="1000" y="179" type="line"/>
      <point x="362" y="179" type="line"/>
      <point x="362" y="724" type="line"/>
      <point x="699" y="910" type="line"/>
      <point x="699" y="1081" type="line"/>
      <point x="362" y="893" type="line"/>
      <point x="362" y="1479" type="line"/>
      <point x="139" y="1479" type="line"/>
      <point x="139" y="765" type="line"/>
      <point x="-10" y="680" type="line"/>
      <point x="-10" y="513" type="line"/>
      <point x="139" y="597" type="line"/>
    </contour>
  </outline>
</glyph>
<glyph name="lslash" format="1">
  <advance width="635"/>
  <unicode hex="0142"/>
  <outline>
    <contour>
      <point x="475" y="-18" type="curve" smooth="yes"/>
      <point x="508" y="-18"/>
      <point x="616" y="-8"/>
      <point x="647" y="-5" type="curve"/>
      <point x="631" y="159" type="line"/>
      <point x="601" y="156"/>
      <point x="530" y="150"/>
      <point x="511" y="150" type="curve" smooth="yes"/>
      <point x="361" y="150"/>
      <point x="355" y="218"/>
      <point x="355" y="434" type="curve" smooth="yes"/>
      <point x="355" y="775" type="line"/>
      <point x="521" y="892" type="line"/>
      <point x="521" y="1056" type="line"/>
      <point x="355" y="940" type="line"/>
      <point x="355" y="1512" type="line"/>
      <point x="143" y="1492" type="line"/>
      <point x="143" y="798" type="line"/>
      <point x="31" y="721" type="line"/>
      <point x="31" y="557" type="line"/>
      <point x="143" y="634" type="line"/>
      <point x="143" y="463" type="line" smooth="yes"/>
      <point x="143" y="121"/>
      <point x="182" y="-18"/>
    </contour>
  </outline>
</glyph>
<glyph name="Eng" format="1">
  <advance width="1420"/>
  <unicode hex="014A"/>
  <outline>
    <contour>
      <point x="831" y="-318" type="curve"/>
      <point x="1204" y="-318"/>
      <point x="1289" y="-159"/>
      <point x="1289" y="155" type="curve" smooth="yes"/>
      <point x="1289" y="983" type="line" smooth="yes"/>
      <point x="1289" y="1315"/>
      <point x="1148" y="1504"/>
      <point x="852" y="1504" type="curve" smooth="yes"/>
      <point x="682" y="1504"/>
      <point x="498" y="1444"/>
      <point x="357" y="1284" type="curve"/>
      <point x="334" y="1479" type="line"/>
      <point x="137" y="1479" type="line"/>
      <point x="138" y="0" type="line"/>
      <point x="361" y="0" type="line"/>
      <point x="361" y="1072" type="line"/>
      <point x="454" y="1222"/>
      <point x="633" y="1317"/>
      <point x="804" y="1317" type="curve" smooth="yes"/>
      <point x="999" y="1317"/>
      <point x="1067" y="1225"/>
      <point x="1067" y="973" type="curve" smooth="yes"/>
      <point x="1067" y="155" type="line" smooth="yes"/>
      <point x="1067" y="-73"/>
      <point x="1042" y="-142"/>
      <point x="810" y="-142" type="curve" smooth="yes"/>
      <point x="797" y="-142"/>
      <point x="752" y="-142"/>
      <point x="668" y="-137" type="curve"/>
      <point x="689" y="-310" type="line"/>
      <point x="764" y="-317"/>
      <point x="813" y="-318"/>
    </contour>
  </outline>
</glyph>
<glyph name="eng" format="1">
  <advance width="1154"/>
  <unicode hex="014B"/>
  <outline>
    <contour>
      <point x="624" y="-328" type="line"/>
      <point x="691" y="-328" type="line" smooth="yes"/>
      <point x="1018" y="-328"/>
      <point x="1054" y="-182"/>
      <point x="1054" y="133" type="curve" smooth="yes"/>
      <point x="1054" y="662" type="line" smooth="yes"/>
      <point x="1054" y="955"/>
      <point x="947" y="1127"/>
      <point x="697" y="1129" type="curve" smooth="yes"/>
      <point x="541" y="1130"/>
      <point x="394" y="1054"/>
      <point x="309" y="943" type="curve"/>
      <point x="290" y="1098" type="line"/>
      <point x="111" y="1098" type="line"/>
      <point x="113" y="2" type="line"/>
      <point x="325" y="2" type="line"/>
      <point x="325" y="752" type="line"/>
      <point x="360" y="846"/>
      <point x="485" y="961"/>
      <point x="640" y="961" type="curve" smooth="yes"/>
      <point x="831" y="961"/>
      <point x="842" y="822"/>
      <point x="842" y="587" type="curve" smooth="yes"/>
      <point x="842" y="74" type="line" smooth="yes"/>
      <point x="842" y="-123"/>
      <point x="821" y="-161"/>
      <point x="654" y="-161" type="curve" smooth="yes"/>
      <point x="605" y="-161" type="line"/>
    </contour>
  </outline>
</glyph>
<glyph name="OE" format="1">
  <advance width="2080"/>
  <unicode hex="0152"/>
  <outline>
    <contour>
      <point x="819" y="-21" type="curve" smooth="yes"/>
      <point x="946" y="-21"/>
      <point x="1093" y="30"/>
      <point x="1158" y="84" type="curve"/>
      <point x="1158" y="2" type="line"/>
      <point x="2000" y="2" type="line"/>
      <point x="2016" y="183" type="line"/>
      <point x="1376" y="183" type="line"/>
      <point x="1376" y="676" type="line"/>
      <point x="1939" y="676" type="line"/>
      <point x="1939" y="854" type="line"/>
      <point x="1376" y="854" type="line"/>
      <point x="1376" y="1298" type="line"/>
      <point x="1972" y="1298" type="line"/>
      <point x="1989" y="1478" type="line"/>
      <point x="1158" y="1478" type="line"/>
      <point x="1158" y="1398" type="line"/>
      <point x="1073" y="1463"/>
      <point x="951" y="1506"/>
      <point x="805" y="1506" type="curve" smooth="yes"/>
      <point x="396" y="1506"/>
      <point x="97" y="1190"/>
      <point x="91" y="754" type="curve" smooth="yes"/>
      <point x="91" y="299"/>
      <point x="365" y="-21"/>
    </contour>
    <contour>
      <point x="818" y="159" type="curve" smooth="yes"/>
      <point x="464" y="161"/>
      <point x="317" y="433"/>
      <point x="317" y="754" type="curve" smooth="yes"/>
      <point x="322" y="1070"/>
      <point x="499" y="1327"/>
      <point x="813" y="1327" type="curve" smooth="yes"/>
      <point x="965" y="1327"/>
      <point x="1082" y="1274"/>
      <point x="1158" y="1205" type="curve"/>
      <point x="1158" y="264" type="line"/>
      <point x="1100" y="219"/>
      <point x="963" y="159"/>
    </contour>
  </outline>
</glyph>
<glyph name="oe" format="1">
  <advance width="1898"/>
  <unicode hex="0153"/>
  <outline>
    <contour>
      <point x="591" y="-23" type="curve" smooth="yes"/>
      <point x="782" y="-23"/>
      <point x="920" y="65"/>
      <point x="995" y="193" type="curve"/>
      <point x="1073" y="56"/>
      <point x="1218" y="-23"/>
      <point x="1417" y="-23" type="curve" smooth="yes"/>
      <point x="1596" y="-23"/>
      <point x="1714" y="32"/>
      <point x="1806" y="106" type="curve"/>
      <point x="1743" y="245" type="line"/>
      <point x="1670" y="193"/>
      <point x="1571" y="139"/>
      <point x="1423" y="139" type="curve" smooth="yes"/>
      <point x="1231" y="139"/>
      <point x="1104" y="278"/>
      <point x="1101" y="509" type="curve"/>
      <point x="1826" y="509" type="line"/>
      <point x="1826" y="521"/>
      <point x="1828" y="570"/>
      <point x="1828" y="590" type="curve" smooth="yes"/>
      <point x="1828" y="902"/>
      <point x="1691" y="1122"/>
      <point x="1397" y="1122" type="curve" smooth="yes"/>
      <point x="1220" y="1119"/>
      <point x="1076" y="1041"/>
      <point x="999" y="908" type="curve"/>
      <point x="922" y="1037"/>
      <point x="788" y="1122"/>
      <point x="593" y="1122" type="curve" smooth="yes"/>
      <point x="248" y="1122"/>
      <point x="75" y="867"/>
      <point x="75" y="549" type="curve" smooth="yes"/>
      <point x="75" y="236"/>
      <point x="246" y="-23"/>
    </contour>
    <contour>
      <point x="592" y="135" type="curve" smooth="yes"/>
      <point x="387" y="135"/>
      <point x="286" y="317"/>
      <point x="286" y="547" type="curve" smooth="yes"/>
      <point x="286" y="783"/>
      <point x="387" y="963"/>
      <point x="590" y="963" type="curve" smooth="yes"/>
      <point x="800" y="963"/>
      <point x="897" y="793"/>
      <point x="897" y="549" type="curve" smooth="yes"/>
      <point x="897" y="314"/>
      <point x="795" y="135"/>
    </contour>
    <contour>
      <point x="1106" y="640" type="line"/>
      <point x="1124" y="860"/>
      <point x="1245" y="965"/>
      <point x="1384" y="965" type="curve" smooth="yes"/>
      <point x="1536" y="965"/>
      <point x="1627" y="861"/>
      <point x="1629" y="652" type="curve" smooth="yes"/>
      <point x="1629" y="649"/>
      <point x="1629" y="643"/>
      <point x="1629" y="640" type="curve"/>
    </contour>
  </outline>
</glyph>
<glyph name="uni018F" format="1">
  <advance width="1443"/>
  <unicode hex="018F"/>
  <outline>
    <contour>
      <point x="656" y="-22" type="curve" smooth="yes"/>
      <point x="1056" y="-22"/>
      <point x="1335" y="294"/>
      <point x="1335" y="748" type="curve" smooth="yes"/>
      <point x="1335" y="1170"/>
      <point x="1078" y="1507"/>
      <point x="606" y="1507" type="curve" smooth="yes"/>
      <point x="403" y="1507"/>
      <point x="264" y="1463"/>
      <point x="136" y="1366" type="curve"/>
      <point x="212" y="1209" type="line"/>
      <point x="313" y="1271"/>
      <point x="436" y="1323"/>
      <point x="593" y="1323" type="curve" smooth="yes"/>
      <point x="932" y="1323"/>
      <point x="1090" y="1088"/>
      <point x="1102" y="782" type="curve"/>
      <point x="55" y="782" type="line"/>
      <point x="55" y="773"/>
      <point x="51" y="709"/>
      <point x="52" y="672" type="curve" smooth="yes"/>
      <point x="67" y="278"/>
      <point x="252" y="-22"/>
    </contour>
    <contour>
      <point x="664" y="160" type="curve" smooth="yes"/>
      <point x="373" y="160"/>
      <point x="283" y="390"/>
      <point x="267" y="613" type="curve"/>
      <point x="1093" y="613" type="line"/>
      <point x="1058" y="356"/>
      <point x="911" y="160"/>
    </contour>
  </outline>
</glyph>
<glyph name="florin" format="1">
  <advance width="1017"/>
  <unicode hex="0192"/>
  <outline>
    <contour>
      <point x="138" y="-347" type="curve" smooth="yes"/>
      <point x="391" y="-347"/>
      <point x="454" y="-106"/>
      <point x="499" y="129" type="curve" smooth="yes"/>
      <point x="630" y="824" type="line"/>
      <point x="835" y="824" type="line"/>
      <point x="848" y="991" type="line"/>
      <point x="658" y="991" type="line"/>
      <point x="693" y="1181" type="line" smooth="yes"/>
      <point x="710" y="1281"/>
      <point x="741" y="1333"/>
      <point x="842" y="1333" type="curve" smooth="yes"/>
      <point x="873" y="1333"/>
      <point x="930" y="1314"/>
      <point x="953" y="1304" type="curve"/>
      <point x="963" y="1483" type="line"/>
      <point x="936" y="1490"/>
      <point x="863" y="1506"/>
      <point x="818" y="1506" type="curve" smooth="yes"/>
      <point x="587" y="1506"/>
      <point x="504" y="1331"/>
      <point x="476" y="1137" type="curve" smooth="yes"/>
      <point x="456" y="991" type="line"/>
      <point x="280" y="991" type="line"/>
      <point x="268" y="825" type="line"/>
      <point x="425" y="825" type="line"/>
      <point x="374" y="559"/>
      <point x="333" y="276"/>
      <point x="270" y="19" type="curve" smooth="yes"/>
      <point x="246" y="-87"/>
      <point x="211" y="-179"/>
      <point x="127" y="-179" type="curve" smooth="yes"/>
      <point x="108" y="-179"/>
      <point x="61" y="-164"/>
      <point x="45" y="-158" type="curve"/>
      <point x="31" y="-326" type="line"/>
      <point x="53" y="-333"/>
      <point x="110" y="-347"/>
    </contour>
  </outline>
</glyph>
<glyph name="uni0237" format="1">
  <advance width="486"/>
  <unicode hex="0237"/>
  <outline>
    <contour>
      <point x="-46" y="-432" type="line"/>
      <point x="0" y="-432" type="line" smooth="yes"/>
      <point x="304" y="-432"/>
      <point x="371" y="-310"/>
      <point x="371" y="-18" type="curve" smooth="yes"/>
      <point x="371" y="1093" type="line"/>
      <point x="168" y="1093" type="line"/>
      <point x="168" y="-32" type="line" smooth="yes"/>
      <point x="168" y="-198"/>
      <point x="157" y="-257"/>
      <point x="-16" y="-257" type="curve" smooth="yes"/>
      <point x="-60" y="-257" type="line"/>
    </contour>
  </outline>
</glyph>
<glyph name="uni0259" format="1">
  <advance width="1103"/>
  <unicode hex="0259"/>
  <outline>
    <contour>
      <point x="526" y="-23" type="curve" smooth="yes"/>
      <point x="654" y="-23"/>
      <point x="1033" y="226"/>
      <point x="1033" y="553" type="curve" smooth="yes"/>
      <point x="1033" y="906"/>
      <point x="837" y="1129"/>
      <point x="501" y="1129" type="curve" smooth="yes"/>
      <point x="323" y="1129"/>
      <point x="190" y="1075"/>
      <point x="98" y="1000" type="curve"/>
      <point x="160" y="856" type="line"/>
      <point x="233" y="908"/>
      <point x="347" y="962"/>
      <point x="495" y="962" type="curve" smooth="yes"/>
      <point x="687" y="962"/>
      <point x="818" y="829"/>
      <point x="820" y="597" type="curve"/>
      <point x="78" y="597" type="line"/>
      <point x="78" y="575"/>
      <point x="76" y="536"/>
      <point x="76" y="516" type="curve" smooth="yes"/>
      <point x="76" y="204"/>
      <point x="232" y="-23"/>
    </contour>
    <contour>
      <point x="531" y="140" type="curve" smooth="yes"/>
      <point x="377" y="140"/>
      <point x="275" y="253"/>
      <point x="275" y="467" type="curve"/>
      <point x="815" y="467" type="line"/>
      <point x="798" y="248"/>
      <point x="670" y="140"/>
    </contour>
  </outline>
</glyph>
<glyph name="afii57929" format="1">
  <advance width="444"/>
  <unicode hex="02BC"/>
  <outline>
    <contour>
      <point x="121" y="1039" type="line"/>
      <point x="250" y="1039" type="line"/>
      <point x="344" y="1528" type="line"/>
      <point x="164" y="1528" type="line"/>
    </contour>
  </outline>
</glyph>
<glyph name="circumflex" format="1">
  <advance width="787"/>
  <unicode hex="02C6"/>
  <outline>
    <contour>
      <point x="77" y="1206" type="line"/>
      <point x="232" y="1206" type="line"/>
      <point x="399" y="1451" type="line"/>
      <point x="566" y="1206" type="line"/>
      <point x="726" y="1206" type="line"/>
      <point x="506" y="1592" type="line"/>
      <point x="296" y="1592" type="line"/>
    </contour>
  </outline>
</glyph>
<glyph name="caron" format="1">
  <advance width="786"/>
  <unicode hex="02C7"/>
  <outline>
    <contour>
      <point x="298" y="1222" type="line"/>
      <point x="506" y="1222" type="line"/>
      <point x="731" y="1592" type="line"/>
      <point x="562" y="1592" type="line"/>
      <point x="399" y="1338" type="line"/>
      <point x="239" y="1592" type="line"/>
      <point x="73" y="1592" type="line"/>
    </contour>
  </outline>
</glyph>
<glyph name="breve" format="1">
  <advance width="731"/>
  <unicode hex="02D8"/>
  <outline>
    <contour>
      <point x="364" y="1263" type="curve" smooth="yes"/>
      <point x="511" y="1263"/>
      <point x="636" y="1346"/>
      <point x="636" y="1518" type="curve"/>
      <point x="494" y="1518" type="line"/>
      <point x="494" y="1437"/>
      <point x="444" y="1400"/>
      <point x="364" y="1400" type="curve" smooth="yes"/>
      <point x="284" y="1400"/>
      <point x="236" y="1437"/>
      <point x="236" y="1518" type="curve"/>
      <point x="94" y="1518" type="line"/>
      <point x="94" y="1346"/>
      <point x="218" y="1263"/>
    </contour>
  </outline>
</glyph>
<glyph name="dotaccent" format="1">
  <advance width="476"/>
  <unicode hex="02D9"/>
  <outline>
    <contour>
      <point x="140" y="1273" type="line"/>
      <point x="325" y="1273" type="line"/>
      <point x="325" y="1480" type="line"/>
      <point x="140" y="1480" type="line"/>
    </contour>
  </outline>
</glyph>
<glyph name="ring" format="1">
  <advance width="648"/>
  <unicode hex="02DA"/>
  <outline>
    <contour>
      <point x="325" y="1289" type="curve" smooth="yes"/>
      <point x="259" y="1289"/>
      <point x="222" y="1338"/>
      <point x="222" y="1401" type="curve" smooth="yes"/>
      <point x="222" y="1460"/>
      <point x="266" y="1515"/>
      <point x="325" y="1515" type="curve" smooth="yes"/>
      <point x="387" y="1515"/>
      <point x="426" y="1460"/>
      <point x="426" y="1401" type="curve" smooth="yes"/>
      <point x="426" y="1342"/>
      <point x="385" y="1289"/>
    </contour>
    <contour>
      <point x="326" y="1207" type="curve" smooth="yes"/>
      <point x="445" y="1207"/>
      <point x="532" y="1290"/>
      <point x="532" y="1401" type="curve" smooth="yes"/>
      <point x="532" y="1510"/>
      <point x="448" y="1601"/>
      <point x="325" y="1601" type="curve" smooth="yes"/>
      <point x="204" y="1601"/>
      <point x="117" y="1514"/>
      <point x="117" y="1401" type="curve" smooth="yes"/>
      <point x="117" y="1290"/>
      <point x="204" y="1207"/>
    </contour>
  </outline>
</glyph>
<glyph name="ogonek" format="1">
  <advance width="583"/>
  <unicode hex="02DB"/>
  <outline>
    <contour>
      <point x="316" y="-405" type="curve" smooth="yes"/>
      <point x="375" y="-405"/>
      <point x="442" y="-390"/>
      <point x="491" y="-371" type="curve"/>
      <point x="491" y="-242" type="line"/>
      <point x="459" y="-255"/>
      <point x="409" y="-277"/>
      <point x="351" y="-277" type="curve" smooth="yes"/>
      <point x="305" y="-277"/>
      <point x="266" y="-236"/>
      <point x="266" y="-189" type="curve" smooth="yes"/>
      <point x="266" y="-123"/>
      <point x="323" y="-51"/>
      <point x="418" y="20" type="curve"/>
      <point x="307" y="20" type="line"/>
      <point x="219" y="-31"/>
      <point x="116" y="-112"/>
      <point x="116" y="-231" type="curve" smooth="yes"/>
      <point x="116" y="-347"/>
      <point x="205" y="-405"/>
    </contour>
  </outline>
</glyph>
<glyph name="tilde" format="1">
  <advance width="835"/>
  <unicode hex="02DC"/>
  <outline>
    <contour>
      <point x="80" y="1260" type="curve"/>
      <point x="206" y="1260" type="line"/>
      <point x="207" y="1318"/>
      <point x="225" y="1353"/>
      <point x="258" y="1353" type="curve" smooth="yes"/>
      <point x="293" y="1353"/>
      <point x="478" y="1260"/>
      <point x="578" y="1260" type="curve" smooth="yes"/>
      <point x="709" y="1260"/>
      <point x="735" y="1373"/>
      <point x="735" y="1489" type="curve"/>
      <point x="607" y="1489" type="line"/>
      <point x="605" y="1442"/>
      <point x="597" y="1402"/>
      <point x="560" y="1400" type="curve" smooth="yes"/>
      <point x="539" y="1400"/>
      <point x="380" y="1489"/>
      <point x="252" y="1489" type="curve" smooth="yes"/>
      <point x="120" y="1489"/>
      <point x="80" y="1386"/>
    </contour>
  </outline>
</glyph>
<glyph name="hungarumlaut" format="1">
  <advance width="901"/>
  <unicode hex="02DD"/>
  <outline>
    <contour>
      <point x="139" y="1206" type="line"/>
      <point x="256" y="1206" type="line"/>
      <point x="552" y="1554" type="line"/>
      <point x="362" y="1554" type="line"/>
    </contour>
    <contour>
      <point x="412" y="1206" type="line"/>
      <point x="530" y="1206" type="line"/>
      <point x="825" y="1554" type="line"/>
      <point x="637" y="1554" type="line"/>
    </contour>
  </outline>
</glyph>
<glyph name="uni0307" format="1">
  <advance width="464"/>
  <unicode hex="0307"/>
  <outline>
    <contour>
      <point x="140" y="1259" type="line"/>
      <point x="325" y="1259" type="line"/>
      <point x="325" y="1467" type="line"/>
      <point x="140" y="1467" type="line"/>
    </contour>
  </outline>
</glyph>
<glyph name="uni030F" format="1">
  <advance width="920"/>
  <unicode hex="030F"/>
  <outline>
    <contour>
      <point x="337" y="1227" type="line"/>
      <point x="474" y="1227" type="line"/>
      <point x="267" y="1564" type="line"/>
      <point x="54" y="1564" type="line"/>
    </contour>
    <contour>
      <point x="654" y="1227" type="line"/>
      <point x="800" y="1227" type="line"/>
      <point x="587" y="1564" type="line"/>
      <point x="382" y="1564" type="line"/>
    </contour>
  </outline>
</glyph>
<glyph name="uni0311" format="1">
  <advance width="739"/>
  <unicode hex="0311"/>
  <outline>
    <contour>
      <point x="98" y="1263" type="curve"/>
      <point x="240" y="1263" type="line"/>
      <point x="240" y="1347"/>
      <point x="300" y="1387"/>
      <point x="367" y="1387" type="curve" smooth="yes"/>
      <point x="434" y="1387"/>
      <point x="498" y="1348"/>
      <point x="498" y="1263" type="curve"/>
      <point x="640" y="1263" type="line"/>
      <point x="640" y="1430"/>
      <point x="504" y="1512"/>
      <point x="369" y="1512" type="curve" smooth="yes"/>
      <point x="234" y="1512"/>
      <point x="98" y="1429"/>
    </contour>
  </outline>
</glyph>
<glyph name="uni0326" format="1">
  <advance width="558"/>
  <unicode hex="0326"/>
  <outline>
    <contour>
      <point x="115" y="-673" type="line"/>
      <point x="257" y="-673" type="line"/>
      <point x="412" y="-166" type="line"/>
      <point x="217" y="-166" type="line"/>
    </contour>
  </outline>
</glyph>
<glyph name="Delta" format="1">
  <advance width="1265"/>
  <unicode hex="0394"/>
  <outline>
    <contour>
      <point x="-10" y="0" type="line"/>
      <point x="1275" y="0" type="line"/>
      <point x="738" y="1499" type="line"/>
      <point x="528" y="1499" type="line"/>
    </contour>
    <contour>
      <point x="254" y="172" type="line"/>
      <point x="632" y="1293" type="line"/>
      <point x="1017" y="172" type="line"/>
    </contour>
  </outline>
</glyph>
<glyph name="pi" format="1">
  <advance width="1438"/>
  <unicode hex="03C0"/>
  <outline>
    <contour>
      <point x="1157" y="-8" type="curve" smooth="yes"/>
      <point x="1197" y="-8"/>
      <point x="1237" y="-2"/>
      <point x="1282" y="6" type="curve"/>
      <point x="1282" y="6"/>
      <point x="1288" y="170"/>
      <point x="1289" y="195" type="curve"/>
      <point x="1259" y="185"/>
      <point x="1225" y="176"/>
      <point x="1199" y="176" type="curve" smooth="yes"/>
      <point x="1124" y="176"/>
      <point x="1120" y="244"/>
      <point x="1120" y="317" type="curve" smooth="yes"/>
      <point x="1120" y="951" type="line"/>
      <point x="1309" y="951" type="line"/>
      <point x="1309" y="1114" type="line"/>
      <point x="447" y="1114" type="line" smooth="yes"/>
      <point x="282" y="1114"/>
      <point x="183" y="1104"/>
      <point x="108" y="1043" type="curve"/>
      <point x="129" y="884" type="line"/>
      <point x="199" y="927"/>
      <point x="269" y="950"/>
      <point x="382" y="955" type="curve"/>
      <point x="377" y="761"/>
      <point x="342" y="203"/>
      <point x="245" y="0" type="curve"/>
      <point x="427" y="0" type="line"/>
      <point x="520" y="176"/>
      <point x="553" y="579"/>
      <point x="568" y="952" type="curve"/>
      <point x="948" y="952" type="line"/>
      <point x="947" y="306" type="line" smooth="yes"/>
      <point x="947" y="102"/>
      <point x="990" y="-8"/>
    </contour>
  </outline>
</glyph>
<glyph name="afii10053" format="1">
  <advance width="1361"/>
  <unicode hex="0404"/>
  <outline>
    <contour>
      <point x="795" y="-21" type="curve" smooth="yes"/>
      <point x="974" y="-21"/>
      <point x="1128" y="28"/>
      <point x="1255" y="114" type="curve"/>
      <point x="1181" y="279" type="line"/>
      <point x="1085" y="211"/>
      <point x="950" y="159"/>
      <point x="810" y="159" type="curve" smooth="yes"/>
      <point x="525" y="159"/>
      <point x="348" y="365"/>
      <point x="315" y="655" type="curve"/>
      <point x="996" y="655" type="line"/>
      <point x="996" y="834" type="line"/>
      <point x="316" y="834" type="line"/>
      <point x="347" y="1107"/>
      <point x="506" y="1327"/>
      <point x="816" y="1327" type="curve" smooth="yes"/>
      <point x="955" y="1327"/>
      <point x="1085" y="1274"/>
      <point x="1182" y="1201" type="curve"/>
      <point x="1252" y="1373" type="line"/>
      <point x="1132" y="1464"/>
      <point x="979" y="1507"/>
      <point x="802" y="1507" type="curve" smooth="yes"/>
      <point x="367" y="1507"/>
      <point x="86" y="1185"/>
      <point x="86" y="748" type="curve" smooth="yes"/>
      <point x="86" y="301"/>
      <point x="364" y="-21"/>
    </contour>
  </outline>
</glyph>
<glyph name="afii10058" format="1">
  <advance width="1851"/>
  <unicode hex="0409"/>
  <outline>
    <contour>
      <point x="53" y="-23" type="line"/>
      <point x="94" y="-23" type="line" smooth="yes"/>
      <point x="457" y="-23"/>
      <point x="520" y="122"/>
      <point x="520" y="436" type="curve"/>
      <point x="513" y="1296" type="line"/>
      <point x="859" y="1296" type="line"/>
      <point x="875" y="2" type="line"/>
      <point x="1290" y="2" type="line" smooth="yes"/>
      <point x="1601" y="2"/>
      <point x="1818" y="135"/>
      <point x="1818" y="433" type="curve" smooth="yes"/>
      <point x="1818" y="749"/>
      <point x="1587" y="875"/>
      <point x="1288" y="875" type="curve" smooth="yes"/>
      <point x="1070" y="875" type="line"/>
      <point x="1070" y="1475" type="line"/>
      <point x="301" y="1475" type="line"/>
      <point x="302" y="388" type="line" smooth="yes"/>
      <point x="302" y="237"/>
      <point x="285" y="154"/>
      <point x="113" y="152" type="curve" smooth="yes"/>
      <point x="53" y="152" type="line"/>
    </contour>
    <contour>
      <point x="1080" y="185" type="line"/>
      <point x="1080" y="696" type="line"/>
      <point x="1298" y="696" type="line" smooth="yes"/>
      <point x="1485" y="696"/>
      <point x="1613" y="604"/>
      <point x="1613" y="438" type="curve" smooth="yes"/>
      <point x="1613" y="271"/>
      <point x="1484" y="185"/>
      <point x="1298" y="185" type="curve" smooth="yes"/>
    </contour>
  </outline>
</glyph>
<glyph name="afii10018" format="1">
  <advance width="1247"/>
  <unicode hex="0411"/>
  <outline>
    <contour>
      <point x="139" y="0" type="line"/>
      <point x="653" y="0" type="line" smooth="yes"/>
      <point x="952" y="0"/>
      <point x="1168" y="132"/>
      <point x="1168" y="429" type="curve" smooth="yes"/>
      <point x="1168" y="743"/>
      <point x="953" y="869"/>
      <point x="666" y="869" type="curve" smooth="yes"/>
      <point x="362" y="869" type="line"/>
      <point x="362" y="1297" type="line"/>
      <point x="1077" y="1297" type="line"/>
      <point x="1077" y="1477" type="line"/>
      <point x="139" y="1477" type="line"/>
    </contour>
    <contour>
      <point x="362" y="179" type="line"/>
      <point x="362" y="690" type="line"/>
      <point x="660" y="690" type="line" smooth="yes"/>
      <point x="842" y="690"/>
      <point x="945" y="597"/>
      <point x="945" y="431" type="curve" smooth="yes"/>
      <point x="945" y="264"/>
      <point x="840" y="179"/>
      <point x="661" y="179" type="curve" smooth="yes"/>
    </contour>
  </outline>
</glyph>
<glyph name="afii10020" format="1">
  <advance width="1235"/>
  <unicode hex="0413"/>
  <outline>
    <contour>
      <point x="138" y="0" type="line"/>
      <point x="361" y="0" type="line"/>
      <point x="361" y="1297" type="line"/>
      <point x="1026" y="1297" type="line"/>
      <point x="1044" y="1477" type="line"/>
      <point x="138" y="1477" type="line"/>
    </contour>
  </outline>
</glyph>
<glyph name="afii10025" format="1">
  <advance width="1200"/>
  <unicode hex="0417"/>
  <outline>
    <contour>
      <point x="581" y="-21" type="curve" smooth="yes"/>
      <point x="945" y="-21"/>
      <point x="1122" y="148"/>
      <point x="1122" y="407" type="curve" smooth="yes"/>
      <point x="1122" y="572"/>
      <point x="1012" y="715"/>
      <point x="878" y="760" type="curve"/>
      <point x="995" y="803"/>
      <point x="1087" y="924"/>
      <point x="1087" y="1115" type="curve" smooth="yes"/>
      <point x="1087" y="1308"/>
      <point x="895" y="1507"/>
      <point x="602" y="1507" type="curve" smooth="yes"/>
      <point x="416" y="1507"/>
      <point x="263" y="1469"/>
      <point x="147" y="1377" type="curve"/>
      <point x="229" y="1221" type="line"/>
      <point x="316" y="1277"/>
      <point x="445" y="1323"/>
      <point x="593" y="1323" type="curve" smooth="yes"/>
      <point x="752" y="1323"/>
      <point x="870" y="1226"/>
      <point x="876" y="1088" type="curve" smooth="yes"/>
      <point x="876" y="1029"/>
      <point x="776" y="845"/>
      <point x="598" y="845" type="curve" smooth="yes"/>
      <point x="438" y="845" type="line"/>
      <point x="438" y="661" type="line"/>
      <point x="592" y="661" type="line" smooth="yes"/>
      <point x="794" y="661"/>
      <point x="916" y="546"/>
      <point x="916" y="413" type="curve" smooth="yes"/>
      <point x="916" y="247"/>
      <point x="797" y="160"/>
      <point x="581" y="160" type="curve" smooth="yes"/>
      <point x="421" y="160"/>
      <point x="276" y="219"/>
      <point x="187" y="280" type="curve"/>
      <point x="174" y="255"/>
      <point x="123" y="140"/>
      <point x="108" y="116" type="curve"/>
      <point x="207" y="34"/>
      <point x="383" y="-21"/>
    </contour>
  </outline>
</glyph>
<glyph name="afii10026" format="1">
  <advance width="1481"/>
  <unicode hex="0418"/>
  <outline>
    <contour>
      <point x="139" y="0" type="line"/>
      <point x="356" y="0" type="line"/>
      <point x="1142" y="1094" type="line"/>
      <point x="1142" y="0" type="line"/>
      <point x="1346" y="0" type="line"/>
      <point x="1346" y="1477" type="line"/>
      <point x="1130" y="1477" type="line"/>
      <point x="1122" y="1465"/>
      <point x="1107" y="1405"/>
      <point x="1099" y="1393" type="curve"/>
      <point x="934" y="1150"/>
      <point x="505" y="587"/>
      <point x="344" y="341" type="curve"/>
      <point x="344" y="1477" type="line"/>
      <point x="139" y="1477" type="line"/>
    </contour>
  </outline>
</glyph>
<glyph name="afii10033" format="1">
  <advance width="1459"/>
  <unicode hex="041F"/>
  <outline>
    <contour>
      <point x="139" y="0" type="line"/>
      <point x="362" y="0" type="line"/>
      <point x="362" y="1301" type="line"/>
      <point x="1101" y="1301" type="line"/>
      <point x="1101" y="0" type="line"/>
      <point x="1324" y="0" type="line"/>
      <point x="1324" y="1477" type="line"/>
      <point x="139" y="1477" type="line"/>
    </contour>
  </outline>
</glyph>
<glyph name="afii10038" format="1">
  <advance width="1770"/>
  <unicode hex="0424"/>
  <outline>
    <contour>
      <point x="777" y="0" type="line"/>
      <point x="987" y="0" type="line"/>
      <point x="987" y="144" type="line"/>
      <point x="1404" y="162"/>
      <point x="1681" y="389"/>
      <point x="1681" y="750" type="curve" smooth="yes"/>
      <point x="1681" y="1105"/>
      <point x="1404" y="1329"/>
      <point x="987" y="1346" type="curve"/>
      <point x="987" y="1477" type="line"/>
      <point x="777" y="1477" type="line"/>
      <point x="776" y="1345" type="line"/>
      <point x="355" y="1322"/>
      <point x="91" y="1093"/>
      <point x="91" y="750" type="curve" smooth="yes"/>
      <point x="91" y="402"/>
      <point x="355" y="168"/>
      <point x="776" y="145" type="curve"/>
    </contour>
    <contour>
      <point x="776" y="328" type="line"/>
      <point x="466" y="349"/>
      <point x="317" y="520"/>
      <point x="317" y="748" type="curve" smooth="yes"/>
      <point x="317" y="970"/>
      <point x="466" y="1141"/>
      <point x="776" y="1162" type="curve"/>
    </contour>
    <contour>
      <point x="987" y="327" type="curve"/>
      <point x="987" y="1163" type="line"/>
      <point x="1306" y="1143"/>
      <point x="1455" y="971"/>
      <point x="1455" y="748" type="curve" smooth="yes"/>
      <point x="1455" y="520"/>
      <point x="1306" y="347"/>
    </contour>
  </outline>
</glyph>
<glyph name="afii10040" format="1">
  <advance width="1516"/>
  <unicode hex="0426"/>
  <outline>
    <contour>
      <point x="1265" y="-303" type="line"/>
      <point x="1471" y="-303" type="line"/>
      <point x="1471" y="129" type="line"/>
      <point x="1340" y="129" type="line"/>
      <point x="1340" y="1477" type="line"/>
      <point x="1116" y="1477" type="line"/>
      <point x="1116" y="176" type="line"/>
      <point x="362" y="176" type="line"/>
      <point x="362" y="1477" type="line"/>
      <point x="139" y="1477" type="line"/>
      <point x="139" y="0" type="line"/>
      <point x="1265" y="0" type="line"/>
    </contour>
  </outline>
</glyph>
<glyph name="afii10041" format="1">
  <advance width="1528"/>
  <unicode hex="0427"/>
  <outline>
    <contour>
      <point x="995" y="6" type="line"/>
      <point x="1205" y="6" type="line"/>
      <point x="1205" y="1475" type="line"/>
      <point x="995" y="1475" type="line"/>
      <point x="995" y="843" type="line"/>
      <point x="995" y="801"/>
      <point x="756" y="719"/>
      <point x="667" y="719" type="curve" smooth="yes"/>
      <point x="454" y="719"/>
      <point x="352" y="791"/>
      <point x="352" y="1012" type="curve" smooth="yes"/>
      <point x="352" y="1475" type="line"/>
      <point x="150" y="1475" type="line"/>
      <point x="150" y="951" type="line" smooth="yes"/>
      <point x="150" y="638"/>
      <point x="360" y="533"/>
      <point x="664" y="533" type="curve" smooth="yes"/>
      <point x="750" y="533"/>
      <point x="945" y="569"/>
      <point x="995" y="641" type="curve"/>
    </contour>
  </outline>
</glyph>
<glyph name="afii10042" format="1">
  <advance width="1754"/>
  <unicode hex="0428"/>
  <outline>
    <contour>
      <point x="139" y="0" type="line"/>
      <point x="1618" y="0" type="line"/>
      <point x="1618" y="1477" type="line"/>
      <point x="1395" y="1477" type="line"/>
      <point x="1395" y="176" type="line"/>
      <point x="998" y="176" type="line"/>
      <point x="998" y="1477" type="line"/>
      <point x="775" y="1477" type="line"/>
      <point x="775" y="176" type="line"/>
      <point x="362" y="176" type="line"/>
      <point x="362" y="1477" type="line"/>
      <point x="139" y="1477" type="line"/>
    </contour>
  </outline>
</glyph>
<glyph name="afii10043" format="1">
  <advance width="1816"/>
  <unicode hex="0429"/>
  <outline>
    <contour>
      <point x="1542" y="-303" type="line"/>
      <point x="1749" y="-303" type="line"/>
      <point x="1749" y="129" type="line"/>
      <point x="1619" y="129" type="line"/>
      <point x="1619" y="1477" type="line"/>
      <point x="1396" y="1477" type="line"/>
      <point x="1396" y="176" type="line"/>
      <point x="999" y="176" type="line"/>
      <point x="999" y="1477" type="line"/>
      <point x="776" y="1477" type="line"/>
      <point x="776" y="176" type="line"/>
      <point x="362" y="176" type="line"/>
      <point x="362" y="1477" type="line"/>
      <point x="139" y="1477" type="line"/>
      <point x="139" y="0" type="line"/>
      <point x="1541" y="0" type="line"/>
    </contour>
  </outline>
</glyph>
<glyph name="afii10044" format="1">
  <advance width="1487"/>
  <unicode hex="042A"/>
  <outline>
    <contour>
      <point x="403" y="6" type="line"/>
      <point x="856" y="6" type="line" smooth="yes"/>
      <point x="1218" y="6"/>
      <point x="1408" y="152"/>
      <point x="1408" y="456" type="curve" smooth="yes"/>
      <point x="1408" y="761"/>
      <point x="1181" y="891"/>
      <point x="850" y="891" type="curve" smooth="yes"/>
      <point x="612" y="891" type="line"/>
      <point x="612" y="1475" type="line"/>
      <point x="39" y="1475" type="line"/>
      <point x="39" y="1296" type="line"/>
      <point x="403" y="1296" type="line"/>
    </contour>
    <contour>
      <point x="612" y="185" type="line"/>
      <point x="612" y="714" type="line"/>
      <point x="872" y="714" type="line" smooth="yes"/>
      <point x="1101" y="714"/>
      <point x="1214" y="612"/>
      <point x="1214" y="453" type="curve" smooth="yes"/>
      <point x="1214" y="285"/>
      <point x="1108" y="185"/>
      <point x="876" y="185" type="curve" smooth="yes"/>
    </contour>
  </outline>
</glyph>
<glyph name="afii10046" format="1">
  <advance width="1219"/>
  <unicode hex="042C"/>
  <outline>
    <contour>
      <point x="163" y="6" type="line"/>
      <point x="569" y="6" type="line" smooth="yes"/>
      <point x="924" y="6"/>
      <point x="1129" y="175"/>
      <point x="1129" y="455" type="curve" smooth="yes"/>
      <point x="1129" y="741"/>
      <point x="899" y="891"/>
      <point x="563" y="891" type="curve" smooth="yes"/>
      <point x="368" y="891" type="line"/>
      <point x="368" y="1475" type="line"/>
      <point x="163" y="1475" type="line"/>
    </contour>
    <contour>
      <point x="368" y="184" type="line"/>
      <point x="368" y="714" type="line"/>
      <point x="583" y="714" type="line" smooth="yes"/>
      <point x="821" y="714"/>
      <point x="933" y="616"/>
      <point x="933" y="453" type="curve" smooth="yes"/>
      <point x="933" y="285"/>
      <point x="820" y="184"/>
      <point x="588" y="184" type="curve" smooth="yes"/>
    </contour>
  </outline>
</glyph>
<glyph name="afii10047" format="1">
  <advance width="1361"/>
  <unicode hex="042D"/>
  <outline>
    <contour>
      <point x="546" y="-21" type="curve" smooth="yes"/>
      <point x="978" y="-21"/>
      <point x="1255" y="301"/>
      <point x="1255" y="748" type="curve" smooth="yes"/>
      <point x="1255" y="1185"/>
      <point x="977" y="1507"/>
      <point x="546" y="1507" type="curve" smooth="yes"/>
      <point x="366" y="1507"/>
      <point x="210" y="1464"/>
      <point x="89" y="1373" type="curve"/>
      <point x="160" y="1201" type="line"/>
      <point x="256" y="1274"/>
      <point x="387" y="1327"/>
      <point x="526" y="1327" type="curve" smooth="yes"/>
      <point x="836" y="1327"/>
      <point x="994" y="1107"/>
      <point x="1025" y="834" type="curve"/>
      <point x="345" y="834" type="line"/>
      <point x="345" y="655" type="line"/>
      <point x="1026" y="655" type="line"/>
      <point x="994" y="365"/>
      <point x="816" y="159"/>
      <point x="532" y="159" type="curve" smooth="yes"/>
      <point x="392" y="159"/>
      <point x="256" y="211"/>
      <point x="161" y="279" type="curve"/>
      <point x="87" y="114" type="line"/>
      <point x="214" y="28"/>
      <point x="368" y="-21"/>
    </contour>
  </outline>
</glyph>
<glyph name="afii10048" format="1">
  <advance width="1857"/>
  <unicode hex="042E"/>
  <outline>
    <contour>
      <point x="1305" y="-21" type="curve" smooth="yes"/>
      <point x="1730" y="-21"/>
      <point x="1959" y="318"/>
      <point x="1959" y="736" type="curve" smooth="yes"/>
      <point x="1959" y="1172"/>
      <point x="1725" y="1507"/>
      <point x="1300" y="1507" type="curve" smooth="yes"/>
      <point x="911" y="1507"/>
      <point x="688" y="1227"/>
      <point x="651" y="844" type="curve"/>
      <point x="368" y="844" type="line"/>
      <point x="368" y="1474" type="line"/>
      <point x="163" y="1474" type="line"/>
      <point x="163" y="6" type="line"/>
      <point x="368" y="6" type="line"/>
      <point x="368" y="670" type="line"/>
      <point x="647" y="670" type="line"/>
      <point x="678" y="288"/>
      <point x="904" y="-21"/>
    </contour>
    <contour>
      <point x="1306" y="159" type="curve" smooth="yes"/>
      <point x="1010" y="159"/>
      <point x="870" y="540"/>
      <point x="870" y="742" type="curve"/>
      <point x="870" y="1052"/>
      <point x="1005" y="1327"/>
      <point x="1301" y="1327" type="curve" smooth="yes"/>
      <point x="1602" y="1327"/>
      <point x="1740" y="1048"/>
      <point x="1740" y="743" type="curve" smooth="yes"/>
      <point x="1740" y="427"/>
      <point x="1603" y="159"/>
    </contour>
  </outline>
</glyph>
<glyph name="afii10049" format="1">
  <advance width="1312"/>
  <unicode hex="042F"/>
  <outline>
    <contour>
      <point x="19" y="0" type="curve"/>
      <point x="265" y="0" type="line"/>
      <point x="448" y="381" type="line" smooth="yes"/>
      <point x="462" y="411"/>
      <point x="570" y="628"/>
      <point x="570" y="628" type="curve"/>
      <point x="599" y="627"/>
      <point x="645" y="623"/>
      <point x="755" y="623" type="curve" smooth="yes"/>
      <point x="951" y="623" type="line"/>
      <point x="951" y="0" type="line"/>
      <point x="1175" y="0" type="line"/>
      <point x="1175" y="1477" type="line"/>
      <point x="658" y="1477" type="line" smooth="yes"/>
      <point x="299" y="1477"/>
      <point x="92" y="1366"/>
      <point x="92" y="1059" type="curve" smooth="yes"/>
      <point x="92" y="863"/>
      <point x="192" y="733"/>
      <point x="360" y="670" type="curve"/>
      <point x="336" y="642"/>
      <point x="293" y="554"/>
      <point x="237" y="442" type="curve" smooth="yes"/>
      <point x="187" y="344"/>
      <point x="47" y="60"/>
    </contour>
    <contour>
      <point x="630" y="798" type="line"/>
      <point x="383" y="798"/>
      <point x="303" y="891"/>
      <point x="303" y="1056" type="curve" smooth="yes"/>
      <point x="303" y="1218"/>
      <point x="404" y="1298"/>
      <point x="627" y="1298" type="curve" smooth="yes"/>
      <point x="951" y="1298" type="line"/>
      <point x="951" y="798" type="line"/>
    </contour>
  </outline>
</glyph>
<glyph name="afii10066" format="1">
  <advance width="1052"/>
  <unicode hex="0431"/>
  <outline>
    <contour>
      <point x="111" y="0" type="line"/>
      <point x="601" y="0" type="line" smooth="yes"/>
      <point x="851" y="0"/>
      <point x="987" y="168"/>
      <point x="987" y="365" type="curve" smooth="yes"/>
      <point x="987" y="569"/>
      <point x="836" y="712"/>
      <point x="594" y="712" type="curve" smooth="yes"/>
      <point x="322" y="712" type="line"/>
      <point x="322" y="931" type="line"/>
      <point x="877" y="931" type="line"/>
      <point x="877" y="1098" type="line"/>
      <point x="111" y="1098" type="line"/>
    </contour>
    <contour>
      <point x="323" y="160" type="line"/>
      <point x="323" y="553" type="line"/>
      <point x="599" y="553" type="line" smooth="yes"/>
      <point x="722" y="553"/>
      <point x="791" y="458"/>
      <point x="791" y="368" type="curve" smooth="yes"/>
      <point x="791" y="274"/>
      <point x="721" y="160"/>
      <point x="601" y="160" type="curve" smooth="yes"/>
    </contour>
  </outline>
</glyph>
<glyph name="afii10067" format="1">
  <advance width="1074"/>
  <unicode hex="0432"/>
  <outline>
    <contour>
      <point x="111" y="0" type="line"/>
      <point x="609" y="0" type="line" smooth="yes"/>
      <point x="866" y="0"/>
      <point x="1010" y="127"/>
      <point x="1010" y="318" type="curve" smooth="yes"/>
      <point x="1007" y="420"/>
      <point x="945" y="536"/>
      <point x="823" y="575" type="curve"/>
      <point x="928" y="617"/>
      <point x="978" y="709"/>
      <point x="978" y="803" type="curve" smooth="yes"/>
      <point x="978" y="977"/>
      <point x="846" y="1098"/>
      <point x="598" y="1098" type="curve" smooth="yes"/>
      <point x="111" y="1098" type="line"/>
    </contour>
    <contour>
      <point x="323" y="159" type="line"/>
      <point x="323" y="488" type="line"/>
      <point x="617" y="488" type="line" smooth="yes"/>
      <point x="746" y="488"/>
      <point x="813" y="407"/>
      <point x="817" y="329" type="curve" smooth="yes"/>
      <point x="817" y="233"/>
      <point x="747" y="159"/>
      <point x="617" y="159" type="curve" smooth="yes"/>
    </contour>
    <contour>
      <point x="323" y="642" type="line"/>
      <point x="323" y="930" type="line"/>
      <point x="613" y="930" type="line" smooth="yes"/>
      <point x="728" y="930"/>
      <point x="785" y="865"/>
      <point x="785" y="786" type="curve" smooth="yes"/>
      <point x="785" y="716"/>
      <point x="728" y="642"/>
      <point x="613" y="642" type="curve" smooth="yes"/>
    </contour>
  </outline>
</glyph>
<glyph name="afii10068" format="1">
  <advance width="703"/>
  <unicode hex="0433"/>
  <outline>
    <contour>
      <point x="111" y="0" type="line"/>
      <point x="323" y="0" type="line"/>
      <point x="323" y="928" type="line"/>
      <point x="668" y="928" type="line"/>
      <point x="668" y="1098" type="line"/>
      <point x="111" y="1098" type="line"/>
    </contour>
  </outline>
</glyph>
<glyph name="afii10069" format="1">
  <advance width="1160"/>
  <unicode hex="0434"/>
  <outline>
    <contour>
      <point x="25" y="-304" type="line"/>
      <point x="217" y="-304" type="line"/>
      <point x="221" y="0" type="line"/>
      <point x="912" y="0" type="line"/>
      <point x="921" y="-304" type="line"/>
      <point x="1113" y="-304" type="line"/>
      <point x="1113" y="162" type="line"/>
      <point x="1009" y="162" type="line"/>
      <point x="1009" y="1098" type="line"/>
      <point x="261" y="1098" type="line"/>
      <point x="241" y="693" type="line" smooth="yes"/>
      <point x="237" y="502"/>
      <point x="190" y="272"/>
      <point x="114" y="163" type="curve"/>
      <point x="25" y="163" type="line"/>
    </contour>
    <contour>
      <point x="352" y="162" type="line"/>
      <point x="393" y="264"/>
      <point x="438" y="438"/>
      <point x="456" y="671" type="curve" smooth="yes"/>
      <point x="457" y="689"/>
      <point x="465" y="907"/>
      <point x="465" y="928" type="curve"/>
      <point x="797" y="928" type="line"/>
      <point x="797" y="162" type="line"/>
    </contour>
  </outline>
</glyph>
<glyph name="afii10072" format="1">
  <advance width="1541"/>
  <unicode hex="0436"/>
  <outline>
    <contour>
      <point x="21" y="0" type="line"/>
      <point x="269" y="0" type="line"/>
      <point x="671" y="493" type="line"/>
      <point x="671" y="0" type="line"/>
      <point x="873" y="0" type="line"/>
      <point x="873" y="493" type="line"/>
      <point x="1276" y="0" type="line"/>
      <point x="1523" y="0" type="line"/>
      <point x="1056" y="557" type="line"/>
      <point x="1509" y="1098" type="line"/>
      <point x="1258" y="1098" type="line"/>
      <point x="873" y="607" type="line"/>
      <point x="873" y="1098" type="line"/>
      <point x="671" y="1098" type="line"/>
      <point x="671" y="607" type="line"/>
      <point x="286" y="1098" type="line"/>
      <point x="35" y="1098" type="line"/>
      <point x="488" y="557" type="line"/>
    </contour>
  </outline>
</glyph>
<glyph name="afii10073" format="1">
  <advance width="978"/>
  <unicode hex="0437"/>
  <outline>
    <contour>
      <point x="450" y="-23" type="curve" smooth="yes"/>
      <point x="741" y="-23"/>
      <point x="902" y="101"/>
      <point x="902" y="308" type="curve" smooth="yes"/>
      <point x="899" y="419"/>
      <point x="838" y="530"/>
      <point x="707" y="569" type="curve"/>
      <point x="830" y="615"/>
      <point x="871" y="713"/>
      <point x="871" y="811" type="curve" smooth="yes"/>
      <point x="871" y="984"/>
      <point x="720" y="1109"/>
      <point x="443" y="1109" type="curve" smooth="yes"/>
      <point x="311" y="1109"/>
      <point x="155" y="1085"/>
      <point x="70" y="1011" type="curve"/>
      <point x="79" y="990"/>
      <point x="125" y="864"/>
      <point x="125" y="864" type="curve"/>
      <point x="182" y="909"/>
      <point x="305" y="949"/>
      <point x="439" y="949" type="curve" smooth="yes"/>
      <point x="604" y="949"/>
      <point x="676" y="886"/>
      <point x="676" y="788" type="curve" smooth="yes"/>
      <point x="676" y="714"/>
      <point x="621" y="636"/>
      <point x="496" y="636" type="curve" smooth="yes"/>
      <point x="287" y="636" type="line"/>
      <point x="287" y="481" type="line"/>
      <point x="496" y="481" type="line" smooth="yes"/>
      <point x="635" y="481"/>
      <point x="708" y="406"/>
      <point x="708" y="322" type="curve" smooth="yes"/>
      <point x="708" y="216"/>
      <point x="630" y="142"/>
      <point x="459" y="142" type="curve" smooth="yes"/>
      <point x="325" y="142"/>
      <point x="197" y="174"/>
      <point x="125" y="228" type="curve"/>
      <point x="113" y="199"/>
      <point x="86" y="115"/>
      <point x="73" y="86" type="curve"/>
      <point x="155" y="12"/>
      <point x="300" y="-23"/>
    </contour>
  </outline>
</glyph>
<glyph name="afii10074" format="1">
  <advance width="1150"/>
  <unicode hex="0438"/>
  <outline>
    <contour>
      <point x="111" y="0" type="line"/>
      <point x="302" y="0" type="line"/>
      <point x="840" y="694" type="line"/>
      <point x="840" y="0" type="line"/>
      <point x="1042" y="0" type="line"/>
      <point x="1042" y="1098" type="line"/>
      <point x="840" y="1098" type="line"/>
      <point x="840" y="989" type="line"/>
      <point x="315" y="312" type="line"/>
      <point x="315" y="1098" type="line"/>
      <point x="111" y="1098" type="line"/>
    </contour>
  </outline>
</glyph>
<glyph name="afii10076" format="1">
  <advance width="1063"/>
  <unicode hex="043A"/>
  <outline>
    <contour>
      <point x="111" y="0" type="line"/>
      <point x="323" y="0" type="line"/>
      <point x="323" y="455" type="line"/>
      <point x="786" y="0" type="line"/>
      <point x="1066" y="0" type="line"/>
      <point x="488" y="541" type="line"/>
      <point x="488" y="541"/>
      <point x="631" y="684"/>
      <point x="653" y="707" type="curve"/>
      <point x="768" y="823"/>
      <point x="828" y="929"/>
      <point x="907" y="929" type="curve" smooth="yes"/>
      <point x="930" y="929"/>
      <point x="978" y="920"/>
      <point x="994" y="917" type="curve"/>
      <point x="994" y="1095" type="line"/>
      <point x="972" y="1100"/>
      <point x="939" y="1109"/>
      <point x="893" y="1109" type="curve" smooth="yes"/>
      <point x="758" y="1109"/>
      <point x="702" y="1044"/>
      <point x="574" y="900" type="curve" smooth="yes"/>
      <point x="547" y="872"/>
      <point x="323" y="629"/>
      <point x="323" y="629" type="curve"/>
      <point x="323" y="1098" type="line"/>
      <point x="111" y="1098" type="line"/>
    </contour>
  </outline>
</glyph>
<glyph name="afii10077" format="1">
  <advance width="1200"/>
  <unicode hex="043B"/>
  <outline>
    <contour>
      <point x="1" y="-27" type="line"/>
      <point x="6" y="-27"/>
      <point x="34" y="-26"/>
      <point x="39" y="-26" type="curve" smooth="yes"/>
      <point x="328" y="-22"/>
      <point x="401" y="94"/>
      <point x="401" y="403" type="curve" smooth="yes"/>
      <point x="401" y="927" type="line"/>
      <point x="878" y="927" type="line"/>
      <point x="878" y="0" type="line"/>
      <point x="1090" y="0" type="line"/>
      <point x="1090" y="1098" type="line"/>
      <point x="189" y="1098" type="line"/>
      <point x="189" y="412" type="line" smooth="yes"/>
      <point x="189" y="208"/>
      <point x="180" y="161"/>
      <point x="34" y="154" type="curve"/>
      <point x="-5" y="152" type="line"/>
    </contour>
  </outline>
</glyph>
<glyph name="afii10078" format="1">
  <advance width="1238"/>
  <unicode hex="043C"/>
  <outline>
    <contour>
      <point x="110" y="0" type="line"/>
      <point x="314" y="0" type="line"/>
      <point x="314" y="765" type="line"/>
      <point x="570" y="366" type="line"/>
      <point x="678" y="366" type="line"/>
      <point x="928" y="765" type="line"/>
      <point x="928" y="0" type="line"/>
      <point x="1130" y="0" type="line"/>
      <point x="1130" y="1098" type="line"/>
      <point x="940" y="1098" type="line"/>
      <point x="620" y="608" type="line"/>
      <point x="301" y="1098" type="line"/>
      <point x="110" y="1098" type="line"/>
    </contour>
  </outline>
</glyph>
<glyph name="afii10079" format="1">
  <advance width="1156"/>
  <unicode hex="043D"/>
  <outline>
    <contour>
      <point x="111" y="0" type="line"/>
      <point x="323" y="0" type="line"/>
      <point x="323" y="506" type="line"/>
      <point x="836" y="506" type="line"/>
      <point x="836" y="0" type="line"/>
      <point x="1048" y="0" type="line"/>
      <point x="1048" y="1098" type="line"/>
      <point x="836" y="1098" type="line"/>
      <point x="836" y="671" type="line"/>
      <point x="323" y="671" type="line"/>
      <point x="323" y="1098" type="line"/>
      <point x="111" y="1098" type="line"/>
    </contour>
  </outline>
</glyph>
<glyph name="afii10081" format="1">
  <advance width="1200"/>
  <unicode hex="043F"/>
  <outline>
    <contour>
      <point x="134" y="0" type="line"/>
      <point x="346" y="0" type="line"/>
      <point x="346" y="928" type="line"/>
      <point x="855" y="928" type="line"/>
      <point x="855" y="0" type="line"/>
      <point x="1067" y="0" type="line"/>
      <point x="1067" y="1098" type="line"/>
      <point x="134" y="1098" type="line"/>
    </contour>
  </outline>
</glyph>
<glyph name="afii10084" format="1">
  <advance width="873"/>
  <unicode hex="0442"/>
  <outline>
    <contour>
      <point x="335" y="0" type="line"/>
      <point x="547" y="0" type="line"/>
      <point x="547" y="937" type="line"/>
      <point x="847" y="937" type="line"/>
      <point x="847" y="1098" type="line"/>
      <point x="26" y="1098" type="line"/>
      <point x="26" y="937" type="line"/>
      <point x="335" y="937" type="line"/>
    </contour>
  </outline>
</glyph>
<glyph name="afii10085" format="1">
  <advance width="1103"/>
  <unicode hex="0443"/>
  <outline>
    <contour>
      <point x="96" y="-410" type="line"/>
      <point x="185" y="-410" type="line" smooth="yes"/>
      <point x="499" y="-410"/>
      <point x="543" y="-317"/>
      <point x="657" y="-11" type="curve" smooth="yes"/>
      <point x="1070" y="1098" type="line"/>
      <point x="841" y="1098" type="line"/>
      <point x="557" y="266" type="line"/>
      <point x="247" y="1098" type="line"/>
      <point x="20" y="1098" type="line"/>
      <point x="443" y="34" type="line"/>
      <point x="366" y="-215"/>
      <point x="346" y="-230"/>
      <point x="143" y="-230" type="curve" smooth="yes"/>
      <point x="69" y="-230" type="line"/>
    </contour>
  </outline>
</glyph>
<glyph name="afii10086" format="1">
  <advance width="1446"/>
  <unicode hex="0444"/>
  <outline>
    <contour>
      <point x="618" y="-190" type="line"/>
      <point x="830" y="-190" type="line"/>
      <point x="830" y="38" type="line"/>
      <point x="859" y="26"/>
      <point x="929" y="22"/>
      <point x="957" y="22" type="curve" smooth="yes"/>
      <point x="1206" y="22"/>
      <point x="1364" y="282"/>
      <point x="1364" y="555" type="curve" smooth="yes"/>
      <point x="1364" y="828"/>
      <point x="1200" y="1081"/>
      <point x="948" y="1081" type="curve" smooth="yes"/>
      <point x="920" y="1081"/>
      <point x="859" y="1073"/>
      <point x="830" y="1062" type="curve"/>
      <point x="830" y="1284" type="line"/>
      <point x="618" y="1284" type="line"/>
      <point x="618" y="1062" type="line"/>
      <point x="589" y="1073"/>
      <point x="527" y="1081"/>
      <point x="500" y="1081" type="curve" smooth="yes"/>
      <point x="247" y="1081"/>
      <point x="86" y="829"/>
      <point x="86" y="555" type="curve" smooth="yes"/>
      <point x="86" y="283"/>
      <point x="242" y="22"/>
      <point x="491" y="22" type="curve" smooth="yes"/>
      <point x="518" y="22"/>
      <point x="589" y="26"/>
      <point x="618" y="38" type="curve"/>
    </contour>
    <contour>
      <point x="495" y="178" type="curve"/>
      <point x="359" y="178"/>
      <point x="290" y="367"/>
      <point x="290" y="551" type="curve" smooth="yes"/>
      <point x="290" y="737"/>
      <point x="366" y="924"/>
      <point x="501" y="924" type="curve" smooth="yes"/>
      <point x="528" y="924"/>
      <point x="587" y="923"/>
      <point x="618" y="907" type="curve"/>
      <point x="618" y="195" type="line"/>
      <point x="588" y="182"/>
      <point x="522" y="178"/>
    </contour>
    <contour>
      <point x="952" y="178" type="curve" smooth="yes"/>
      <point x="926" y="178"/>
      <point x="860" y="181"/>
      <point x="830" y="196" type="curve"/>
      <point x="830" y="905" type="line"/>
      <point x="862" y="921"/>
      <point x="919" y="925"/>
      <point x="947" y="925" type="curve" smooth="yes"/>
      <point x="1082" y="925"/>
      <point x="1159" y="737"/>
      <point x="1159" y="551" type="curve" smooth="yes"/>
      <point x="1159" y="367"/>
      <point x="1088" y="178"/>
    </contour>
  </outline>
</glyph>
<glyph name="afii10088" format="1">
  <advance width="1157"/>
  <unicode hex="0446"/>
  <outline>
    <contour>
      <point x="943" y="-305" type="line"/>
      <point x="1116" y="-305" type="line"/>
      <point x="1116" y="121" type="line"/>
      <point x="1005" y="121" type="line"/>
      <point x="1005" y="1098" type="line"/>
      <point x="793" y="1098" type="line"/>
      <point x="793" y="165" type="line"/>
      <point x="331" y="165" type="line"/>
      <point x="331" y="1098" type="line"/>
      <point x="119" y="1098" type="line"/>
      <point x="119" y="0" type="line"/>
      <point x="928" y="0" type="line"/>
    </contour>
  </outline>
</glyph>
<glyph name="afii10089" format="1">
  <advance width="1102"/>
  <unicode hex="0447"/>
  <outline>
    <contour>
      <point x="781" y="0" type="line"/>
      <point x="993" y="0" type="line"/>
      <point x="993" y="1098" type="line"/>
      <point x="781" y="1098" type="line"/>
      <point x="781" y="744" type="line" smooth="yes"/>
      <point x="760" y="641"/>
      <point x="663" y="557"/>
      <point x="520" y="557" type="curve" smooth="yes"/>
      <point x="333" y="557"/>
      <point x="281" y="673"/>
      <point x="281" y="867" type="curve" smooth="yes"/>
      <point x="281" y="1098" type="line"/>
      <point x="69" y="1098" type="line"/>
      <point x="69" y="834" type="line" smooth="yes"/>
      <point x="69" y="560"/>
      <point x="199" y="385"/>
      <point x="481" y="384" type="curve"/>
      <point x="623" y="384"/>
      <point x="730" y="436"/>
      <point x="781" y="518" type="curve"/>
    </contour>
  </outline>
</glyph>
<glyph name="afii10090" format="1">
  <advance width="1401"/>
  <unicode hex="0448"/>
  <outline>
    <contour>
      <point x="111" y="0" type="line"/>
      <point x="1293" y="0" type="line"/>
      <point x="1293" y="1098" type="line"/>
      <point x="1091" y="1098" type="line"/>
      <point x="1091" y="171" type="line"/>
      <point x="805" y="171" type="line"/>
      <point x="805" y="1098" type="line"/>
      <point x="601" y="1098" type="line"/>
      <point x="601" y="171" type="line"/>
      <point x="315" y="171" type="line"/>
      <point x="315" y="1098" type="line"/>
      <point x="111" y="1098" type="line"/>
    </contour>
  </outline>
</glyph>
<glyph name="afii10091" format="1">
  <advance width="1458"/>
  <unicode hex="0449"/>
  <outline>
    <contour>
      <point x="1229" y="-285" type="line"/>
      <point x="1405" y="-285" type="line"/>
      <point x="1405" y="119" type="line"/>
      <point x="1293" y="119" type="line"/>
      <point x="1293" y="1098" type="line"/>
      <point x="1091" y="1098" type="line"/>
      <point x="1091" y="165" type="line"/>
      <point x="805" y="165" type="line"/>
      <point x="805" y="1098" type="line"/>
      <point x="601" y="1098" type="line"/>
      <point x="601" y="165" type="line"/>
      <point x="315" y="165" type="line"/>
      <point x="315" y="1098" type="line"/>
      <point x="111" y="1098" type="line"/>
      <point x="111" y="0" type="line"/>
      <point x="1220" y="0" type="line"/>
    </contour>
  </outline>
</glyph>
